/* XPM */
static char *_508533454276[] = {
/* columns rows colors chars-per-pixel */
"128 128 18 1 ",
"  c #0C0C0C",
". c gray7",
"X c gray8",
"o c #181818",
"O c gray11",
"+ c #202020",
"@ c gray15",
"# c gray17",
"$ c #2D2D2D",
"% c #323232",
"& c gray21",
"* c gray22",
"= c #3E3E3E",
"- c #434343",
"; c gray28",
": c gray29",
"> c #4E4E4E",
", c #505050",
/* pixels */
"#$$$$$+X=@$###%%$##$%#####$$&%Oo;##$$$Oo;-*-;;-*=$##@#%@#$%##$%$#$$$$$$@#@$#@$@o-*-;;=-=-##$&%Oo:--;--=;;=*-;;-*=-=-&-;X-$$$#$%%",
"#@##%%OX-@#$$#$$$#$#$$$$##$%%#+X;$#$$$@X&#$$$$#$##@$&&%$$$$#$$#@#@#$%%@#$##%$#+o-###$$$###$%$#+X;$$$##$#@$$%$$#$##@#&&+X-$$#$##@",
"@###$%OX-#$$$#@###$#$#@#%@#$%%+X;&%#@#+o>$$$$%$####$%###$$###$%$@###$$#####$$#OX=#$#$$@#$@#%%%+X;&$#@#$%&$##%$$##@#$%#+X;$$#$$$$",
"$####$+o=$$$#####@##$#%#@@@&&%+o;###$#OX-#######$$$%##@#%$$#$$#@$#####$$##$$#$+X=@#$$$%#@@@&*%+o;######@$$######$%$%##OX;$$#$$#@",
"%$$%##OX-$%%$@####$$%&$#@$$%##OX=@@###o.-$$$$$$#@#####$@@#######$%$%##$##$%&$@OX=#$$$&%#@#$%##+X-@@###+@#$$$$$%#@#####@.*##@$###",
"@#@@%%+X=$##@##$##$#@#&&$$$$$@OX-@@@#%OX=$$$$%%%#######$#@@@####@#@#$%$$###$@#+o-$$$##&&$#$%$@OX=@@@#$@@#$$$#%%%######+o-@@@###@",
"$#$$$#+X-@#$@#$$##%###$#$#$$#@+o-OO++@@X-#$%$%$##$#%&&%##@@@@$++O++@+++++O++O++o-+@+OO++++++OO+o-@@#%&$$##$%$%@OO@O@@#+X=@@@#$$$",
"&$##$$+X=#%%$###%%##$$%&$##$$$@oooX.XXXo=$#$$$$%$$#$%$#$$%##$#+oooXXXXXXXXoooXXXooXXXooooXXooXoo:$#@@@$%#$#$$#+ooXXooXXo;%##$#$$",
"%#@#%$OX;$$##$%##$$%$@#%$%$$%$+==;;==;:X=$#$$$#@#%$$$$@#$$#@#$+o;=*=;;-X;;===:;=*;;;-*--;:-;:-==-$%##$%##$#$$$OX=;;;--=X-##@#%$$",
"##@#@@+o-##@#$#####@$$#@$$%$$$########+X-###$$$$###$@######$%%+X-###@@+o-##@#$#@###@$$$@#$$%$$###@###$$#####$$@X=####$OX=#$$%%##",
"@##@@$+X=#@$##$$#@###$##@@@$@###@+$$$$Oo-$$###%#@###$%#$$#@#$%@o&##@@#+X-@#$##$##@##$$##@@@$@@$#@+#$$$##$$$###+X*$##$%+X;#@@$%%$",
"#&%@#$OX-$$###@@##$#########@@@##@#$$%+X=$$#@#$$$####$##$#$$##OX-&$#@#OX-$$##@#@###########$@@@#$@##%$##$$$#@#+o-$#@#$+X;#$$#@##",
"##$#$$+X-##@@#@##@@#$#####%$@@#%%##$%%+X-###%$$$$#####%%%##@##OX=###$$+X-##@#@@#$#@#$###@#%$@@#$%#$$%$######%$+o-####$@o;##@###@",
"$$$%%$+X-#$%#@@$@####$$$$$%%###@#%$$#$+o=#$%%$$$%$$$$$#$###$##@X=%%$$$+X-$$$#@@#@@##@#%$%$$%#####$%$###%##$%%$+o;$##$$OX-##$##$$",
"+@@Oo++X*#@@#$#+O++++O+@+O++++O+++++OOOX:%$$$#OOO++OO+@+O+@+oO+.;%%@@#OX&#@##%&#@#$###$$##$###O+O+++O+++@@++++OX-##@$$@X*+@OOOO+",
" X..XXoo-#####OXXXXXoXXXXoXX.XXooooXXXX.-$@@#$+XXXXooOX.XXXXX.XX;#@@@#@o-#########$$$##@#%#@@#+ooooXXXoXXXXXXXXX=$#$&&OXXXXXXXXo",
",>=-==;::$####+X*---***=;>:=--==>:;-=-;=-##%&%OX;=**=;--===;;=;>>&####+o:######@@##$@@@#%&%$##+X>:;-=----=-;,;*-;#@##$+X---;-=;>",
"%#@@@##$$#@##$OX*$$$##%%###$$#@#$%%$$$$$#$%$%$+o-#$##@#$%##$##@#%#@@@#Oo;#@####@@#%$$#$%$@@$$#OX;%$$$$$$#%$%%$%$#@###@+o;#@$#@@#",
"#####@#@$#@@@#Oo;#@#####$#@#$#@#$%$$#@#$$@#$$%+o;#@@##%#@#$@@#%$####@#+X;#@@@@$%$#@@####$#@#%#OX;%$%#@#$#@#$$%#%$#@@##@X*#$@@#%%",
"@@@$########@#@o;#@@$$&##$$$@#@#$%$$$%#@@@#&=%OX=@@##@##$&&%$$#@@@####+X*###@#%$%#@@#%&##%$#@#OX;$#$$%$@@@#&=$@#$@@##@+X;&&%$$#@",
"@@##@####%&#@@+X&#&&$$####$$#@@###%&&%#@@#$%%$+O;$@#$#&&%###$&%@@@##@#OX=%&##@#@@#&&$#####$$#@OX=#$&&$$@@$%$%$%&%#@####o;###%&$@",
"@##@###@###$$%+o*@##@#&#@$%&%@O@#%#@#&&%#%%%##OX&+@%$#@#&%@#%$##@##@##+X-##$$$%%@@#$@#&##$%&$#oX=%$@#&&$#$$%##@@@+@$%#OX>%@#$%#$",
"$&%###$$$$$%##@o;#@@#$%#@###%%OO++OOo@OOoO++O+#o*@#$#@@#$#@#%&&$$&%##$+o-++@O+@+++OOO@++O+O++@O.=#@@@%OOO++O++@@o@#%#@OX;#@#$&&%",
"$#$###%%$$#@$$@X*##@@##@@###@@OXXoX..XX.XXXooX.o-@@#%#@@#@@#%$%###$##$+oooXXXooXXXXXXXXXXXXXX...-%#@@$+XXXXooX.o-@@#$$O.-@@#%%$#",
"#######@###%$$OX=$#####$#@@$#@OX=;;;-&*-=-;;=-:X=#$#%%$$@@#%$$%%######OX--=;;=-==-=--==X-&*-=*--=$$%#@OX=--;=-;X=###%%@X&@#$%$%$",
"#$###$%$$&&$$&@o-#@@###$#@@@##@o-%&#@$%$$#@@#$#X-$$$$&#@$$$&%%$##$###$@X;%&$$&$$$##@##Oo-@@@##$$#%&#@$@X;#@##$+X-$$$$&OX;$$&%%$#",
"#@#@##@#$#@$$%O.*#$##@@####@@@Oo;$##$#$#####%$$.=$$$###$$%##$%###@#@##+X-#@#$%$@@##@#@OX=##@@@$$%$#$$#+X=###$%+X=$%%##+o-%##$$$#",
"###$$###$##@$%@.*#$####$$$#@@$+X*#@####@@####$%X-@##@##$##$$#$$@###$%$+X-####%%@@$$###+o;##@####@#@##$+X*#$@#$+X=#@#@#+X*$$$#$$#",
"##$$%$#$$$$$$@@o-@@@@#%$@@$@$$+X&%$$##@@@@#&&$#X*@#@++@$#$##%$#@##$$$$OX-$$$$#%$#@@@@#@X&@%@#$$@@%%$##O.*@#&&%+X*@#@++OX=%##$%#@",
"###@#$$#@#$#$$OX;@@@###$%$@#$%OX-$$#$%%##%$###$X-#@#$@###@@@###@###@$$@X&#$@##@#%@@@##Oo;#@$$%@##$#$$%@X=%%###@X-#@##@+X-@@@$##@",
"####$#@#%@@$#@+X-#@@@#$@@@+$$$O.;$#@####@#%$#@$o;###$$&&%#@@@@#&####$#OX;@#$#@####@@@#OX*ooO++OO+++OO+OX&#%$#@Oo;####%#o;#@@@@#&",
"$$####%&&$#$$$O.&#$#@@#$@+@@$%OX;$$####$$&&$#$%X-$&%##%#$$%$#%%#$$##$#+O,$#$#$#@@#$$@@+o..XXXoXXoooXXoXX%&&#@$@X-$&%#$+X-$$%#%$#",
"#$##@$@@#%#@@#+o;#@#$#@#%$$#$%+X*$%$%$#$$%###$@X;$%@@##@%%#@##@$#$##@%OX-$##@#%$$#@#%#OX;;-=-;;**-;;;;=-;$###$+o:$%@@$OX:$#@##@#",
"##$$#@$####@@$+X-#@@@@$%#@@###OX*@#%$##$#@#%@#@o;#%#@@##$@$$#@#$##$%#@+X=##@@##@##@@@@@o=@@####@@@#%$$#$#@#%@#@o;#%#@@+X:@$$#@#%",
"#$%#@@#$###$#@OX&##@@%$%#@#$$$+X=%$$@##$#$#@@@#O;@$#@$$@$$%&%$%##$$$@@+o-##$#@@#@##@@$@X-@#$$$$@#%$#@@#$#%#@@@@+;@$@@$+.-$%&$$$#",
"@###@####@##@$+X-&$@@#@@$&%#$$+o-@@##$$%&%#@#%@X:$&$@@$%&&$$$$&#@###@#+X=@##@####&%@@$O.;&%###$$#@@##$$%&$#@#%+o;%&$@#+o,&$$$%&#",
"@$##@@###@#$##OX-###$%%@$###%#OX-@$##$$@$&&%#$+o-@@+@$$$@%%@$$$$@###@@OX=@$####@####$%+.=###%#@#$@###$$#$&&%#%@o-@@+#$@X*$%@$$%#",
"@@$%##$$#%&&##+o=%$%$$%$#@$$%$OX*$$##$@@@$#@@#+X-&$@#%##@#$@#%&%@##%##+X-$&&###%#%%$#%@o=@#%%$@##%$##$@@@$#@@$OX=&#@#$+X*#$#$%&$",
"O@+++@++OOO+O+O.;$%@@##@@#$%$%OX-%%#@@$%%$%$$#+X-+O+@@+OO+@@+++OO@+O+@+X=@@#$#@@%$%@@#O.*#$%%$###$%$@@O@@@+@++OX-%@#&&OX=O@++++O",
"XXooXoXXXXoOoXXo;#@@@#%$%###%$+o-$$$$&#@#%##$#+ooooooXoooXXXXX.XXXooooX.-#%&$@#%$#@@@#@o;###%$$#$%$#%&O.XoXXXXXo>$$%%#+oOXoXX.X.",
";,>-=-*X--=-==-;>&#####%#@####OX-$%#@@##$%#@@#+X=-=;---*&--;;-=*:,>-=-&&-######$&&####Oo=@####@@#$%#@@OX:;=**-;;=##$$$+X*-;-;-**",
"@#$%$$OX&#%$#@@#%#@@@@@###@##$OX>&$######%$%%%@X-@$%%$$$$$#$#$$$@#$%$##@@#$%#@@#%$@@@@OX-#@###@#&%$###OX-%$%$%$$##$%%%+o;$####$%",
"##@$$$OX*@@@@@######@@@#%#@@#$+o;$#@#%##$%#@#$Oo-$@#$#@#$$$$###$###$$$##@@@@@@######@@OX;##@#$%%$%$@#%+X;%#@##$$$$@@$#OX-#$$###$",
"@####%@o-@@#####@@@#######@#$%@X*@@@##@@#$%##$Oo-###@@##$#@%$$$#@####%$%#@@#####@@@##$+X=#@@$%$##@@@$$OX=$%$###$$$###@+X-##$$%$$",
"$$@#@#OX&#%$#@@@@@$#@@####$#$$+X*@@@@#$&$##$##+o:$$#@####$$$##@#$#@#@###@#%$#@@@@@###@OX-@$#%$#@@@@@@#+o;##$##$&%$$$##OX-$%$##@#",
"$##$#$#o-@@%$%$#@@#@@#$#@##%&$O.-$$$$$$$$$%%#$@o;$%$$$$$##$$##$%$##$##&&#@@$$%$#@@#@@#+O*##%%$@##$$%$$@o=$%%#$%%$%%$$$+o=##$##$%",
"$#@#%$OX$O+OOOO+@@+OO+++O+O+++OX-$$##$$##@#&%$+o-#####@#$$######$@@#%$#@+$%@@@@#%&#@#$++=#$###+OO@O+O++X$O+#@+@+O+O+O+OX-$##@###",
"#@@##$+XXoOoXXXXXXXoXoXoXXXXXoXX=##$%%#@#$##$#+X:%$@@#@###$#$#@@$@@####@@$&########$#$++-#@###+XXXXoooXXXXXXXXXXoooXXXXX=#$#$#@@",
"&$###@O.=>,,:==-=-*===-=**-;:;===#%&&%##$###$$@X-$$%$$#@#$$####$&$###@@@#&&&$#####@###O+=@#$%$OX=-:,>;-=-===;-;+;-;;;;=**$%@##@$",
"#%%$##O.-$%$#@####@##%%#######$$$###$$$%$####$+X*#$#@%@@#$#$@++##%$%##@@#%%$$@#####@#$@+=##$##+o-###$$$%$####$+X*$$#@$@@#%#$@@+#",
"@#####OX-#@##@#@@#$#$$$$$#@#@@##$#####$#####$%OX-%$%#@########@#@#$###@###@##@@@@#$$#$++;##@@@+o=#$###$$####$$+.=%$%#@######@###",
"#@###%@X&##@###@#$#$%$##%&%#@####@@###$$##@#$$OX;$%#@@#%#@@@#$$$#@##$$%#@##@##$@$$#$%$++;&%###OX-@@#$@#$###$$#+X;%$#@@#%#@@@#$%#",
"%$#@##oX-###&&#@@###%$#%$%#####$####$%$#$$###$@X=#@@@#@@#@@@###@%$#@##@@####&&#@@#@#%%O@-$####+X=###%$$$$$###$+X=#@@@#@@#@@@###@",
"%%#@##+X=@@##$$$$$%$@##@#$$$%#@@##@#$$$@$$@@#&@X*@##@@@@##@#@@@@$%#@#####@@$#$$$%$%#@#+O-$%#$#OX-@@#$$$@$#@+#&@X*@##@@@@##@#@@@@",
"##%$&&@X=%%#%$%#$%$$##OO+#@Oo+@++OO+++O+++OOO@@o*@#%########@@#@$#%$&&++O@+++@@O+@+@OO+O=&%@@$+o;#@###O+++OO+@@o*@#%######$#@@#@",
"$#@@$%OX-$$$%#@#$%$%#$+XXoXXX..XXXXXoXXX.ooXoX.o;#@@@@#$#@@%@###$$@@#%+XXXoooXXXooooXXXO-$$#@@OX-@@#%$+XXoXooX.o;#@@@@#$#@@$@###",
"##@@$$+X-@#####$@$$$$#OX::;;;-==:=-**;&*==-;-=-&-$@@@###$%#@#%$@@#@#$$+X-**--==-==--=--=;$%$%$+X;##@#$O.==-;-=-&-$@@@###%$$@#$%@",
"@@#$$$+o*$$$##$$$$$%$#+X;$#@###%%##@@@#$$$#$$@@####@@@##@@@+$$#@@@#$$$+o=$$$##$$$$$%$###$%#@#$Oo;##@@@+X-##$$@@####@@@##@@@+#%#@",
"####$$O.-$%@@$$$##$##@+o=##$##$@@##$#@#$$@+#@#%#@@#%#@@$%@+@@#%#####$%OX=$%#@#$$##$#@@##$#####+X&##$#@+o;@+@@#$#@@#%#@@$%@+@@#$$",
"@@##@#O.=%#@@%$#@$$#$$OX=%%#$$@@#&&##@###@@#@@@$###@@#%$$@@$###$@@##@@O.-$#@@%$#@$$#$$###%%#$$OX-%&##@+X=@###@@####@@#$%$@@$##$$",
"#@##$#OX*$$##$$$###@#%+X-#$$%$$$$%##@$#$$$$$@@%$@@$&*$$$%$$@$$#@#@##%#oX*#$$#$$%$#@##%$$#$$%%$+o;$#@@$Oo;$$#@@%%@#$&*$$$%$##$$#+",
"#$$$##Oo-##%##$$$##$$%+o>$##$###@####$##$%%$#$%*%$@#$%%%#@@$##$$#$$#$#OX-#$%#@#$$$@$$%$%&$##$#OX*####$+X=%%#$#$&$$###%%$@@@$##$$",
"O+++O+@X-$#@$$++O++++@oX;&$%$##%#@+@##O+OO@+O+++O++@@@OOO@O+O++O++O+O+@+-++O+++O+++++@OO+#++++Oo=@+##$OX*$$$@#$$###$%$OOO@++++O+",
"ooXXoXXX=#####+XXXXOo.Xo-#@@@#$$$$$$#$+ooX.XoOXXXXXo.XXXXXoooo.XXoXXooXXXXXoXXooXXXoo.XoXXXXXXoX;$$##%+o;@##&&#@@#$$#$+oXXXooXXX",
"-----;;*=@$#@$#o-*=;:=-o-##%&%$$%$$$%$+o--*;;;====-=*=:*=;----;;-----;-*=*--*-::=*-;;--=-==;>:=;;##$$$+X;#@$%%######@#+X=;;=-;;;",
"@@##%$@#$#@%$$+o-$$#$%+X=$$$$##$$$#$#$+X&$$$$$#$##@#&&%$#$$####@#@#$%$+$$#@%$#$%$#$#$$$###$%%$#$$$$$$$@X&#$$$$$$##@#&&+o-$$#$##@",
"@$##$$$####$$$OX-#$$$#oX;@#%%$##%%%#@$+o:%##%%###@#%%###$$###$%#@###$%##$##%##@###$#$#@#$@$%%$##%&$#@$+o:%##$%$##@#$%#+X;$$#$$$#",
"$####$$$##%$##+X=@@#$#@X&@@&&%$%%#####OX-$#@####$$%$##@#%%$$$$#@$####$$$##$$#####@#$$#%#@@@&&%$$%####$OX-$##$#@#$%$%#$OX;$$#$$#@",
"$%$%$#$@##%%$@+X=#$$$&+X*#$%##@$#@@###o.-$$$$$%#@#####%@@##@####$%$%##$@#$%%$@####$$$&%$@#%$###$#@@###o.-$$$$$$#@#####@.*##@####",
"#@@@$%######@#Oo=$$$###o;#$$$@@##@@@$$O.=$$$#%%$$########@@@###@@#@#$%######@##$##$$##&&$#$%$@@##@@##$O.=$$$$%%%###$##+X-@@@###@",
"#$$$$###$#@$@@+X=$%$@#+X-#$$#@O@+OOO@@@X-#$%$%$##$#%%&$##@@@##$###$$$##$$@#$#@$$#$%#@#++++@+OO+@OOO++#@X=#$%$%$##$#$&&@X=@@@#$%#",
"&$#$#####$%%%$+X:%##$%@o-#$$$#@oooXXXXXX=$$$$#%$$$$$%$$%$%##$#$%&$##$####$%%$##$%%##$$@oXXXXoXooooX.XXXo-$$$$#$%$$#%$$Oo;%##$##$",
"$$@#$$##$%###%@X=$$%$#Oo;%#%$$+X-;;=--;X-$#$$$#@$%$$$#@#$$###$$$$#@#$$#$$$###%$##$%$$#Oo;:-;:-==-;;=--;=-$#$$%@##%$$$$OX-##@#%$$",
"##@##@$$$$@@#$+X-#@##$+.-$$%$$+o=@#$##+X=###$$%$###########$%%#####@#@$$$$@##$####@##$+X-$$%$$###@###$$#####$$$$##$##$+X=#$$%%##",
"@##@@#$#$@@$#$+X=@##$$OX*@#$#@OX*+#$%$+X-$$###$$@###$%@$$$@#$%%$@##@@#####@$#####@###$OX&@@$@@##@+#$$$##$$$#@#$$@###$%+X;#@@$%%$",
"#&%@##@@$$$##@OX=$$#$$+X=#@$@@OX-@##$%+X-$$#@@$$$####$##$#$$#@###&%@##@@$$$##@#@######+X=##$@@@#$@##%$###$$#@#$$$####$+X;#$$#@##",
"#$#$$#$###@##@OX=@@#$#OX*#%$@@+o:#$$%$+X=##$$%$$$####$%%%##@@#######%#$####@@@@###@#$#+X*#$$@@#%%#$$%$######%$$$$#@##$@o;##@###@",
"#$%$$%##%$%$##OX*#####@X;%$%#$+X*$%$$#Oo-$$$%$$%%$#$$$##$$####$$#%%$$%##$$$%##@#@#####@X:%%%###@#$%$###%##$%%$$%%$##$$OX-##$##$$",
"+@@OO+O+OO+OO@#X=@$###+X=#$###+X-$####+X:@@+++OOOO+O++++O+@OOOO@+@+OOO++OO++O@@OO+++OO+o-#$###+OO+++O+++@@++++OOO###$$@X*+@OOOO+",
" X.XXXoooXXXXXXX=$$$$$+X-$#@@#+o-%$###@XXX..XXXX+oXooOXXXXXXXXXXoXXXXXoooXXXXoXXXXoXoXXX=$#@@#+ooooXXXoXXXXXXXXX-$#$&&OXXXXXXXXo",
",>=--=;::;=-=-=&*##$@@oX:%%#$#OX>%%#$#--===;,;OX;=**-;;=--=;;=;>,>=-==;::--==--.&---***-;&%###+X>:;-=---=-=:,;=X;$@@#$+X---;-=;>",
"%#@@@@#$$#@###$@@#%$##@o-#@%$#OX;$%$$$$$#%%$%$@o-@$##@$$$#@$#@@$%$@@@##$$#@###+.&#%$##%$$@@%$#+X;%$$$$$$#$%$%%+o=@#$#@+o;#@$#@@#",
"#$##@##@$#@@@@#$$$@@##OX-@@$$#OX:$$%$@$$#@#%%%Oo;#@@##$#@#$#@$%%####@@##$#@@@@Oo;#@@####$#@#$#oX;%$%#@#$#@#%$%+o;#@@##@X*#$@@#%%",
"@@@$####@$##@#%%%#@@#%#.-%$##$OX-%##$%#@@@#&*%OX=@@##@##%&&$#$#@@@#$########@#@o;#@@#$&##%$###OX;$#$$%$@#@#&*%OX-@@##@+X;&&%$$#@",
"@@##@#$##%&##@#@@$&&$#+X=#%$$@OX-#%%&%#@@#%$%%+o;#@###&&$###%&$@@@##@####%&##@+X&#&&%#####$$#@OX=#$&&$$@@#%$$%+o;#@####o;###%&$@",
"@#####@@###$$%%$@@##@##X&$$&%@oX-$#@#&%%#$%%##OX*+@%$#@#&%@#%$##@##@###@###$$%+o&@##@#&#@$%&%#oX=%$@#&&$#$%%##OX&+@%$#OX>%@#$%#$",
"$&$###$$#$$%##+@@OOOO@@X*###$%oX=#@@@$$@@######o&@$$#@@#$#@#$&&%$&%###$$#$%$##+o;#@@#%$#@###$%OX=#@@@%#@@######o*@#$$@oX;#@#$&&%",
"$#$$##$%$%#@#%@.XXX.XXX.*$##@@OX=%#@@##@@@#$%#Oo-@@#%#@@$@@#%%$###$###%$%$#@#%#X*##@@##@@###@@OX-%#@@##@@@#$%$oo-@@#%#OX-@@#%%$#",
"#####$@#$#$$%#OX=-==-=-==@@#$@+X-$%$#@@###$%#$+X=##$%$%#@@$$%$%$###########$%#OX=$#######@@##@OX=$$%#@@#$#$%##@X=###%%@X&@#$%$%$",
"#$###$$$$&&$$&@o-#@####$#@@@#$+o=%&#@$%$$#@@#$+X-$$$%&#@$$$&%%$##$###$$$$&&%$&@X-##@###$#@@@##+o-%&#@$%$$##@#$+X-$$$$&OX;$$&%%$#",
"#@@####@$#@#$%+.*$##@#@####@@@Oo;$#$$#$#####$%@.=$%$###$%%##$%###@#@$#@#$#@#$%OX*##@@#@####@@@+o;$#$##$#####%%+X=$%%##+o-%##$$$#",
"###$%$##$$#@#&+X*#$####$$##@##+X*#@####@@$$##%+X=#@#@###@#$$@$$####$$$##$##@#%@.*$$####$$##@#$OX*#@#####@#$@@$+X=#@#@#+X*$$$#$$#",
"###$$$$$$$$$$#+o=@@@@#%$@@$##$+X*%$$##@@@@#&%%OX*@##@+@##%##$%#@##$$$$#$$$$$$@@o-@@@@#%#@@$##$+X*%%$#$@@@@#&&%+X*@#@++OX=%##$%#@",
"###@#$$#@#$###OX;@@@###$%#@#%$O.-$#$%$%#$$%###+X=#@##@###@@@###@###@$$$#@$$###OX;@@@###%%$@#%$OX-$#$$$%$#%%###@X-#@##@+X-@@@$##@",
"####$#@#%@@$##+X-#@@@##@@@+#%#O.;$#@@###@#%$#@+O;####$&&$#@@@@#&####$#@#%@@$##OX=#@@@##@@@+#%#OX;++OO+OOOO@+OO+o;####%#O;#@@@@#&",
"+$####%&&$#$#$OX*#$#@@#%@+@@$%O.;%$#####%&%##$@o-$&%#$%##%%$#%$#$$####%&&$#$#$OX*#%#@@#$@+@@#$OXoXoXXoXX+#@+++++-$&%#$+X$+@+++@O",
"-$$$@$@@#$$#@#+o:#@#$$@#%$##$$@.*#%%%$$$$%###%+o:%%@@##@$%#@##@##$##@%@@$$#@@#@o;#@#%$@#%$##$%+**-;;;-=-;;==-;;;;$%@@$OXooXXXXXX",
"=#$$#@#$###@@#+X-#@@@@$%$@@###+.*@#$$$#$$@#$@#@X;#$#@@##%@#%#@#%##$%#@#$####@$OX=#@@@@$%#@@###$@@@$$%$#$$@#%@#%$%#$#@@+X:*=;-&$o",
"-$$#@@#$##$$#@oX*##@@%$%#@$$$$OX-$$#@##$$$#@@@#O;@$#@$$@$$%&$$$##$$#@@#$###$#@OX*##@@$%$#@#$$#$@#$%#@@#$#$#@@@&=%@$#@$+.-$%&%$+X",
"*#$#@$@$#@##@#+X-&$@@$@@$&%#$$+o=@@##$$$&%#@#%+o;$&$@@$%&&$$$%&$####@#@##@##@#+X-&%@@#@@%&%###$$#@@##$$%&%#@#$%$%$&$@#+o,&$$$%#X",
"*$#$@@###@$###OX=#$#$%$@###$%#oX-@##$$$##&&$#%@o-@#+@$$$#$%@$%%#@###@@###@####OX=###%$%@####%#@#$@###$$##&&$#$%%$@@+#$@X*%$@$%+X",
"*@$%$@##$%&&#$+o-$$%#%%%#@#$%$OX=$%##$@@@%#@@#+X-&#@$%$@@$$@#$&%@@$%#####%&&#$+o-$$%$$$%#@#$%$@##%$##$@@@%#@@##$#&$@#%+X*$$##$#o",
"$@+++@+++OOOO+OX;$%@@#OOOO@@+@+X=%%#@@#$$$%%$#OX=+O+@#OOO++@+++OO@+O+@@++Oo+O+O.:$%@@##@@#%$$%++O@@+OOO@@@+@+++OO@O+@#OX*$%$$#OX",
".XooooXXXXoOoXXo;#@@@#@XoXXXoooX-%$#$&#@#%##$@+ooooXoXoOOXXXXXXOXXoooXXXXXoOoXXo;#@@@#%$%##$%%+XXXoXooX.XoXXXXXooooXXXoo>$####OX",
":>>--=*X--===-=o>&###$+o-*=-=-&&=$%#@@##$%$@@#@o--=;-;-**=;-;-**:>>-=-&*-==-=-=;>&#####$#@####OX-;;=&*-X:;-&*-;o=--;-;-**#$$%$O@",
"@#%$$#OX&#$%#@OX:#@@@@Oo=$@###@$&&$$####$$%$%%+X-@$$%$$$$%####$$@#$%$##@@#%$#@@#%#@@@@@$##@###OX>&$###OX-$%$$%+X=@$$$%$#%$####%$",
"##@$$$+X*@@@@@+X=###@@OX:#@@#$%$%$#@#%##%$#@##+X-$@###@#$#$$$##$###$$$##@@@@@@######@@@#$#@@#$@o;$$@#%+X;%#@##+X-$@@$#@#$#$$#@#$",
"@##$#$@o-@@$#$+X*@@###+X=##@$%$$@@@###@@$$%###+o-####@@#$##$$%$#@###$$$%#@@#####@@@########@$%+X*@@##$O.=$%###+o-$###@##$##$$%$$",
"$$@@##OX&#%##@OX*@###@OX-@$#$$$#@@@@@#$%$$#$##+o:%$$@####$$$$###$#@#@###@#$##@@@@@###@###@$#%$+X*@@@#@@o;##$##+O:%$#@$##$$$%$###",
"$##%@##O=@@$$%@X*@#@@$+X*##%&$@@#%#$$%$$$$%%$$@X;$%$$$%$###%##$%$##%##&&##@%%$%$@@##@#$@###%%$OX=%$$$$+o-$%%#$@X;$%$$%$$###$##$$",
"+OO++@+.%#$@@@oX;#OO+++X-#$###@##$###$$##@#&%$+o=+O++OO+++++O++O+OO++@OOoO@OoOO++#+OO+O+++++O+OX-$$##$+X*@#&%$+o-+O++OO+++++O+O+",
"XXXXXXXX*%&$$#+XXXXoXXXX=#@@#######$%$#@#$##$#+ooooXXXXXXXXXoX.XXXXXXXXXXoOXXXXXXXXoXoXXoXXXXXXX=##$%$+X-#####+XooXXXXXXXXXXoXXX",
">;-=-***=&&&$#+X--**-====@#%%$$###%&&$##$###$$+X--;;;;-**-:*--*-,;=--&**->,,;-=--=**---X**-;:;-==#%*&%+X-###$$+=--;;;-=**;;*--*;",
"#%$%##@@$%$%$#+X=#@#$$%#######$$$###$%$%$$###$+X*###+$@@$$#$@+@#$%%$##@@$$$%#@#####@#$@X=$#####$$###$$@o-###$$$#@$$#@%@@$$#$@++#",
"@#####@$##@##@OX*$$$$$$$$$@@@@#$######$#####$%+X-$$%$@##$###@@@$@#####@###@##@@@@#$$#$+o;$@@@@#$######+X*###$%#@#%$%#@#$####@###",
"#@###$$#@##@##OX-$#$%$$$$&&##@##$@@#$@$$##@#$$+X;%%#@@#%#@@@#%$##@###$%#@##@###@$$#$%$+X;&%#@####@@#$@+o-##$$###$%$#@@#$#@@@#%$#",
"%$$@##@@####&&OX&$##$%#$$%#$########$%$#$$####+X=#@@@#@@#@@@###@$%#@##@@####&&#@@#@#%%+o-$#######$##%$+X-###@$$###@@@#@@#@@@###@",
"$%#@#####@@#$$+o;$%$@###$$$$$#@@$@@#$$$@$#@@#&@X&@##@@@@##@#@@@@%$#@#####@@##$$$%$%#@$OX-$%#$#@@#@@#$$+X-#@+#&&#@@##@@@@##@#@@@@",
"##%$&&@+O@++@+@X-@++O++OO#@oO++@%#@#$###$#@@#&@o&@#%########@@#@##%$&&$##%%#%$%##%$$@#+X=&%@@$%$%#@$##OX;#@@$&&$@@#$########@@#@",
"$$@@$%OXXoXooX.XXoooXXXXXXoX..XX-@@$$$#@@$$$$#Oo;#@@@@#$#@@%@###$$@@#%$##$$$%#@#$%%%##+X-$$#@@@##@@#%$+.*$%$$#@%%#@@@@#%#@@$@###",
"##@##$+X=*=-==-=*=---=-=::;;;=-X;###@$@@##$%#$+X-$@@@###%%#@#$%@@#@#$$$$#@########$$$#+X:$$%$###$$#@#$O.=#$$$##@$$@@@###%$#@#$%@",
"@@#$$#Oo=$$$#$$$%$$%$###%$#@##+X;##@#@#$$##$$@OX-##@@@##@@@+#%#@@@#$$##$@$$$##$$$$$$$#+X;%#@###%%##@@@Oo-##$$@@####@@@##@@@+#%#@",
"@$##$%+X=$%@@#$$##$#@@#####$#$+X&####@#$$@+###@X&@#$#@@#$@+@@#%#####$%$@#$%@@#$%##$##@OX=##$###@@##$$@+o;@+@##$#@@#%#@@$%@+@@#$$",
"@@##@@O.-$#@@%$#@$$#$$###%$$$$O.=&&#@@###@@#@@OX-##@@#$%%@@####$@@##@@@+#%#@#$$#@$$#$#+X=%%#$$@@#&%##@+X=@##@@@$###@@#$%%@@###$$",
"$@##%@oX*$$##$$$$@#@$%$$##$$%$+o:$##@$#$$$$#@@+o*@$&*$$$%%#@$##@#@##$#+@@#$##$$$$#@##&@X-#$%$$%$$$##@$OX;#$#@@$%@@$&*$$$$%#@$$#+",
"#$$#$#OX=#$%###$$$#$$%$$&%$$$@+X*####$###%%##$@o:$@#$%%$@@@$###$#$$#$###$##%#@#$$$@$$%OX>$##$###@##$#$+X-%%###%&%$###%%$@@@$##$$",
"######@X;$#@$$$###$#$$@@$&%$$#+o*@@@##++O+++O+@X=$#%%$#@#$####$#####$#%#$$#@$$+++++++@OX;&$%$#O@OOOO+O+X=O+@OO@+++O@@@OO+%###$##",
"%$##$%+X=#####$##@#&%@#%##@@@#@X;$$##$+ooXXXOoX.&##$###$$#$%%$@@$$##$$$#######@XXXXoo.Xo=#@@@#@XoooXXooooXXXoOXXXXXXXXXX-#$%%$@@"
};
