/* XPM */
static char *c7c049fe75cf40fdf57da19763bf982f[] = {
/* columns rows colors chars-per-pixel */
"64 64 7 1 ",
"  c #14131D",
". c #282828",
"X c #3E3C43",
"o c #5E5C66",
"O c #746B6A",
"+ c #837B77",
"@ c #8A8984",
/* pixels */
"OO                                                             O",
"OO                                                              ",
"  ++OO..oooooooooooooo..oooooooooooooo..oooooooooooooo..ooOOOO  ",
"  ++OO..oooooooooooooo..oooooooooooooo..oooooooooooooo..ooOOOO  ",
"  ++OO..ooOOOO++@@++OO..ooOO@@++@@++OO..ooOOOO++@@++OO..ooOOOO  ",
"  ++OO..ooOOOO++@@++OO..ooOO@@++@@++OO..ooOOOO++@@++OO..ooOOOO  ",
"  OO++..ooOO++++OO@@++..oo++OO++++@@++..ooOO++++OO@@++..ooOO++  ",
"  OO++..ooOO++++OO@@++..oo++OO++++@@++..ooOO++++OO@@++..ooOO++  ",
"  ++OO..oooo++OOOO++OO..oooo++OOOO++OO..oooo++OOOO++OO..oooo++  ",
"  ++OO..oooo++OOOO++OO..oooo++OOOO++OO..oooo++OOOO++OO..oooo++  ",
"  OOOO..oooooo++++OOOO..ooooooOOooOOOO..oooooo++++OOOO..oooooo  ",
"  OOOO..oooooo++++OOOO..ooooooOOooOOOO..oooooo++++OOOO..oooooo  ",
"  XX..............XX..........XX..XX..XX..........XX..........  ",
"  XX..............XX..........XX..XX..XX..........XX..........  ",
"  OOOO++@@++oo..ooOOOO++++@@OO..ooOOOO++@@++oo..ooOOOO++@@++oo  ",
"  OOOO++@@++oo..ooOOOO++++@@OO..ooOOOO++@@++oo..ooOOOO++@@++oo  ",
"  ooooOO++@@OO..ooooooOO++++OO..ooOOooOO++@@OO..ooooooOO++@@OO  ",
"  ooooOO++@@OO..ooooooOO++++OO..ooOOooOO++@@OO..ooooooOO++@@OO  ",
"  ....XX..............XX......XX..XX..XX..............XX......  ",
"  ....XX..............XX......XX..XX..XX..............XX......  ",
"  ++OO..ooOOOO++@@++OO..ooOO@@++@@++OO..ooOOOO++@@++OO..ooOOOO  ",
"  ++OO..ooOOOO++@@++OO..ooOO@@++@@++OO..ooOOOO++@@++OO..ooOOOO  ",
"  @@++..ooOO++++OO@@++..oo++OO++++@@++..ooOO++++OO@@++..ooOO++  ",
"  @@++..ooOO++++OO@@++..oo++OO++++@@++..ooOO++++OO@@++..ooOO++  ",
"  ++OO..oooo++OOOO++OO..ooooOOOO++@@++..oooo++OOOO++OO..oooo++  ",
"  ++OO..oooo++OOOO++OO..ooooOOOO++@@++..oooo++OOOO++OO..oooo++  ",
"  OOOO..ooooooOOooOOOO..ooooooooOOOOOO..ooooooOOooOOOO..oooooo  ",
"  OOOO..ooooooOOooOOOO..ooooooooOOOOOO..ooooooOOooOOOO..oooooo  ",
"  XX..XX......XX..XX..XX..........XX..........XX..XX..XX......  ",
"  XX..XX......XX..XX..XX..........XX..........XX..XX..XX......  ",
"  OOOO++++@@OO..ooOOOO++++OOoo..ooOOOO@@++@@OO..ooOOOO++++@@OO  ",
"  OOOO++++@@OO..ooOOOO++++OOoo..ooOOOO@@++@@OO..ooOOOO++++@@OO  ",
"  OOooOO++++OO..ooOOooOO++OOOO..ooooooOO++++OO..ooOOooOO++++OO  ",
"  OOooOO++++OO..ooOOooOO++OOOO..ooooooOO++++OO..ooOOooOO++++OO  ",
"  XX..XX......XX..XX..XX....XX................XX..XX..XX......  ",
"  XX..XX......XX..XX..XX....XX................XX..XX..XX......  ",
"  ++OO..ooOO@@++@@++OO..OOOOOO++OOOOOOXXooOO@@++@@++OO..ooOO@@  ",
"  ++OO..ooOO@@++@@++OO..OOOOOO++OOOOOOXXooOO@@++@@++OO..ooOO@@  ",
"  @@++..oo++OO++++@@++..ooOO++@@++++OO..oo++OO++++@@++..oo++OO  ",
"  @@++..oo++OO++++@@++..ooOO++@@++++OO..oo++OO++++@@++..oo++OO  ",
"  ++OO..oooo++OOOO++OO..oooo++OOOO++OO..oooo++OOOO++OO..oooo++  ",
"  ++OO..oooo++OOOO++OO..oooo++OOOO++OO..oooo++OOOO++OO..oooo++  ",
"  OOOO..ooooooOOooOOOO..oooooo++++OOOO..ooooooOOooOOOO..oooooo  ",
"  OOOO..ooooooOOooOOOO..oooooo++++OOOO..ooooooOOooOOOO..oooooo  ",
"  XX..XX......XX..XX..XX..........XX..........XX..XX..XX......  ",
"  XX..XX......XX..XX..XX..........XX..........XX..XX..XX......  ",
"  OOOO++++@@OO..ooOOOO++@@++oo..ooOOOO++++@@OO..ooOOOO++++@@OO  ",
"  OOOO++++@@OO..ooOOOO++@@++oo..ooOOOO++++@@OO..ooOOOO++++@@OO  ",
"  OOooOO++++OO..ooOOooOO++@@OO..ooooooOO++++OO..ooOOooOO++++OO  ",
"  OOooOO++++OO..ooOOooOO++@@OO..ooooooOO++++OO..ooOOooOO++++OO  ",
"  XX..XX......XX..XX..XX..............XX......XX..XX..XX......  ",
"  XX..XX......XX..XX..XX..............XX......XX..XX..XX......  ",
"  ++OO..ooOO@@++@@++OO..ooOOOO++@@++OO..ooOO@@++@@++OO..ooOO@@  ",
"  ++OO..ooOO@@++@@++OO..ooOOOO++@@++OO..ooOO@@++@@++OO..ooOO@@  ",
"  @@++..oo++OO++++@@++..ooOO++++OO@@++..oo++OO++++@@++..oo++OO  ",
"  @@++..oo++OO++++@@++..ooOO++++OO@@++..oo++OO++++@@++..oo++OO  ",
"  ++OO..oooo++OOOO++OO..oooo++OOOO++OO..oooo++OOOO++OO..oooo++  ",
"  ++OO..oooo++OOOO++OO..oooo++OOOO++OO..oooo++OOOO++OO..oooo++  ",
"  OOOO..OOooooOOooOOOO..ooOOoo++++OOOO..OOooooOOooOOOO..OOoooo  ",
"  OOOO..OOooooOOooOOOO..ooOOoo++++OOOO..OOooooOOooOOOO..OOoooo  ",
"  OOoo..ooooooooOOOOoo..ooooooooooOOoo..ooooooooOOOOoo..ooooOO  ",
"  OOoo..ooooooooOOOOoo..ooooooooooOOoo..ooooooooOOOOoo..ooooOO  ",
"                                                                ",
"O                                                              O"
};
