/* XPM */
static char *_508533462447[] = {
/* columns rows colors chars-per-pixel */
"128 128 35 1 ",
"  c #EFEFEF",
". c #E7E7E7",
"X c #DFDFDF",
"o c gray86",
"O c LightGray",
"+ c #CBCBCB",
"@ c gray78",
"# c gray75",
"$ c #B7B7B7",
"% c gray70",
"& c gray67",
"* c #A7A7A7",
"= c #9F9F9F",
"- c #979797",
"; c #939393",
": c #8B8B8B",
"> c #838383",
", c gray50",
"< c #777777",
"1 c #6F6F6F",
"2 c gray42",
"3 c gray39",
"4 c #5B5B5B",
"5 c gray34",
"6 c gray31",
"7 c #4B4B4B",
"8 c gray28",
"9 c #434343",
"0 c gray23",
"q c #373737",
"w c #2F2F2F",
"e c #272727",
"r c #232323",
"t c #1B1B1B",
"y c #131313",
/* pixels */
"================================================================================================================================",
"=########$####$###OOOO+@@@##%%$#%$#@#@##@+@@@@OO+@@@++#####@@#@OOOOoo######+O@$%%%####@+@@##$$$#$##$##+O+OO$%@o+@++@$%$$#++@###=",
"=#$$#$#######$$$$##@@####$%%%$$&**%$$$$$#######++#$####$%%$%$%%#++##$&$%*&$@#%&%%%%%$@###@$%$%&%%$%%%%$@+##%*#@@@@#@@%*&#@$&$$#=",
"=#$OOOOOO++O++++OOOooOoXoO+OOO++++@+OOOOOoooOOo.o++OOOOO++++oO+X .oO+oXoOoX.o@#oXX@@XooXXXXOOO+@@++OOOo..X+OOoo...XXoO##+O++O$#=",
"=#$O=====-==-=-===*&&&***=====-=--====*===***==*=======*====&*=*&&*==*==**&%&-==**==&******====-;-====*&%&==--*%%&&%&*=*=-==O$#=",
"=##O----=------;===-=========--;--;--========-======----====*===**--===*==**&=;-=*--==------;-=-;;:;-=**&&*=;-**&&****===---O##=",
"=#$O=-=---------============---------=*======-=========-==*=*=--==-===*=*=*&**---=--=-------;;---;;-===&&*==-=*&%&*****===-=O$#=",
"=##O=::qq4<,:;;:--=;===---;----;-===,7eeeeeeeeeeeewwwwwwwwwwwwwwwwwwwwwwwwwwwwwwwwwwwweeee5--===;:*=;===---;------===:3ew::-O##=",
"=##O=;:qt0<,::;;--====---;:--;;;-==;<tttrtrttrtrtrtrrrrrrtrtttrrtrrrrrrrrrrrrrtrrtrrrrrtttt:====--======--;:---;;----,8yw>:-O##=",
"=$#+;;:qtt2,::-;---------:>--;;;-=-;3trrreerrrrrtrrrreeeeeeerrrrereweeeeeererrreereerrererr2===*===-------;>;;;;;-==;,yyw>:;+#$=",
"=##+=;:qtt6,>;-------;;;->:::-;;==;>9rrrreewrerrererewwwwwrrereeewerewrrrrereeweererrerweer9--=*=-=-------;,;;;;;=--:4ttq::=+##=",
"=##O=;;qttt,::----=---;;;>:::;;;=;:<rrrewweweeeewewewwqwwwwwewwwwweeewewwewwweeeeeeeewwrerrr,*=====----;;;:>:>::-=-::ytyq:;=O##=",
"=##+--;qttt3::----==-=-;;<<<:;;;-::2rrrwewewweewwwqwqqwwwweqewwweqwweeewweweeweweeweeweweeer4*====-====--:><,>;;---:,tttq:;;+##=",
"=#$+=-;qtttt>;;--;;32<62:>:,-;--;::rrewweweewwwwqqqqqqqwwqwwwwewqwwweweewwqwwwwewwwwwewwewrrt:====;;;3<44>>>>>---;::3tttq;;=+$#=",
"=$$+---0tttt1----;,24151>,>2;:--::<ewwwqwwwwwwwq0800qwqqwqqwwqwwqwwqeewewwwwwwwweeewewwwwweer3====--,4243>>::1:;-;>:ttttq;;-+$$=",
"=#$+=;;0trtr7:;;=-12411,:>>5>>;:,>rwewqw00wqq0qq0090qqqqqqwqwqwq0qqqewqqqqwwqwwwwwewwwweeeree0:=====<431<>>>>3>;;>,,tttt0;;=+$#=",
"=#$O===9rtrtt1;;==1231<>>::3>;;>,,ewqqq009q0q0090990q009qqqwwqwqqqqwwwwqwwqqqqq0qwwwwwqqewrwee2-===-133<<>:>>4;;:,>ttttt9===O$#=",
"=##O===0trrtt3;;-=<8eeeere8<:==::eewwqq00000q0q99q0qq0q9099q0q0q0qqqqqwqwwqwqq0qqwqwqewwewwewe6;===->8eeeeee82==;>:ttttt0===O##=",
"=O#O*==0rrrrrr,:=-;,<<<<111,,--->reqww0q00qq9qq0q900q9q90000qq000qqqwwqwqwww0q9qq0wqeqwewqeqwee,:===;,<<<1211<;-;;tttrrr0==*O#O=",
"=O@o&-=0rrrerr2>---;---;;;;:,:-;>wewwq990qq090809q0w009089q090w00wqwwww0wwwq09990q0wwqqqwqqwwwe3:==-;---;;;;:,:--:ttrrrr0=-&o@O=",
"=O@o&==0treerrt<:===;;;;--;:,>>1ewwww009q9q99q980900q099q8909999qqq00wqqqqq00009q09qq0wq9q09qwq6<:-===;;;--:;>>,<3trteer0==&o@O=",
"=O#O&==0rrerrrttttrrttrrrrrrrerewww0qq8888q8999q80qq0909009000qq00wwqw0qq00q00900000q09008090qqwerrrrrrrrrrrrrtttrrrerer0==&O#O=",
"=+#o*==0terrrrrrrrrrrrrereereewewqq0qq890087008q99q90q908890090qw9q00q9q900000099q0q000q9009q9qqererwweeeeeerrrrtreeerre0==*o#+=",
"=@#X*==0rerrrrreereereeeweeewwwwqww0q087070797089q0990890909qqqq00w9999000wqq90900899909008800qwqqwqwwqqeewweereeereewer0==*X#@=",
"=@#o*==0rrerrrererweweewqwwewqq0q00q0090870709088q9090q90980q0qw90q009909q0q9q90009977989999899qq0qq0qqqwwqwewerrwrereee0==*o#@=",
"=@$O===0rrrreeeewwwwwwwqqqqwqq00qq008898009q8q9080000908900w99q9w9099q909999q09000989980898988909009q90qqqqqwwweeweweere0===O$@=",
"=#%+===0rrrrereewwwq00qqqqqwqw0q0q9099709009q9099970978099099q9q00q0q88090qq9990097869696776990889q909900w0qqwwrreweweer0===+%#=",
"=#%O===0rrrreeeeqwq099800q0q0qwq0w99989989099909997000980909q8q0800900899989899q9880788998770799869999qq0q000qwwwewrewee0===O%#=",
"=%%O==-0rrreewwwwq000q080qqwqqqqq899076989990099099789080800q8000807780000090q89987609088998qq9776880099w000qqqeereewwwe0-==O%%=",
"=%$O=--qrewwwwqqq00q0000q0w00qqw9q8977787877809077870090900q99896876690qq08908090989989709qq09996590990qq0ww0wwwewweweeeq--=O$%=",
"=$$+---qrrewwqqqqqwwq9090wwwq0090989899656879809877980009090898867768788q809090807696090q98000988799080qqq000qwqwrwewwweq---+$$=",
"=#&+=;-0ewwwqqqwwwqq909q0000w990899888866866897988077990009978696666767q9q09q0q88899887880090998969889q99w0qqqwwewwwwwwr0-;=+&#=",
"=%*+---qeeewwqq0wqq00qqqqq00q9q0q089969678778998qq08q99088868876978689700000880906866698680090989999889900q00qwwwewwweerq---+*%=",
"=$*+---qrewwwww0w0qq0900w0q08q08880676866688459qw0w0q090687676886966690q00q0980796666868878976887788789qq09qqqqqwwwewwerq---+*$=",
"=#%@=;-qrreewwwwqq0qqw0q0qq0080q0877966666858609wqwwq00898545459868699q8q809q79677996575688897876879088q009w0qwwweewwwerq-;=@%#=",
"=@$+=--0rerwewqwqwqq0q00000800899878778678556980wqww09q88987775886868099q8q8976976885866656556779777788000q000qwwwwwweer0--=+$@=",
"=#$O=--0trrewewqq009qqqww00077998787867686677980wq0qww0099q868689796879q98979096897677655755757796678090999q0000qwqqwewr0--=O$#=",
"=@$O===qrreeww00999900w00w097709688565576988698999099qqq0009089987666808997988898686776655677686780899990000qwqwq0wwweerq===O$@=",
"=#$O*=*0reeewqqqq99q0wwq09869987876886686668008898808880988998w988777890798979896696988674566568909908999qwqww0qwwqqwerr0*=*O$#=",
"=#$O===0rwewqwq0q090000qwq89998779597556887880007779706787788909098786870889967678680666886667788989q9999900qwq000wwwwre0===O$#=",
"=@#O===0ewewwwqqw90wqqqwq9787007006767778799000800877690008777979868568806878878696689076969789979099q9090900w9wq0qweerw0===O#@=",
"=+#o===0wwwwwwqw00q0wwqw9q0999709898689999q88908796898998808769979668878968987896596888087879898799qqq909009qqqqqwwwweee0===o#+=",
"=@#o*==qeeewwwwq0qqwqqw0q80088860698868707q909878868978988976966859675667966689697770788668099998089909q990qw9000qwwwwewq==*o#@=",
"=@#o*==0weewwqw0q000wqwq000070908799777999898008789600070087987656766889677999098687776766768598680908999900q00qqwwwweew0==*o#@=",
"=@#O*==0wewwwwwqwqqwq0wqq9807987999978q88070797999890777969998665867665898699880999789686587766587999999090q90wqwqwwewwe0==*O#@=",
"=@#O=--0ewwwqqqqqqqwwqwqq00880977668898899907709668090076990899756567565886968908889908888959788659978909qq9wwq0wwwqweww0--=O#@=",
"=O#o===0eweewwwwqwqqqq0000q079660998009998889879908997880786968669678868809q90088989898098988866766788990qwqqwqwqwweweee0===o#O=",
"=O+.*==0ewwwwqqwqwwqq009w98986979968000076897688689999888797966897079778987997q8979787899007998878099900q00wqqqwqwwewewr0==*.+O=",
"=++o===0wewwwww090qqq80q900009690089098q0985554466979000980986879690900908880088889970998898086786979700qqqqwq9q0eeeeeew0===o++=",
"=@#+===qewwwwq089909q09990888978000q809877967646460q098088076796668807908008907989786989977868579898799w0qw09990wweweeeeq===+#@=",
"=@$+===0eweqw09999909899009087998899089665686668869890q98986058766707989709007976699099687907765598988000qq990990qweeere0===+$@=",
"=@#O===0ewwwwq009009889800800099089865448966656578098q900997999665656898q080889989078878067887678576900q098099000wqwewwr0===O#@=",
"=+#O=-=0eewwwwwq00000889788878800788874655697896909qq80008876676775877007079769807979096099986966896789q99890q909qwwweer0=-=O#+=",
"=+#O=-=0eeeeeqwqqq909980799909989906587756878586790q90q9909699885646689890989796980807987697959899889890990098800wwweree0=-=O#+=",
"=##O=-=0eerwwwwqqwqq0087808899679800889668876898700090q986766968556888980696857766008078809998569988099980089q00qwqweeer0=-=O##=",
"=#$O*--0eeeweqqwqqq09898096978980q808899665767677080989880996789586988q89685565468089990790869990809999908qq099q0qwwweer0--*O$#=",
"=#%+===qewwwwwwqqqww9098979988q90080899899979967876690877806989587579998866664666690q0088808988669800q909900qq000qweereeq===+%#=",
"=#%+===0eweqqwwqqq0ww0q0989688080q9988870089796967999669999888568586658688665858869999888099966888609ww0qwwww000wqwweere0===+%#=",
"=#$+==*0ewwwwqwwqqqqq90q99909988088798997089069798869766689099688765567866977785690090000786878868809wwqwqwqwq990qwweeer0*==+$#=",
"=@%+===9wwewwwwwqw0wwwq99088080009098896087789886876768890998988866857557799678570w90007079999776660wqwwqwwww009qwwwewee9===+%@=",
"=@$o&**0eewwwwwwwwwwq0q0000q008999767789098007968879667599689870895787999788988878909899788967669988qwwqwqwqw0qw0qqwwwee0**&o$@=",
"=#%O*==0weewwwewwqqw909808980807889767770766768857799686699986866686888689890068900098808777896857090qww0wwqwwwwqqqqqwee0==*O%#=",
"=@%+==-0eewwwweqwwqq0q09qq99q0070675559978776599666089889889555678665676666766976798808078899867666000q9w0000eqw0qqqwwee0-==+%@=",
"=O#X*=-0weeewweqwwwq0990q0q989089879885566667898700q98886069586575684856587879996768097887677689799000qq9q9wqweqqqqqwwee0-=*X#O=",
"=O+ &*=0weewewwwqqwq009000990098898555588676686800099809907977969866548888766808857767667988559768800qq09qq0wwwqwwqwwwre0=*& +O=",
"=O+.&*=0eeeeewwwwwqq000909000090966875787766788879809866890070708696956658569687858799696888886887000q8qq9q9wwwqqwqqwerr0=*&.+O=",
"=O#o*--0eereweew0w00qqqqqq89900888969796686998889q99699606999q89695855669598998697769966888588878009q90990qw00wwqwwwwwer0--*o#O=",
"=o#O=-=9rerewww0w0q9089w0080889879696066996097q0986089669809079098886697658870866807988785869799899q800990qqw0wwwqwwwwrr9=-=O#o=",
"=o$+===0reeewwwqq08898000w900qq08996878886090079908989867988876988867486756009098687887958987970q899q99000qww0wwwqweewee0===+$o=",
"=#&o*==qreewewwq000008qw000q90098869686970q809099889079090069089696887855707887976998676986900qq00080988qqqq0qqwwwwqwwwwq==*o&#=",
"=#$X==*0erewwwq0q00000000qqq0q0097788888978809079099888089778698975867655599099776966986789q88979q98q00990qqq0wqqqwwqwwe0*==X$#=",
"=#%o=*=0rwqqwww0q90q90qqw99q90897885666570q890099609777000966688066779689879997868976998800088909989000900qq00qwqqqwwwwe0=*=o%#=",
"=#*O*=*qewwqwwqwq0qqq9wq09000q0890678566788q97976686567088970999969597779689099096668668780098998897900qqqqqwqwwqqwwwweeq*=*O*#=",
"=#&o*==0wewqq0qwqqq99qw9q098887788875876800908657457588008q808977998698899790990678776870908q89098090089qw090qqqwwwwweee0==*o&#=",
"=#$X&**0ewwqqwwwq0qq000w0899898688988888899887985474858089990778865776886787079786666698989908087856768qqq0wqqwqwwwwwere0**&X$#=",
"=+@.%*&qrwwwwqqww00000wq908877888970078888966658658566690098009887856999766867770897000989897979787757799wwwqqqqwwwwwweeq&*%.@+=",
"=O#o&&*0eeweqqwwwqwqqq0900907986850689666756577569666989q0q9q8768966488857868807067770080809986968586899qq0qqwwwwwwwewew0*&&o#O=",
"=@%@-=*0ewwqwww0qw0q0qq00779978997060068578655896569698q90978988896577555766997898977990986657598996708q0wwqwwwqwwwwewww0*=-@%@=",
"=$&#=;-qeewwqqqqqqqq08q0079799087786968674847868897590q9q887098898874667677568868999qq9077666679699998900w0wwqewqqwwqwwwq-;=#&$=",
"=%%o=--qewewwwwww0q0q9099q89q09897988667786556546666609008098688888878756665869789779077896657567768899w0w00wqqqqqwweweeq--=o%%=",
"=%%X*=-qreewwqwqww0q99098q99000997790968977987755566688090098996957556778676866809999897668767678789709qqwqwqqqqqwwwwwwwq-=*X%%=",
"=%%X**=qeewewwwqq0009900q99qqq09097899088867678587968607909089998698766668756998980807068999876876679090qwwqqqqwqwwwwweeq=**X%%=",
"=#%@=--qerrwwwwww000999909090q9099898097887887878587875009qwq8996676776678569760089988959899890898787990qqqqqwwqwwwwweeeq--=@%#=",
"=#%@=--qerweewq0q9qq99w0q9w00098898099800969595876766758989q0qq776986788859988097q008999869970898998909q90qwwwqqqwqwwweeq--=@%#=",
"=#$X&==qreeewww0q09000w909908q808987890708765656867666789789909907696965968989qq8987095687090779888978699q0qwqwqqwqweweeq==&X$#=",
"=#@o*=-qereewwqw008q90qqq0qq889809897789770898665778567689968977696668979778098779097706089898870q0898996000q00qwwwqwwweq-=*o@#=",
"=@#o*--qeeeeewqwqq9w00q0998q98q97000988899089575658568776668687006968886869080999878890698890790989766808998qqqwwqwwwweeq--*o#@=",
"=+#X*--qrerwwwwqq00wqwqq9qq00808080q7777880988698975767858669860888960776999q9996778667789079008000608990909q0qwqwwwweerq--*X#+=",
"=@#X*--qreeweww0qwqwqw0000090908808997090068675776996755765806989856766097090097876767500709788087780890q9wqwqwqwqqwweerq--*X#@=",
"=@@X*--qreeewwwqq0qw0qqq0079668880q0090999698988879886957767699088867909890q00976565667998q8990q89898809qq00wwwwqqwwwwrrq--*X@@=",
"=#$X*--qrrrewwwwq00q0q09908685556899008909976599878798888667889780868070000997767765548808q09q8q8907008099wwqwqqwqqqwweeq--*X$#=",
"=#%O=--qtrweewqq0qqw000007878789809q09088777768999886566698000090799798q889767687866667709q9q9q98989889709q9wwqqwwqwweeeq--=O%#=",
"=$$O=;;qeerwwwqw00q9009008866677890q0008077796765787355678998q799009q980666447976896698999qq0q9898099799989q0wqqqwwwwwerq;;=O$$=",
"=$%O=-;qreeeeqww00009709080998970009q009887797568654345869888980889698987665755878877098090090q80900778989999q0wwewewweeq;-=O%$=",
"=$&+==-qeewwwwww00998897990987798qq0999998807976757436486986808098680079666885788686770000q99807897807899999qqqqwwwwweweq-==+&$=",
"=#%@---qeeewwwww0qq990878800q809q9988000988897886657476796877696080089890876968799876608000q808900997899088999q0wwwweweeq---@%#=",
"=$%@;;-qwwwwewwwwq0998889889099q99q09q887797796596566887866568089988980087088789789999009009q009708809888000q900wwwwreerq-;;@%$=",
"=#$+-;;qeeeeewqq0qq99087909qqq9q9q0809qq9999798686998889887666978989888988q8089887908099q009090908090900989890qwwwewwereq;;-+$#=",
"=#%+=:;qeewrwwwwq00q090879900q99q9989q08097866967666909069969699097708090809q008889980q8000www0q08709889008900qwwweeeereq;:=+%#=",
"=$%O=;-qeerwwwwqwq0000999qw0w9qqq99980q809099799886778987698769699080009q908q88800870800909q90w90090089089900qwqwwwweeeeq-;=O%$=",
"=#%O=-=qeerreewwwq0w0q9q0qq0000qq9988qq989098068966888q007888786080990q90080898099997789899000q909909909q0q0qwwewrrrrereq=-=O%#=",
"=#%O===qerreewwwwwqq00qq0q0qw0q9099090qq8989q07879088q99008897988990008990890999990980989999909008000q00qq9wqqwewweeertrq===O%#=",
"=+$o**=qeerrrweewwqqqw00w0q0qq990qq9w99099999988879988q0979690790q9q90q0809q90qq999090989008000900800wqwqw0qwwweereerrrrq=**o$+=",
"=O@.&*&0rreeeewewqwwqwwqwqw00000898q0qq00q00q80898000q90q8909q09qqq0q0q99998qqq0q9q9809980899999980q0wq0qwqwwwwwweeerert0&*&.@O=",
"=++.%&&0eerweeweewwwweewq000q0879900009qq90q9008qq99809090090q0w00q00qqq9999w99009q0090799890800809qqwwqwqwqwwqwwrrrrrtt0&&%.++=",
"=O#X&&*qrereweewweewwwwwwqw000990790wqw0wqq0w00090qq089908qq00wq0w00q9q0q900w9qq09q0q9890089888890qqwwwwwwwewqwwerrrrrrtq*&&X#O=",
"=O#+=*=qreeewweewerwewwwqwqqqw09900ww0qqwqwq900090q0q80qqqq9qwqq0000q0wq9q900q00qqw0q008080808qq0qqqwwwwwewwwwqwerrrtrrrq=*=+#O=",
"=$%O===qrreewe3<,,>;;;-;;;-==-:<600wwqwqqqq00q00qqw00q0q9q00wqqw0qww9q0q0qwqqqqq9wq00000qq0qq00q1,>>:;;--:;;===:<ererrttq===O%$=",
"=%*O-;-qrreewe:--:,:;;;;---;;==:3qwqwqqqwqw0q000qqw0099qq0q0wwqqqq00990900qqq0qqwq00009q00wqwqw>;-:,:;;;;;==;;-->2rrrrrrq-;-O*%=",
"=@#o--=qrreeew;;-;,:;;;========:,wweewwwww0q0q0wwqqw00qq0wqqwwqwwqq00999q0wqwqwqqqq0q0qqq0wwwwe>---,>::;-====--=:,rrrtttq=--o#@=",
"=o@o***0rrrrr:>;==>==;;=-===-===;6wewwwwqwqqw0qwwqw0w0wwwwqwww0wq0999q090wqweqwwweqqqww00wqqwwe::==::==:--===;=--;3rrrrr0***o@o=",
"=+@.%*&0rtrrr>,:-;<32<62:>::-===-2ewwwwwwwqwqqqqqqq0wqwwweqwwq0w0q0wq90qqwwqwwwwwwqqwq9wqq0www,,>;;><3<44>>>>:==;;1rrrtt0&*%.@+=",
"=@@.%&%0rrrr<,>;;>224151>,>,-====:0wewwewwwqwqwwww0qqqwwwwqqqq00qwqw00qqqewwewwwwqwwwqqqqq0wew>>:;>>44243>>::,-=-;:7rttt0%&%.@@=",
"=+@.&&&0trtt:>;-;:22411,:>><--====3eweeewwewwwwq0wwqwqwqwww0qqq0qqwqqwqwweewwewwewwwwqw0qwwww<::--::3331<>>>><;=---1tttt0&&&.@+=",
"=+#X&**0ttt3;:;=--2231<>>::<-;====:wwwwwwewwwwqqwqwqqqwqwqqqqww0qwwwqqwwwereewwewwwwwwwwqqwwe::;--;;333<<>:>><;;--;>tttt0**&X#+=",
"=@@X%**0ttt,:;--;;2qtrreee8>=-====*4wwwqwwwewwwwwqwwwqqwqwwwwwwwqwwwq0wqwereeewwwwwwwwwwwwww2::--;;:3qrrreee9,--=-::3ttt0**%X@@=",
"=$@o&**qttt>:-=-::,1321111,;-======,ewwwwqqwewwwwwwwewewwwwwewwwwwwewwqqewwewweewwwwwwwwwwew<:;=-;;:>1311111,;----::,tttq**&o@$=",
"=%%O***qtt4:--=;;;;;,;;------=-=*==-9wewwweereeeewewewrwwweewwwwewwewwqqwewwwweeeweeweeeeee9>;-=-;;;;::-;;;-------;>,6ttq***O%%=",
"=$*#===qtt,;==-;;;;;>;-------===*===2rwewwwreeeeewweeewererrrrwewewewqqweewewweweeeeweeewee3;-=-;;;;;>:---------;-;>,2tyq===#*$=",
"=$&#*=-wy8,;---;;---:;;-======--*===:reewerrererererrrrreereeeeeeeerewewereewwrerereeeeeeer<;-=-;;;;-:;---====--:;;:,10yq--*#&$=",
"=##+=-;wq3:===------;;;-===;==:;===--5qqqqq000000q000000qq09000000090q00q00qqqqqqqqqqqqqww7,-==-;;---;---===;==-:;;:,<4ww--=+##=",
"=+@O------------============---------=*======-=========-==*=*=--==-===*=*=*&**---=--=-------;;---;;-===&&*==-=*&%&*****==---O@+=",
"=+$+=---=------;===-=========--;--;--========-======----====*===**--===*==**&=;-=*--==------;-=-;;:;-=**&&*=;-**&&****===--=+$+=",
"=@&+=====-==-=-===*&&&***=====-=--====*===***==*=======*====&*=*&&*==*==**&%&-==**==&******====-;-====*&%&==--*%%&&%&*=*=-==+&@=",
"=#$OOOOOO++O++++OOOooOoXoO+OOO++++@+OOOOOoooOOo.o++OOOOO++++oO+X .oO+oXoOoX.o@#oXX@@XooXXXXOOO+@@++OOOo..X+OOoo...XXoO##+O++O$#=",
"=#$$#$#######$$$$##@@####$%%%$$&**%$$$$$#######++#$####$%%$%$%%#++##$&$%*&$@#%&%%%%%$@###@$%$%&%%$%%%%$@+##%*#@@@@#@@%*&#@$&$$#=",
"=@#######$####$###OOOO+@@@##%%$#%$#@#@##@+@@@@OO+@@@++#####@@#@OOOOoo######+O@$%%%####@+@@##$$$#$##$##+O+OO$%@o+@++@$%$$#++@##@=",
"================================================================================================================================"
};
