/* XPM */
static char *_508533333871[] = {
/* columns rows colors chars-per-pixel */
"128 128 39 1 ",
"  c #EFEFEF",
". c #E7E7E7",
"X c #DFDFDF",
"o c gray86",
"O c LightGray",
"+ c #CBCBCB",
"@ c gray78",
"# c gray75",
"$ c #B7B7B7",
"% c gray70",
"& c gray67",
"* c #A7A7A7",
"= c #9F9F9F",
"- c #979797",
"; c #939393",
": c #8B8B8B",
"> c #838383",
", c gray50",
"< c #777777",
"1 c #6F6F6F",
"2 c gray42",
"3 c gray39",
"4 c #5B5B5B",
"5 c gray34",
"6 c gray31",
"7 c #4B4B4B",
"8 c gray28",
"9 c #434343",
"0 c gray23",
"q c #373737",
"w c #2F2F2F",
"e c #272727",
"r c #232323",
"t c #1B1B1B",
"y c #131313",
"u c #474F33",
"i c #3F472B",
"p c #373F27",
"a c #0B0B0B",
/* pixels */
"================================================================================================================================",
"=########$####$###OOOO+@@@##%%$#%$#@#@##@+@@@@OO+@@@++#####@@#@OOOOoo######+O@$%%%####@+@@##$$$#$##$##+O+OO$%@o+@++@$%$$#++@###=",
"=#$$#$#######$$$$##@@####$%%%$$&**%$$$$$#######++#$####$%%$%$%%#++##$&$%*&$@#%&%%%%%$@###@$%$%&%%$%%%%$@+##%*#@@@@#@@%*&#@$&$$#=",
"=#$OOOOOO++O++++OOOooOoXoO+OOO++++@+OOOOOoooOOo.o++OOOOO++++oO+X .oO+oXoOoX.o@#oXX@@XooXXXXOOO+@@++OOOo..X+OOoo...XXoO##+O++O$#=",
"=#$O=====-==-=-===*&&&***=====-=--====*===***==*=======*====&*=*&&*==*==**&%&-==**==&******====-;-====*&%&==--*%%&&%&*=*=-==O$#=",
"=##O----=------;===-=========--;--;--========-======----====*===**--===*==**&=;-=*--==------;-=-;;:;-=**&&*=;-**&&****===---O##=",
"=#$O=-=---------============---------=*======-=========-==*=*=--==-===*=*=*&**---=--=-------;;---;;-===&&*==-=*&%&*****===-=O$#=",
"=##O=::qq4<,:;;:--=;===---;----;-===,7eeeeeeeeeeeewwwwwwwwwwwwwwwwwwwwwwwwwwwwwwwwwwwweeee5--===;:*=;===---;------===:3ew::-O##=",
"=##O=;:qy01,::;:--====---;:--;;;-==;<yyyyyyyyyyyyyyyyytyyyyyyyyyyyytyyyyyyyyyyyyyyyyyyyyyyy:====--======--;:---;;----,8yw>:-O##=",
"=$#+;;:qyy2,::-;---------:>--;;;-=-;3ttttttyyyyyyyyyytrrrtttttttttrrrtrrrrytyyytttttyyttttt2===*===-------;>;;;;;-==;,yaw>:;+#$=",
"=##+=;:qyy7,>;-------;;;->:::-;;==;>9ttttttttttyttttrereettyttttttttrrrttterrtttttttytttttt9--=*=-=-------;,;;;;;=--:4yyq::=+##=",
"=##O=;;qyyy,::----=---;;;>:::;;;=;:<ttttttttttttettttterrrrrrrrrttteterttteeertttttttttttttt,*=====----;;;:>:>::-=-::yyaq:;=O##=",
"=##+--;qyyy3::----==-=-;;<<<:;;;-::2ttttttttrettttrrrrrrrtterrrterrwertttttwrrtttewttttttttt4*====-====--:><,>;;---:,yyyq:;;+##=",
"=#$+=-;qyyyy>;;--;;32<62:>:,-;--;::ttttrttrreerreeeerrrrqerewweeqqewwwttttw0rttttteewrrtttttt:====;;;3<44>>>>>---;::3yaaq;;=+$#=",
"=$$+---0yyyy2----;,24151>,>2;:--::<tttrrrtwrrrrrewewwwwqwwrwwwwwwwqqwwwtt00qttttttteeewwrtttt3====--,4243>>::1:;-;>:yyyyq;;-+$$=",
"=#$+=;;0yyyy7:;;=-12411,:>>5>>;:,>tttrwqeerreeeeeq70qqwweeqwwwewqwwweeqeqqqqweertrtrrrrreettt0:=====<431<>>>>3>;;>,,yyyy0;;=+$#=",
"=#$O===9yyyyy1;;==1231<>>::3>;;>,,rrwww0wweew09wwq0qewwwwwwwwweqqqqweweqwwww0000etttrwwererwrt2-===-133<<>:>>4;;:,>ttyyy9===O$#=",
"=##O===0yyyyy4;;-=<8eeeere8<:==::rretrwwwww899qqqwwwwww0000qqwqqqqqqqwqwwewwwwqqqqwtrrrrrwweee6;===->8eeeeee82==;>:ttyyy0===O##=",
"=O#O*==0yyyttt,:=-;,<<<<111,,--->rteeree000q0wwwwww0wweqwqq9qq009000qqqwqwwwqwqwwqw9wrrteqeeeee,:===;,<<<1211<;-;;yyyyyy0==*O#O=",
"=O@o&-=0yytttt2>---;---;;;;:,:-;>rttre0090wwqq000ewwwq8078997809908099970qqqqq00qwweqweeeeerewe3:==-;---;;;;:,:--:yyyyyy0=-&o@O=",
"=O@o&==0yyttyty<:===;;;;--;:,>>1trrre99900e00wwwwqqqw008077877779799909909999qwwwqqwewrrqewwwww6<:-===;;;--:;>>,<3yyytty0==&o@O=",
"=O#O&==0yytyytyyyyttttrttttteerrrrw0qq900900qwweweeewwww0000wwwwwqwwqw90qwwwww00wweqqqwqwwq0weewrrrrttttteeeertyyyyyttty0==&O#O=",
"=+#o*==0yyyyyyyttttteetttttweeetrw00qw00900qe07qqweeeeee00wwewwwwww0008wweewwwq07weeewqqq990eweeerrwwrrtwwwwrtttyttttttt0==*o#+=",
"=@#X*==0yyyyyyyttttttertrwwwerrrw0w0ww97qqqqw9999q977745634444454453334445qq00qq0wwwwww0qqq98qew0wwqqweeewwrttttttytttty0==*X#@=",
"=@#o*==0yyyyyyttttttrttrqwrrrreww9qe000q00wqewewww0087754334444534444434567ewrweeeew00ww00qq8899qqq000qrrrrrttttttyttttt0==*o#@=",
"=@$O===0yyyyttttttttrrrw990rrw99eeeq8qq0wwweweweweeewqq8344633535333344690wweewwweeqqqqwww800979q00qq860eeeettttttttyyyy0===O$@=",
"=#%+===0yyyyyyyyrrrrwwe9990rrq80we0wwwqwqwwwwww9009ewqqee4443535444444wwweeewwwwewqw0q0w0qq99qq987qww6660reeetttttttttty0===+%#=",
"=#%O===0yyyyttttrrreww96807ew90e000q0wwqqqw0qqq009687879ee44434434434ew0755999qeeqqwqqqqqq0qe0ww859ww7884weeeetttttttttt0===O%#=",
"=%%O==-0yyyttrrrreeeee68q90eq0wwq0q0wq0qqqq8qw00qqq965536w84534443327q744490wwqwwwq9wwwqqwwwee999559w66664eerrrttttttttt0-==O%%=",
"=%$O=--qteetttrrreerw7qee0089wwq0w9q0qq00w09qq997709086538e5333323210845778qw800wwwwwww0wweeeww877777775079rerttttttrwwrq--=O$%=",
"=$$+---qtte0qqqerrrr94eweq0qeq0qwqqq9ww680qqwwe08557777634q823332226q2339670079wwqqw0ewwwwqeeewq790786749e59eerwwwqwwwwrq---+$$=",
"=#&+=;-0ttewww00wrr06890889qw9qw0qq09qq00w00ww0wqqq7446554402313222822265780wwewwwwwwwqqqwwwwwwwq69969q63r05wrq700qwewty0-;=+&#=",
"=%*+---qyttrrrqqrr079999900qqqqqew0qq600qqqqqww0qeeqw99623367332325633248qeeqqewwqqq00wq0qwwwwwqw08085qw9wr65rr99wrtttttq---+*%=",
"=$*+---qytttrrretq00999800e00wwqqqw9099000ww99wwwqeww00q732262331333138wwewww0wqw0000q0qqqqwq0qq000797509ew84qeerrrttttyq---+*$=",
"=#%@=;-qyyyytttrrw790q079qqqw0wwwq00q96000w0q0wweweew967q0<<3113336138w0q70we9qqqqww00q99qqqqqq00q000967qeww58rrttttttttq-;=@%#=",
"=@$+=--0ytttttrrrw9wee09qq00wwqwwq000990qw000wqweqwww995896234133351200007wq000wqqqq0wqq9000000qw0088966wee855wttrrtttty0--=+$@=",
"=#$O=--0yyyyrtrrr89wee7qe9ww00wwq0000700wqqqqqqqww00qw086893331334614770999900q0wwq0qqq00q99090qw09999077ww7568errrrrtty0--=O$#=",
"=@$O===qyyytrree98wwq9qq9www00ww0qq8089qqwww0w9999q0700777976333347447788889999wwqq0qqqq990qq0q0qqw009086qq7788weertttttq===O$@=",
"=#$O*=*0ytttterr9q0ew0ww9w00qqq0qq0qqqqqqqqqew999569685667695553349948896678599q00w0qqqqq99q090wwwwww08067qwq970rrrrrtyy0*=*O$#=",
"=#$O===0yttrrrrer00e09wqwwqqqwqqqw9wq00000qqqqqq66466944777845444580769666877590000qwqqqqqq00qqqqqwwwq99966wew99qerrrryy0===O$#=",
"=@#O===0ttttttewrwer9qwweq900ww0ew0q0qq889qwwwq8996666788978443234696996967758909w00wwwq0w0w0qww0wwwww00085qwr080erttttt0===O#@=",
"=+#o===0rrrttrqwqerqqwwwwwwwqqqwwqww0wq90qw880wqqq6666797799433325686098666678007699wwwwqqqqwwwwqwwreeq0007qe8799rrrrerr0===o#+=",
"=@#o*==qrttttwwwqerqqwwww9wwqqq0w0www006q9w00966569975776699552233096665675885448800eqqqq0wwwwwwwewwwwww907qrq9w80rrrerrq==*o#@=",
"=@#o*==0etttrw0qeee7wwwewwqwqewwqqwwqq90qqqq88865337000778706422<389577757083399990qqqqq00q0w0ww0wwwwqww999qeqwr00trrrww0==*o#@=",
"=@#O*==0ttttt0werrw0qqrreqweqwwqwwwwqqq00eqeqw995534w077758q6411158056689w733580qwwqww0q00wqq000wqwwwwwwq9q960ww00rttttt0==*O#@=",
"=@#O=--0ttttr0reerq0qqreeeeqqewqqqqqqw8q9qweqqew07666ww0679w5432<3806469q92349wwwwwwww00qqw0wqqq09wwqqwwwww8qrrq00wrtttt0--=O#@=",
"=O#o===0ttttrqtwrt0qweeweeewqw00wwwwee006qqqwwqwww866460e090623113uq9q9747669eewwwwwww8qwwwqqqqqq90qqqwwwweq9rr000qttttt0===o#O=",
"=O+.*==0yttttqw0qwwwwwwwrwwwq0w0ww0qwwww75ww00wwqqw9663349wq622332qqq4235646wqeqw0qqq96wwwwqwwqqqqwwwwwwewwe0qew000ttttt0==*.+O=",
"=++o===0ttttteeq00qwwweewwwwww0wwewwwwww0770096790wqq654435633323155344367qqee000qww780wwwwwwqqqqqwqwqeweeqqq9900tqttttt0===o++=",
"=@#+===qttrtrqw89qeqwewwwwqqqwqwwwweweew7783909970eeew8533422231223342349eeqww9iwwq540wwwqqq0q0qwwwqqwweweqqq779wtttttttq===+#@=",
"=@$+===0tttrr9w009wewwwweewwwqwwwwwweww00567350qq9qqweew643241322124237wqeww07qqq447qqw0qqqeqqq00www90ewweqqw7770errtttt0===+$@=",
"=@#O===0ytttw0eeqqw0qqqqwwqeeewwwqww0099ww55631400wq9eweeq72333121115wwwew0w80w033990qqqe0qqqqqqw0q00weeww0qq090erretttt0===O#@=",
"=+#O=-=0ttttqrrre9wwwwqw00qwqqqe07wqqq900007507140qqq80wwww04322224wqqew688qqq934699www0ewwww6900ww0qqwewwqqw00wwrtrryyy0=-=O#+=",
"=+#O=-=0ttteeetreqqqqwqw0qwweee880e00qqq9qqq64834wwqqqq79wwqwq33109000758p80wq92990weqwqqqwqw780wwwwwwwwwwqqq99eertttttt0=-=O#+=",
"=##O=-=0ettwwtrrqwwwweqqqeqwww859weewww00wwqq6675ee000qq64600w0000005578q999q96468eeqeqqqewwww750wwwwwwwwww0000errrrtttt0=-=O##=",
"=#$O*--0yttterrrqqewwqwwwwqwqq99ww8ewwww000qqq554ewq9438906660ww0q545804468790338wwwwwweqwww7qqq8qewwwwww0www09eeerettty0--*O$#=",
"=#%+===qttttwrtrqeeewwwww0wwq70qw88ewwwwwwwqwwq64900064766q56586753786664579q839qqwerewwwwww05q057weerwewwwww00eqqtetyttq===+%#=",
"=#%+===0tttrqrrrqwweewwwwqw088qw06wwwwwqwwwwqw0w55ww850wi446743344951100966q064qqqwwwwwwwwwww16q966ewtrerrrww00errwetttt0===+%#=",
"=#$+==*0tttteertqwwwewqeqww069qq6qqqwwwwqwwwwqwqw4qq950008345955672117qq039qq4w00wweweeeeqqqq939997wwrrrrrrew08weerwttty0*==+$#=",
"=@%+===9tttrrrttqeweeewwwe08q9e08wewwww0eqqqqwww066996wwwwi3398583239q00q5ww45q0qerwwweqeqwwww249860rrtrrrrew99wrrrqtttt9===+%@=",
"=@$o&**0ttttttrteweeeeeeee900ww9qwqqqqqqewwwwqw0w03558q0ww0736777416wqwww99540wwqwwwwwwwqqww0q410q780rrrrrrww9qreeqqtttt0**&o$@=",
"=#%O*==0tttrrrtteqwewewwe6779004wwwqqqq9eq00qqqq0q0536w09wwq24857339wwwqq7350w0wweeewwweqqqqqw034099qetrerreewttrqqqrrtt0==*O%#=",
"=@%+==-0tttrrteweeeeeeeew8780w63e0q000wwqqq000ww000e57qq9wwq<45575200000034qqqwqqqwwweqeqqqwww0230889qeeteeeqrrte0qwtttt0-==+%@=",
"=O#X*=-0tttrttwqwwrwwwwe99880055wwqwww9000000qww0eeewwww6e0q1663722w907q00qqqwwwqqqqewqwwqqqqqq32ww999weeewwwwtrw00errtt0-=*X#O=",
"=O+ &*=0tttryrewwweqeew98966qq37www0999wqqq0009qewwwwwww9eqw2694i410069wwwqqqwwwq9qqqqqqqwww00w31899900wwreqwwwwwwwtttrr0=*& +O=",
"=O+.&*=0tttttteeeqweeew608880939wqqqq09qqq900099qwwe9wq89www38688340w6700w5qw0qqq9wqww0wqwwwww0336q80080rweqqqwwwewrrtrr0=*&.+O=",
"=O#o*--0ttyywreeqqqeee9900679846www0wq060q0qq9990qww69w8q9ww5966663q9680w59qwwqqqqqqqwq98qq9www239q509099err09trrwwrrtrr0--*o#O=",
"=o#O=-=9yyyteweqrwwwwq8007688633qwqw0w03qw0ww9qq890w960800ew6566055q979093qwqqq90qwqwwq3q9w0wqw3390860997wrrq9rrrqqrrtyy9=-=O#o=",
"=o$+===0yytttwwrrewww08089569054www0wqq85qeqqw00998ww60890ww665685509590730ee0www0w0ww450wwwqwq4599379900qrre9etqqwttttt0===+$o=",
"=#&o*==qyyyttwweeeeee99q86556043qq0wqqqw3qeqwqq0q86ww60w9ww09966666w888947wq990w00www929ww0weee44q936688qqereqqwqwerttttq==*o&#=",
"=#$X==*0tytttrwereeeq00888646044wqqwwwww84qqqqq8008ww88w70qq0675846q698036wwqqq000wqq550qqweqqw23w7378999qrrreewwqttrrrt0*==X$#=",
"=#%o=*=0ytrrrrreeeeew89095445933qqw00009q60qwww0089qq05w00000765858q790w40qw0q000qwq84qqqeeewww4306347890qrreeereqrrtttt0=*=o%#=",
"=#*O*=*qtttrrrrrrerre60064547943ww0qq000qq6ww0q99789006w999qw96695q996q04qqw9qqqw000660wqwwwwww33972366qweerrrrtrrttttttq*=*O*#=",
"=#&o*==0ttrrrer0ww99qq9777334722wqqq0wqqqew0w09696670w50w70ww88556qq59q74wqqqqqw00q570wqeweqrww4496336470rq80eqqrrrttttt0==*o&#=",
"=#$X&**0tttrrrrqwwqqeq7074434832qqwwwwwwwwwww0qq7685q060w88ww956668q66q34qw7q9q0q00900wwwwwweww2393133680rwqeeqqerrtttyy0**&X$#=",
"=+@.%*&qytttrwwweeq9ww9966333633qwqeeqqwwww008897895q066e990wq7566q960q36qq99000w0wqwwewwwwwqw73403313469rwwrr0weeerttttq&*%.@+=",
"=O#o&&*0ttrtrwwreee80w856633384290wqqwqqqq00099790760w84eqq0w054899750936qq690w0w9qqqwwwewwwww4469231355qr00et0wttertttt0*&&o#O=",
"=@%@-=*0ttrrreewqwq99eq6643337639qeqee0w0qq0099099708w958096ww65799470419q8600890qwqqwwwwqqq9q2399312446qr99rr9etrettttt0*=-@%@=",
"=$&#=;-qttttrwee00w08qe6644239036qqqw0w0q9q8qq999q97qee35888wq65899557120q777988wwwweeweqq00002397333345ew6wtqqteeerrtttq-;=#&$=",
"=%%o=--qtttttwwewww98qe0974348058qwww000qq00000978888ww44880006579u898210066860qqw0qwwqqqw000q1106133438ew70te0weerrtrttq--=o%%=",
"=%%X*=-qyttttrrrrre957e0ww5346w66qqwew0qw0qwwqq006666ww449990w8487966423qq7788qqeqwww9wqq0wqqq13q4333449ew69eeewerrtttttq-=*X%%=",
"=%%X**=qytttttterw9944w0956859w64wqwwwwwww6qqqq9wqq68qe438899w95790883240w760ww9wwe0wqe0qwwww0250322355ww779qrrrrrrrtrttq=**X%%=",
"=#%@=--qtyytttrrr000530w634669w04wwwwewqqqqq7qqq89wqqq084400qqi469066226qq6qw96ee08wwww0wwwww9490333235w057qwwtrrtrrrrttq--=@%#=",
"=#%@=--qttttttewqqq0630e745445wq50wwwwweew0w097wq8880q943389qeq470083235w0w969ew7qeeqwwww0wwq7308333348w448wwewerrrrrtetq--=@%#=",
"=#$X&==qttttttwqww88745w933435qw48wqqwwqwqqq000690q6995332778w04p00823118969ww00wwwqew00qqwww22q733322973570wrrqqtrrttttq==&X$#=",
"=#@o*=-qtyttttwwqw99644qe55533ww66qwqqqwqqwwww00055w904423488w949w8612346qq088wqqwewqqw0wwwww330844335042470wew0wrrrrrryq-=*o@#=",
"=@#o*--qttttttwrrr099557q73533qw58eeeqqqwwwww0q900q00747211i6w0qe0i2333659wwqwwwwwqwwww0qwwww26w5242267436660wwwqrrrrtttq--*o#@=",
"=+#X*--qytyttrrwrw0099447054438q95eeqqqqqqewww0wwwq90346432269990843145534qwewwwqqqq00q0wwwqw49954424833457699qqqrrrrttyq--*X#+=",
"=@#X*--qytttttt0rrww96444063436q96qwwqewww0qqq0qqqww0323621342333312226643ewwwwqwqqq009eeqew030032236533448800qqrrrttttyq--*X#@=",
"=@@X*--qyytttttwqerw77654663115qq5qeeeewww0wwwwqqqwww83373122334333124833weeeeeq0008880wwwew93w0333463435668qqqqrrrrrryyq--*X@@=",
"=#$X*--qyyttttttqqqq0w8334624130049weewweww099wwwqqqww946222333233323665wwwwwqqqq06559qwewre56qq3355643444qw009errreetttq--*X$#=",
"=#%O=--qyyrrtrrr009rw0554236324qq48rewewwqqqq90qwwwwq908333444433333234eqwwq0qq8455000qqewew64e8335733339008wq7rrrqwwtttq--=O%#=",
"=$$O=;;qyyywwrrr07qq744543333330q48eeeeweqqqw0055qqq8990qww06755767qewweq009994249wq0wwwwwrr46w833853334588ee69rrrq0ttttq;;=O$$=",
"=$%O=-;qyttwwerrw77ww54453447440w56weeewwwqqwq908445699qqwwwwwwwwwwqwwwwqq634<20qqwqqwwweeee38e646942264446w95wrrw00tttwq;-=O%$=",
"=$&+==-qryteqqrre858065345434639w77ewwwwwwwwqwqqq06<<3379qqqqewwwwqqee07211457qqw0w0qqeeeeew38e426433255440956eeeqqwrtewq-==+&$=",
"=#%@---qqttt00qteq64qe6534444448r84wweeeeqqqw0qqq090451231222244435433334340wqqqq9wqqqewwwew3qq3683335547qq839re0q0tttweq---@%#=",
"=$%@;;-qwwtte99trr83500433534349w96wwrqqqqwqqw9700000w94322123333333334480eqw88888wwwweewwe75ww5543344567we66wee00etteetq-;;@%$=",
"=#$+-;;qw0ttt999eew4377345455549ww50eweewwwwqw998588wwwwq7321132233338qwwwe653677qwwwewwree54qq653444399wq630ee999tttqrrq;;-+$#=",
"=#%+=:;qwwqyte97wee0435424555538e049wrewwwqqqqq86654560e9ww951334460eww0845345qqwwwwweewwww85e094335335qw846wew99tttwwrtq;:=+%#=",
"=$%O=;-qwqqettw69eew644459947357e048weewewewwqwww95433863388q9323ww086435354448qwwwqeqwwwww63wr44444437e045eee88wttrwwetq-;=O%$=",
"=#%O=-=qqwqwttt070er04457qq55544e057weewwwwwwe8wwqq746qw42335qq1ww633456663445qew0qwqqwwwww54ww34344459074wer99wttywwerrq=-=O%#=",
"=#%O===qqqq9qttt960re955598866436w68wweewwwwew98qwww70w6443334ww033444309wq750w08qwwwewwwww35w5448w85qw979wr950tttwwweteq===O%#=",
"=+$o**=qqqq00rytr56wer64646999534w97rwwewwwwq89779qw7qeq43323423453534474wwe98q000wewwwwwww380434qww9w956rew66rtttqqwertq=**o$+=",
"=O@.&*&0qq0990ttrw68rrw5658700043677eeeeeeeerq9786780ww0q7353443rw544458qqwww5990wewwwwwwww3933333497555wrr75ettt00wwwet0&*&.@O=",
"=++.%&&0q89788wtttw69ttw644665523396eewrrwwr0ew899755886ww9q6545ww5444568767757qeweeewwqwww393443444566wrr75rrrtw0qqqwty0&&%.++=",
"=O#X&&*qyr0000qrttte79tte66565435555trrerrrer9we9677665344ww445546445354844466eeeqeeewwwwwq36333345566rrr96tterrw0wwwyyyq*&&X#O=",
"=O#+=*=qtrrrwqqettttt7qrer866766qw56werrrrrrww89weq0759945q745554444445855699ewqqereeeewww036qw555557rtr88rrrrrewettyyyyq=*=+#O=",
"=$%O===qyyttew3<,,>;;;-;;;-==-:<6q56werrrrreeeew88w5478q559455555555358847858w0eerreeeeeeeq559ee1,>>:;;--:;;===:<ertyyyyq===O%$=",
"=%*O-;-qyytttt:--:,:;;;;---;;==:379errrrrrreeeeee0846969075455555544346350855wrrreeeeewreer866w>;-:,:;;;;;==;;-->2ttyyyyq-;-O*%=",
"=@#o--=qyytttt;;-;,:;;;========:,wtttttttteeeeerrrr660qq80446655555545460055trrrrrreeerrrerrr68>---,>::;-====--=:,tyyyyyq=--o#@=",
"=o@o***0yyyyy:>;==>==;;=-===-===;6rtttrrrrrrrerrrrrew7qrww088645544350q668wttrtttterrrreerrrttq::==::==:--===;=--;4yyyyy0***o@o=",
"=+@.%*&0yyyyt>,:-;<32<62:>::-===-2ttttttttrterrrrrrerrwwwweeq548456qq968wrtrrtttttrrrrwrrrerrr,,>;;><3<44>>>>:==;;1tyyyy0&*%.@+=",
"=@@.%&%000yy<,>;;>224151>,>,-====:0rtttttrrrrrrrrreerrrrre9q0e86qe997qrrrtttttrtrrtrrrrrrrettr>>:;>>44243>>::,-=-;:7ywwe0%&%.@@=",
"=+@.&&&0ryyy:>;-;:22411,:>><--====3ttttw9tttttrrerrrrrrrrrre9e84qe6wrrrrtttrrtttttttte57errrr<::--::3331<>>>><;=---2yyte0&&&.@+=",
"=+#X&**0yyt3;:;=--2231<>>::<-;====:rrwwe57tttrrrrrrrrrrrterrrr557rttrrrrrtttttttttttt66ewqerr::;--;;333<<>:>><;;=-;>yyyy0**&X#+=",
"=@@X%**0tew,:;--;;2qtrreee8>=-====*4qqqq966ttttttetttrrrrrrttt666tttrerrrttttttttttt669eqqqw2::--;;:3qrrreee9,--=-::2eta0**%X@@=",
"=$@o&**qtty>:-=-::,1321111,;-======,eeqwr756ttttttrttettttttqew8ww0trrrrtettttttttt77qewwwtr<:;=-;;:>1311111,;----::,ytrq**&o@$=",
"=%%O***qyy4:--=;;;;;,;;------=-=*==-9etrrrq69tttttttt9yte97766wrr66667qre9tttttttt99wttttee9>;-=-;;;;::-;;;-------;>,7aaq***O%%=",
"=$*#===qaa,;==-;;;;;>;-------===*===2wwtttttqwttttttttw78888886866666550wtttttttr90rttttw003;-=-;;;;;>:---------;-;>,2aaq===#*$=",
"=$&#*=-wa8,;---;;---:;;-======--*===:w00wtyyytrryyyyyyq777779779779976880yytttteewtyyyw88wt<;-=-;;;;-:;---====--:;;:,10aq--*#&$=",
"=##+=-;wq3:===------;;;-===;==:;===--5qqqqq000000q000000qq09000000090q00q00qqqqqqqqqqqqqww7,-==-;;---;---===;==-:;;:,<4ww--=+##=",
"=+@O------------============---------=*======-=========-==*=*=--==-===*=*=*&**---=--=-------;;---;;-===&&*==-=*&%&*****==---O@+=",
"=+$+=---=------;===-=========--;--;--========-======----====*===**--===*==**&=;-=*--==------;-=-;;:;-=**&&*=;-**&&****===--=+$+=",
"=@&+=====-==-=-===*&&&***=====-=--====*===***==*=======*====&*=*&&*==*==**&%&-==**==&******====-;-====*&%&==--*%%&&%&*=*=-==+&@=",
"=#$OOOOOO++O++++OOOooOoXoO+OOO++++@+OOOOOoooOOo.o++OOOOO++++oO+X .oO+oXoOoX.o@#oXX@@XooXXXXOOO+@@++OOOo..X+OOoo...XXoO##+O++O$#=",
"=#$$#$#######$$$$##@@####$%%%$$&**%$$$$$#######++#$####$%%$%$%%#++##$&$%*&$@#%&%%%%%$@###@$%$%&%%$%%%%$@+##%*#@@@@#@@%*&#@$&$$#=",
"=@#######$####$###OOOO+@@@##%%$#%$#@#@##@+@@@@OO+@@@++#####@@#@OOOOoo######+O@$%%%####@+@@##$$$#$##$##+O+OO$%@o+@++@$%$$#++@##@=",
"================================================================================================================================"
};
