/* XPM */
static char *_508533404527[] = {
/* columns rows colors chars-per-pixel */
"128 128 36 1 ",
"  c #EFEFEF",
". c #E7E7E7",
"X c #DFDFDF",
"o c gray86",
"O c LightGray",
"+ c #CBCBCB",
"@ c gray78",
"# c gray75",
"$ c #B7B7B7",
"% c gray70",
"& c gray67",
"* c #A7A7A7",
"= c #9F9F9F",
"- c #979797",
"; c #939393",
": c #8B8B8B",
"> c #838383",
", c gray50",
"< c #777777",
"1 c #6F6F6F",
"2 c gray42",
"3 c gray39",
"4 c #5B5B5B",
"5 c gray34",
"6 c gray31",
"7 c #4B4B4B",
"8 c gray28",
"9 c #434343",
"0 c gray23",
"q c #373737",
"w c #2F2F2F",
"e c #272727",
"r c #232323",
"t c #1B1B1B",
"y c #131313",
"u c #0B0B0B",
/* pixels */
"================================================================================================================================",
"=########$####$###OOOO+@@@##%%$#%$#@#@##@+@@@@OO+@@@++#####@@#@OOOOoo######+O@$%%%####@+@@##$$$#$##$##+O+OO$%@o+@++@$%$$#++@###=",
"=#$$#$#######$$$$##@@####$%%%$$&**%$$$$$#######++#$####$%%$%$%%#++##$&$%*&$@#%&%%%%%$@###@$%$%&%%$%%%%$@+##%*#@@@@#@@%*&#@$&$$#=",
"=#$OOOOOO++O++++OOOooOoXoO+OOO++++@+OOOOOoooOOo.o++OOOOO++++oO+X .oO+oXoOoX.o@#oXX@@XooXXXXOOO+@@++OOOo..X+OOoo...XXoO##+O++O$#=",
"=#$O=====-==-=-===*&&&***=====-=--====*===***==*=======*====&*=*&&*==*==**&%&-==**==&******====-;-====*&%&==--*%%&&%&*=*=-==O$#=",
"=##O----=------;===-=========--;--;--========-======----====*===**--===*==**&=;-=*--==------;-=-;;:;-=**&&*=;-**&&****===---O##=",
"=#$O=-=---------============---------=*======-=========-==*=*=--==-===*=*=*&**---=--=-------;;---;;-===&&*==-=*&%&*****===-=O$#=",
"=##O=::qq4<,:;;:--=;===---;----;-===,7eeeeeeeeeeeewwwwwwwwwwwwwwwwwwwwwwwwwwwwwwwwwwwweeee5--===;:*=;===---;------===:3ew::-O##=",
"=##O=;:qy01,::;:--====---;:--;;;-==;<yyyyyyyyyyyyyyyyytyyyyyyyyyyyytyyyyyyyyyyyyyyyyyyyyyyy:====--======--;:---;;----,8uw>:-O##=",
"=$#+;;:qyy2,::-;---------:>--;;;-=-;3ttttttyyyyyyyyyyttttttttttyttttttttttytyyytttttyyttttt2===*===-------;>;;;;;-==;,yuw>:;+#$=",
"=##+=;:qyy7,>;-------;;;->:::-;;==;>9ttttttttttyttttttttrttyttttttttttttttttttttttttytttttt9--=*=-=-------;,;;;;;=--:4yyq::=+##=",
"=##O=;;qyyy,::----=---;;;>:::;;;=;:<tttttttttttttttttterrrtttttttttttttttttttttttttttttttttt,*=====----;;;:>:>::-=-::yyuq:;=O##=",
"=##+--;qyyy3::----==-=-;;<<<:;;;-::2ttttttttttttttrrrrrrrttrtttttrrrtttttttttttttttttttttttt4*====-====--:><,>;;---:,yyyq:;;+##=",
"=#$+=-;qyyyy>;;--;;32<62:>:,-;--;::ttttrttttttrreeeerrrrrrrrrrtrrrrrtrtttterttttttttttttttttt:====;;;3<44>>>>>---;::3yuuq;;=+$#=",
"=$$+---0yyyy2----;,24151>,>2;:--::<tttrrrtrrrrrreqeeerrrrrrrrrrrrttrttttttrrrrtttttttttrrtttt3====--,4243>>::1:;-;>:yyyyq;;-+$$=",
"=#$+=;;0yyyy7:;;=-12411,:>>5>>;:,>tttrrreerreeeewwwerrrrrrrrrrreeeeetrrrrrrreerrtrtrrtttttttt0:=====<431<>>>>3>;;>,,yyyy0;;=+$#=",
"=#$O===9yyyyy1;;==1231<>>::3>;;>,,rrrreeeweerewwwwweeeewerrrrrrreeertttrrrreweeeetttrrrrttyttt2-===-133<<>:>>4;;:,>yyyyy9===O$#=",
"=##O===0yyyyy4;;-=<8eeeere8<:==::ttrrrreeeeeewew0reeeeewwwweeeeeeeeeerrrrtrrweewrrrtrtrrrrrttt6;===->8eeeeee82==;>:yyyyy0===O##=",
"=O#O*==0yyyttt,:=-;,<<<<111,,--->ttwereeeewewee0wwwwrweweeeereeeeeeerrrrrrerwqweeeertrrtrwteerr,:===;,<<<1211<;-;;yyyyyy0==*O#O=",
"=O@o&-=0yytttt2>---;---;;;;:,:-;>rwrrrwweeweqw00wrwrwewwwweewwreerrrrrrerrwee00wwrwerwerrrqrret3:==-;---;;;;:,:--:yyyyyy0=-&o@O=",
"=O@o&==0yyttyty<:---;;;;--;:,>>1teerrwwwe9ewwe00ewweeeewewwwwwwwrrreerrrrrwwww0wewwwreerweq0eee6<:-===;;;--:;>>,<3yyytty0==&o@O=",
"=O#O&==0yytyytyyyytttttttttttterrqrere0w00e0w00ewwwewwwwwwwwwwrreerrrreeeewwee9qwqewwwqeeww8wewwtttttttttttttttyyyyyttty0==&O#O=",
"=+#o*==0yyyyyyyttttttttttttttrwteqewreqwqeq9eq9ew9wqweeeqqweewwrrweeeewrweqqeeqqwwwe0eewwww00wwqrtttrrrtrrrrttttyttttttt0==*o#+=",
"=@#X*==0yyyyyyytttttttttrtttrwer0erqewwqqqw9w90wwq9qwewwwweeeeereerwwwwwwww0rw00ew0w9wwqeqqq6wwwwwreereetttrttttttytttty0==*X#@=",
"=@#o*==0yyyyyyttttttrtteeeete0ee0qwqwwqe0qq0e00w007eeeewwwweeeerweeeewwwwe99qr90ee0w9qq9w0wq5ww0wwwwweeerrrrttttttyttttt0==*o#@=",
"=@$O===0yyyyttttttttreeewwwwwqew0qe0q99wqe9ww08w097eeeeqweerwwrwrwwwweweew96ww99ww0q0w90w0q06qw99qqqwqwweeeettttttttyyyy0===O$@=",
"=#%+===0yyyyyyyyrrrrwwwwwqqqwwwe09wqwq6w8w00e99q074ewqqewwwwwrwreeeeeqqewe070w99wq7q6w7008058ww699qqqqqqweeeetttttttttty0===+%#=",
"=#%O===0yyyyttttrrrwqqqqqq0009rrq9000q8q7w99w700954eeewweeeeeweeqeeweewwww648q00w07w708qq995qqw887000qwwwwweeetttttttttt0===O%#=",
"=%%O==-0yyyttrrrrrwwwww0000q07eew97q99808q99e800845qqwewwweeeweeewwqqqeeee848w07qq799qqq7w88wew466770qqqewewrrrttttttttt0-==O%%=",
"=%$O=--qytttttrrrwwewqqqq00996wrqw6706807078q8005349eewwwwwrwwww0wq00weeee5369q7w08q0006q99wqww5559q0qwwwwrewrttttttttttq--=O$%=",
"=$$+---qyyyrrreeeeeewqq99qqqq75ww00680086788q6q9533qqeeewwwwwwwwqqqqqqqqrw6360w6w8607q000690ee66970008qwwwwwwwrrtttttrrtq---+$$=",
"=#&+=;-0tttrrrerreww00900000q938wq9967897776069q4359qwweeewwqqqw0000qqqewr636ww608888088600qw938089779000wwweerrttttttty0-;=+&#=",
"=%*+---qyttrreeeewwqq000000008849eq907759975977q7559rwwwwww0wwqqwqq0wwqwww444w07q588856669ww9466999888880qwwweerrtttttttq---+*%=",
"=$*+---qytttrrrweqww0999q9q0799535e096855607556e0558eeww0wqqqqqqqw000were0547w76969745579qq7248767976780qqqqqwwwrrrttttyq---+*$=",
"=#%@=;-qyyyytteeww000090000006798339w9664399967qq566wwwwww99999wwqqqwwewe333wq5680054467q043776669999780000wqweeetttttttq-;=@%#=",
"=@$+=--0yttttrewwwq099990007996677336qq865358q69r7568wrq0wqqqq0wwqw0qewwq254w84096555900623555669778888999qqqqwerrrtttty0--=+$@=",
"=#$O=--0yyytrteww0099000q99966886664326906445008r0455eeewwrqqq0wwqw0qqww4337w69866660q611445657696668999999qqqqwerrrrtty0--=O$#=",
"=@$O===qyyytrrwq099999q99q0977976653311359863479005336eeeeewwwwww0000qw5333q99854507622212356677789999999999qwweeertttttq===O$@=",
"=#$O*=*0ytttrwwqq99q0wwq9997886566455433124995359w84234wwwwwwwrwqqqqqq54238w86335961322231355458900008999qqqww0weeerrtyy0*=*O$#=",
"=#$O===0yttreewqq00qqq9000777776674643334323806436q0242400qqqwewewwq042247q9312693133233334456666668089990000qqqqwrrrryy0===O$#=",
"=@#O===0tttteewww0qqq078642224437755445554533894446962346w0qqqwqww9041338952237713223562233553332344565889000wqwwwettttt0===O#@=",
"=+#o===0ttrrrrwwqqq9089q9998995554554555557533694335963336w890wwqq953335943338532131333422224458887000666999qqwwwwwrrttt0===o#+=",
"=@#o*==qtttrrrw00qwewwreewwwqqqqw7633244647564340623566333607w00w871214643135331322242332249qwwwwewwweww00qqq70qqwwrrrttq==*o#@=",
"=@#o*==0tttrew97weeerrreeeeeqewwwqw0422555564663307244764425qqq095222663123633443233222217q0w0ww0wwwwwwwwwwww750weeerttt0==*o#@=",
"=@#O*==0rttee90errrrrerrrwweqwwqwwwwq752364645354489422402337w00632284<3353333344443331600qqq000wqwwwwwwewwrwe96qwerrrtt0==*O#@=",
"=@#O=--0tttr9wrrrrrrrrrrreewwewqqqqqqw944467435533480542406530wq11376111642323333544348wwqw0qqqq00wwqqwwwerwttrq8qeerrrt0--=O#@=",
"=O#o===0tttewtttrterrreeeeeeqw00wwwqweww833554444555663346q966w0280833155434344336336wwwwwwqqqqqq00qqqwwwrrrrrrtw9wrrrtt0===o#O=",
"=O+.*==0yrertrrrrrrrreewrwwww0wqww0qwwweq94443443345555332wqw80q99w33244432333435339wqwwwwwqwwqqqwwwwweeeeeteeerrwwrerry0==*.+O=",
"=++o===0rrrrrrrwweeeeweewwwwww0wwewwwwweeeq333222244654533www00009q534435333443444qwqewwwwwqwqqqq0w0wqeerrrrrrwretewerrt0===o++=",
"=@#+===qrrrtrrewwweeeewwqwqq0q0qwwweqwwwqqw933331246643444eqqqw990q45234344234353qqqqwwww00q0q90qqqq0wwrwetewwwwrttqwrrtq===+#@=",
"=@$+===0ertrrewwwwwq0qwwew0wq9qqqqwww0q0000w82244344466345w0w0w090q633342434533260wweew00qqwqq079q00wwwwwqrwwwwwwertwett0===+$@=",
"=@#O===0ytttteeeeeew66wwwwqqqwqqw0ww9888ww0005113453375556wqwww99904245554353336wweqqqq0w00qqq990700wwe06qqewweeerrttqet0===O#@=",
"=+#O=-=0ttttrrreeeeee7590qww900qw00qqq80000wqw713444646555wqqqq9900623553423225qeqwqwww0wqqqq9q99ww00869qwwweewwwrtrrrrt0=-=O#+=",
"=+#O=-=0yttttrwweewwww9957wweqq00qq990008qqqq0q22346457547wqwww070941454443333w0wwwwe0wq99q9w9qqwww8869wwwwww99eertttttt0=-=O#+=",
"=##O=-=0yyytrtrwqqqweew00080ww99q0qqq0099wwqqqw82445446547qqqw0078063453433224qqqqwwww000qqqw089ww89qwwwww088qwerrrttttt0=-=O##=",
"=#$O*--0yttttrrrrwq0wwwwwwqwqwqqwwqwq00w999qqqq02434434550ww0qqq70073463422117990wwqqqqq90wq900wewewwwwww80wwwweeertttty0--*O$#=",
"=#%+===qtttttrtrrrrrwwwwwqwwwwe9qwqq9q00qqqqwwqq4222443548e0www799964543322127qqqqwweqq009qqq9qqqwweerwewweeeeeeeetttyttq===+%#=",
"=#%+===0trwwwtteeeetreeewwwqwwwwqqq99999qwqqqw0w6233422759wqqq0899w5333233123q0qq9qq0000000q000qqqqewtrerrrrreeewqqetttt0===+%#=",
"=#$+==*0ttteeertrrrrrwwrwwwwwwwwew9907909q0700wqq333422549wwww099905243322337qq0070w0wq90880qqqq0qqewrrrrrtrrrww0qrtttty0*==+$#=",
"=@%+===9tttrrrtteterrrrwwewweweeewe90888w0055qqq9322334940wwwwwww9q7263233339qq976eqqw07q7wwww0q000wrrtrrrrtreewrrrrtttt9===+%@=",
"=@$o&**0ttttttrttttrrereeeeeeeqwwwq08q79wwq058w0w5233356400qwwqeqq0736644234wwq046www08w90ww0090wwwwerrrrrrrreereeertttt0**&o$@=",
"=#%O*==0tttrrrttrrrrwewwewwweweqqqwq9q94wq9934qq0723426620www0w000w637523338ww084qwew58eqqqqqw9q9qwwerrrerrrrtttrreeewrt0==*O%#=",
"=@%+==-0tttttttrrtreeeeeeewweew0w90000w55wqq520w0924346750qw9990qqq81552221900q440ww640eqqqwww0q000eeeeeteeeetrteeerrrtt0-==+%@=",
"=O#X*=-0tttttttrrrrrewweeeewwww0qwqwww95249q947qqw6445683qqw0w00q9091743132qqw947q9646qwwqqqqqqwqqweeeeeeewrrrtrrrrrrrtt0-=*X#O=",
"=O+ &*=0tttttrrrrrrrewwwweeweewwwwq0999w53590630ew8333684qqwqqw0ww06245433300q7507533000qwww00wq0qqeeeeewrrerrrrrrrtttyt0=*& +O=",
"=O+.&*=0tttttttttrrrwweweweeeewwwqqqq9qq9336qq47qw8433363qeeqeqeqqw54433233qw738q5538w0w0wwwww0wwqeeeeweeeeerrrrrrrrrttt0=*&.+O=",
"=O#o*--0yyyttttteteeeeerrrqwwwwwwww9560004370w64qe93144569wwweqw0w062444517qw640q532ww9659q9qqwqweewrwewwwrreetrrttrtttt0--*o#O=",
"=o#O=-=9yyyttttereewwwwreeqewwww0w844779w02768q67w94344570eweqwwwww54555329w75884546wq855280wqwwwwwrweewwwrererrrrrrrtyy9=-=O#o=",
"=o$+===0yytttttrrewwwweeerweeeee0w8355wwqq6488885ww534566qwqqqqwww034455330e66q65330wwq6346wqwqerwwwewweeerrrertrrrttttt0===+$o=",
"=#&o*==qyyytttrrweeeewrreeeewwww0q0435qwqew3660075w0435969e0wwww0w84476326w65966527ww0q4549weeeeeeewwwwweeererrrrttrttttq==*o&#=",
"=#$X==*0tyttttrereeeeeeeerrrwreewqq837wwwqq66787089w623977qqw0wwwq54574239w7086543wqqww636weqqwqwewwreewwwrrreterrttrrrt0*==X$#=",
"=#%o=*=0ytrrrrreeeeeweerrwwewwwwqqw77009qee05576886qq327q70000qww84499349q69855429wqqwww60wwwwwewwwwweeeeerreeerrrrrtttt0=*=o%#=",
"=#*O*=*qtttrrrrrrerrrwrreweeeewwww09q000qwweq33345739938968q9qww97440656w66865559000w00w89wwwwwwwwwqwwwrrrrrrrrtrrttttttq*=*O*#=",
"=#&o*==0ttrrrerrrrrwwrrweeeqqqqqqqq07wqqqeewww6232443w880870ewwqq7498850q666449wqqqqqqqq00eqrwwwwwwwwwwwereeeerrrrrttttt0==*o&#=",
"=#$X&**0tttrrrrreeeeeeerewwqwww0qqwq0wwwwwwwqqww613223w97088eqqqq3596490334490wqqqq000w000wweweqq000qqqeererrrtrrrrtttyy0**&X$#=",
"=+@.%*&qytttrrrrreeeeerrww34qqwwwwqe0qqwwww0879w0882226w8ww9qeww66w038w52260qqq9qqwqwwe00qqw0wqwq7280qqwwrrrrrrrrttrttttq&*%.@+=",
"=O#o&&*0ttrtrrrtrrreeeewq43wqww0q0wq9wqqqq0755560w083330qqewqqq97w09306319w0q97589qqqww00wwwww0wqq334wwwereeettttttttttt0*&&o#O=",
"=@%@-=*0ttrrrrreeteeeeeq450wwqwwwqeqqq0w0qq86533480w085800wqqqq99w0588249q09732600wqqwwq9wqq9q0wwww526weerterrrrrrrttttt0*=-@%@=",
"=$&#=;-qttttrrrrrrrrew05qqwqwwewqqqqw8w0q9q8q0653368wq95009qeww0ww06644900611590wwwweew0qq0000qw0wwwq45eerertetteetrrtttq-;=#&$=",
"=%%o=--qttttrrrrreeee77qwewweewwwqwww00qqq00000983248w97997999w007677569952200wqqwqqww90qq000q00qqqqqw77wteeteeerrrrtrttq--=o%%=",
"=%%X*=-qyttttrrrrree66ww0ewweeewwqqwww0qwqqwwqq00064400099866896746455906590qqqqewwwwqqq77wqqq0qwqqw9ww06weteeeeerrtttttq-=*X%%=",
"=%%X**=qytttttterew58wwwewwrrrwwwwqw90ewww0qqqq65qw656w9999966886688780649q72qwwwwewwqe85wwwwqqqqqqqqqqew6qrrrrrrrrrtrttq=**X%%=",
"=#%@=--qtyytttrrrq48ww00eeeweeeewwww069qqqqwwq0333wq857wq09q968866669q946q6333qeeqwwww028wwwwwwwwwqqqq0wew57rrrrrtrrrtttq--=@%#=",
"=#%@=--qttttttee039rw0wwrwrewewwwwwww65wew0w0w433260055qq05009w567509086q064430wqeeeqw6690wwqwwwwwwwww0wqeq57rrrrrrrrtttq--=@%#=",
"=#$X&==qyyttttr958wwqqwwwwweweqwwwwqq954wqqq003232500958q89q99w9998q9948w073337ewwwqe735qqwwwqqwwwwwqq700ee066errrrrttttq==&X$#=",
"=#@o*=-qtytttt968www00qrreerwwwqww0wq9544qwwww6213qq90q899q999q86q9979wqwqq3437qqweq4467wwwwwwwqeeewww099wee045wtttrrrryq-=*o@#=",
"=@#o*--qtttttw59wrwwqqqewwwewwewqwwww08549www0q411q00qqq086977089990www0wqw537wwwwq33599wwwwwqwwwwwq000090qww058errrrtttq--*o#@=",
"=+#X*--qytytw69weeqwwqweweeeeweqwwweqq86739www0w6349qqqq9w970000qq9w0w000w638wwwqq431399wwwqwwwweeeqeqq809qwee967ettrttyq--*X#+=",
"=@#X*--qytttqqrerrqq09eeeeewwwwwwwwwwqq995290q9qq4400000800wwqwqww00000wq064wwwqw522258weqewqqweqqqwwww889wwrrr09qettttyq--*X#@=",
"=@@X*--qyyyqqrreeww069eeeeqw00qqweeeeeqq7423qwqqq059qqw9697099w090088wewqq70wwwq7121279wwwewwwwewwwwwwe9680qrrtt99errryyq--*X@@=",
"=#$X*--qyywqqtrrrq896qewweqqw9990wwweeqq946250wwwq57wqqq8859q9w99q899wqwwq70wqqq6221480weqrewrwrqwwqwwwq660qweerw79wttttq--*X$#=",
"=#%O=--qyewwtrwww0906wwww0qqqqqwwwwrewe0044480wqww6908008w0eeewqwq9w9wqwq0690qqq9413899qewewrwewwwwwwww07796wewer08qetttq--=O%#=",
"=$$O=;;qeewwrrwew7877ewww009999qqweeeee0w53590q99q7778690qw079670qwweq9wq7579qwq77459qqwwwreeewwwwwwwqww7667qrwwre90wtttq;;=O$$=",
"=$%O=-;qtewttrerw7796qwwwwewwwwqeeeweeeqq9577q99qq736858886667796799w99qq779009q88880qqqeeeewwewwwwwqqww77759eqertqwwettq;-=O%$=",
"=$&+==-qteertrqew6776wwqwwwqqqqwweewwww0q0796qq000046066677578688869000w067ww0qq968909eeeeewwwwqqwqqwqqw87660e0qrteqerryq-==+&$=",
"=#%@---qrwtttq9r05756ewqqqwweqewrwwwwwewq08889qqq0967q86856666078700890ww990wqqq899000ewwweeqeqwwewwqwww94436w97ettqwtrtq---@%#=",
"=$%@;;-qwwttw00ww6666wwwwqqwwwwewwrewrqq00066900wq078w0676669qwq989777qe07wwwqqq79qwwweewweweeewqewwewww65549q87qttewtttq-;;@%$=",
"=#$+-;;qwrytwq8qee755wwqwwweeeweweewwweewqq957wqq0w09wq7668900wqqq9877qw00ewwww978qwwewwreewwwwwwwewwwww7558ww699rtrqeytq;;-+$#=",
"=#%+=:;qwtttq97qee066qewqwwweewwewwwwreqwq0956wqq0009ww95900w0wwww0688ewq0eweee079wwweewwwwrrrweewqewwww755wwq569ettqwyyq;:=+%#=",
"=$%O=;-qeyyrq979wee56wwwwerwewreewwwwe07eww080www00q7qw969wwqqwqwww080wwwwewewww9qqqe99ewwweeerweeeeewww649eq0557errwqttq-;=O%$=",
"=#%O=-=qetrtq889rwe05wwweeeewwweewwwwe06www05eqqw00w90ee90wwwqw0wwwq7wrqqwwewwwe80wwq67wwwweeeewwwwwwwww76www0577eetr0ttq=-=O%#=",
"=#%O===qrrwer067weew5wreeeerreewwwwwww990ww00wqqqwww0qww9wwwwqwwwwww8ewqqewwwwww9qwww88qwwwwwwweewweeeee70www668qe0weqryq===O%#=",
"=+$o**=qrrqryt078www7teerweeeeeweeewrw699wwq9wwwwqqww9eeq0wqwwqwwrww9eeqqewewwer0qwe086wwwwwwwwwwwweerrr9wwq855rtt0qtweyq=**o$+=",
"=O@.&*&0ttwette757er9errtrrewwwwwwweew999wwwqweqwwweeqwee9wwweewrrrweee0wwwwrrrwwwew797wwwwwwwwwwwweerre9ww9550rtr9wrwey0&*&.@O=",
"=++.%&&0tewwrrrq770rqrtrreeeeeqqwweeeq899qee9wwweewwwwwwwwewwrwreereeeeqwwwwrwwwwwee7889wwwwwwweweweette0ww566rrewwwtery0&&%.++=",
"=O#X&&*qyyrqettr998ewwttterewwwweqwwtwq89qeeeqeeweeeeqqweweeeerrereerweqrwwwrwrwwweq777qwwwwwwwwwweerrtr0r877qrerqwyywryq*&&X#O=",
"=O#+=*=qytteqertw0wwwwtterrrerewwwerte0990rrqqeeweeeewweeeewerrreeeeeeeewrweeewwwerq770wwwewewrrwreerrtw0w999rwwwqyyyeyyq=*=+#O=",
"=$%O===qyyttww3<,,>;;;-;;;-==-:<6eew0ee79qrewqeerrreeeqeweeerrrrerrrwrqeeerrrrrwwrrw97qeqqweeeee1,>>:;;--:;;===:<rttteyyq===O%$=",
"=%*O-;-qttttte:--:,:;;;;---;;==:3eq90we9qwteeqeeerreewqrrererrrrrreewwqweerrrwrwreee07qe900wrrr>;-:,:;;;;;==;;-->2tttryyq-;-O*%=",
"=@#o--=qtytttr;;-;,:;;;========:,0qqqqeeeeeeeqwrrrrrwwweeteetrrrrrreewqweerrtrrwerreeqw000q0qrt>---,>::;-====--=:,ttttyyq=--o#@=",
"=o@o***0yyrtt:>;==>==;;=-===-===;6qwqwrreeeerqwrrrrererrrtrttterrewwwwwwwrrrtrtetteeerr0900000e::==::==:--===;=--;3ttyyy0***o@o=",
"=+@.%*&0yyyer>,:-;<32<62:>::-===-2weettteerteeweeeeerrrrrtrtteereeerrqeeertrrrrrrrreeeerreqqqq,,>;;><3<44>>>>:==;;1ttyyy0&*%.@+=",
"=@@.%&%0yyyr<,>;;>224151>,>,-====:0rttttrrrrreerrreerrrrrrrrreeeeterewrrrtttttrtrrtrrrrrrretrw>>:;>>44243>>::,-=--:7yyyy0%&%.@@=",
"=+@.&&&0yyyt:>;-;:22411,:>><--====3trtttttttttrrerrrrrrrrrrerrrwrrrrrrrrtttrrttttttttereerrrr<::--::3331<>>>><;=---2yyyy0&&&.@+=",
"=+#X&**0yyy3;:;=--2231<>>::<-;====:rrrtrrttttrrrrrrrrrrrrrrrrrreertteettttttttttttttttrrrrrrr::;--;;333<<>:>><;;--;>yyyy0**&X#+=",
"=@@X%**0yyy,:;--;;2qtrreee8>=-====*4rrtrtttttttttetttrrrerrtttttettteerrrttttttrttttttrtrrrr2::--;;:3qrrreee9,--=-::3yyy0**%X@@=",
"=$@o&**qyyy>:-=-::,1321111,;-======,trrrrrrtttttttrttrtttttttttrtrttrrrrttttttttttttttrrtttt<:;=-;;:>1311111,;----::,yyyq**&o@$=",
"=%%O***qyy4:--=;;;;;,;;------=-=*==-9rtrrrttytttttttttttttttttttttttrrrrrtttttttttttttttttt9>;-=-;;;;::-;;;-------;>,7uuq***O%%=",
"=$*#===quu,;==-;;;;;>;-------===*===2ttttttyttttttttttttyyyyyytttttttrrtttttttttttttttttttt3;-=-;;;;;>:---------;-;>,2uuq===#*$=",
"=$&#*=-wu8,;---;;---:;;-======--*===:tttttyyyyyyyyyyyyyyytytttttttttttttyyytttttttyyyyttttt<;-=-;;;;-:;---====--:;;:,10uq--*#&$=",
"=##+=-;wq3:===------;;;-===;==:;===--5qqqqq000000q000000qq09000000090q00q00qqqqqqqqqqqqqww7,-==-;;---;---===;==-:;;:,<4ww--=+##=",
"=+@O------------============---------=*======-=========-==*=*=--==-===*=*=*&**---=--=-------;;---;;-===&&*==-=*&%&*****==---O@+=",
"=+$+=---=------;===-=========--;--;--========-======----====*===**--===*==**&=;-=*--==------;-=-;;:;-=**&&*=;-**&&****===--=+$+=",
"=@&+=====-==-=-===*&&&***=====-=--====*===***==*=======*====&*=*&&*==*==**&%&-==**==&******====-;-====*&%&==--*%%&&%&*=*=-==+&@=",
"=#$OOOOOO++O++++OOOooOoXoO+OOO++++@+OOOOOoooOOo.o++OOOOO++++oO+X .oO+oXoOoX.o@#oXX@@XooXXXXOOO+@@++OOOo..X+OOoo...XXoO##+O++O$#=",
"=#$$#$#######$$$$##@@####$%%%$$&**%$$$$$#######++#$####$%%$%$%%#++##$&$%*&$@#%&%%%%%$@###@$%$%&%%$%%%%$@+##%*#@@@@#@@%*&#@$&$$#=",
"=@#######$####$###OOOO+@@@##%%$#%$#@#@##@+@@@@OO+@@@++#####@@#@OOOOoo######+O@$%%%####@+@@##$$$#$##$##+O+OO$%@o+@++@$%$$#++@##@=",
"================================================================================================================================"
};
