/* XPM */
static char *_508533433871[] = {
/* columns rows colors chars-per-pixel */
"128 128 36 1 ",
"  c #EFEFEF",
". c #E7E7E7",
"X c #DFDFDF",
"o c gray86",
"O c LightGray",
"+ c #CBCBCB",
"@ c gray78",
"# c gray75",
"$ c #B7B7B7",
"% c gray70",
"& c gray67",
"* c #A7A7A7",
"= c #9F9F9F",
"- c #979797",
"; c #939393",
": c #8B8B8B",
"> c #838383",
", c gray50",
"< c #777777",
"1 c #6F6F6F",
"2 c gray42",
"3 c gray39",
"4 c #5B5B5B",
"5 c gray34",
"6 c gray31",
"7 c #4B4B4B",
"8 c gray28",
"9 c #434343",
"0 c gray23",
"q c #373737",
"w c #2F2F2F",
"e c #272727",
"r c #232323",
"t c #1B1B1B",
"y c #131313",
"u c #0B0B0B",
/* pixels */
"================================================================================================================================",
"=########$####$###OOOO+@@@##%%$#%$#@#@##@+@@@@OO+@@@++#####@@#@OOOOoo######+O@$%%%####@+@@##$$$#$##$##+O+OO$%@o+@++@$%$$#++@###=",
"=#$$#$#######$$$$##@@####$%%%$$&**%$$$$$#######++#$####$%%$%$%%#++##$&$%*&$@#%&%%%%%$@###@$%$%&%%$%%%%$@+##%*#@@@@#@@%*&#@$&$$#=",
"=#$OOOOOO++O++++OOOooOoXoO+OOO++++@+OOOOOoooOOo.o++OOOOO++++oO+X .oO+oXoOoX.o@#oXX@@XooXXXXOOO+@@++OOOo..X+OOoo...XXoO##+O++O$#=",
"=#$O=====-==-=-===*&&&***=====-=--====*===***==*=======*====&*=*&&*==*==**&%&-==**==&******====-;-====*&%&==--*%%&&%&*=*=-==O$#=",
"=##O----=------;===-=========--;--;--========-======----====*===**--===*==**&=;-=*--==------;-=-;;:;-=**&&*=;-**&&****===---O##=",
"=#$O=-=---------============---------=*======-=========-==*=*=--==-===*=*=*&**---=--=-------;;---;;-===&&*==-=*&%&*****===-=O$#=",
"=##O=::qq4<,:;;:--=;===---;----;-===,7eeeeeeeeeeeewwwwwwwwwwwwwwwwwwwwwwwwwwwwwwwwwwwweeee5--===;:*=;===---;------===:3ew::-O##=",
"=##O=;:qy01,::;:--====---;:--;;;-==;<yyyyyyyyyyyyyyyyytyyyyyyyttttttyyyyyyyyyyyyyyyyyyyyyyy:====--======--;:---;;----,8uw>:-O##=",
"=$#+;;:qyy2,::-;---------:>--;;;-=-;3ttttttyyyyyyyyyytttttttttrreewrtrttttytyyytttttyyttttt2===*===-------;>;;;;;-==;,yuw>:;+#$=",
"=##+=;:qyy7,>;-------;;;->:::-;;==;>9ttttttttttyttttttewrttyttrweewttwttttttttttttttytttttt9--=*=-=-------;,;;;;;=--:4yyq::=+##=",
"=##O=;;qyyy,::----=---;;;>:::;;;=;:<tttttwwrtttttttteterrreeeewwwweeeerrttwwrtttttttteettttt,*=====----;;;:>:>::-=-::yyuq:;=O##=",
"=##+--;qyyy3::----==-=-;;<<<:;;;-::2ttttttwwwwwwerweewrwetterwwweweerrrerttteetteeeeewtttttt4*====-====--:><,>;;---:,yyyq:;;+##=",
"=#$+=-;qyyyy>;;--;;32<62:>:,-;--;::ttttrttttq00eeweewwwetrrrrwwwwwwerrtteeerttwttwwwwtttttttt:====;;;3<44>>>>>---;::3yuuq;;=+$#=",
"=$$+---0yyyy2----;,24151>,>2;:--::<tttrrrtttw0ew0wq9wrerrreeeerqqwwweetttterrrtwrtwwtttrrtttt3====--,4243>>::1:;-;>:yyyyq;;-+$$=",
"=#$+=;;0yyyy7:;;=-12411,:>>5>>;:,>tttrrreerrrewww09eewrq7wewwwteq990eer09eeeewwwwwttrtttttttt0:=====<431<>>>>3>;;>,,yyyy0;;=+$#=",
"=#$O===9yyyyy1;;==1231<>>::3>;;>,,rrrreeeweerq8w00wq88q56rwwrw0eeeeeeet07qq89wrwwewtrrrrttyttt2-===-133<<>:>>4;;:,>yyyyy9===O$#=",
"=##O===0yyyyy4;;-=<8eeeere8<:==::ttrrrreeeeee9qww0677q055wwqwew0eeeeqwr980w9789wrr0wrttrtrrttt6;===->8eeeeee82==;>:yyyyy0===O##=",
"=O#O*==0yyyttt,:=-;,<<<<111,,--->tteereeeeee6ee8657780855qw000wee0ewwrr868qq68669wrwrrrttrtrrrr,:===;,<<<1211<;-;;yyyyyy0==*O#O=",
"=O@o&-=0yytttt2>---;---;;;;:,:-;>rtrrrwweee8q9444766805539eq0qeeeewwqrr467894666679rreerrrrrrrr3:==-;---;;;;:,:--:yyyyyy0=-&o@O=",
"=O@o&==0yyttyty<:---;;;;--;:,>>1trrrrwwweww9q6657555074346qww999rw000rw555595455665wrwrrweewerr6<:-===;;;--:;>>,<3yyytty0==&o@O=",
"=O#O&==0yytyytyyyytttttttttttttrrrrerewwww04684666859444459qq080e990qr7544496445557q70weewwwweeetttttttttttttttyyyyyttty0==&O#O=",
"=+#o*==0yyyyyyytttttttttttttttrtreeeeewww9435w4555647444335wq880w799eq4534467444450q770ewwwweweettttrrrtrrrrttttyttttttt0==*o#+=",
"=@#X*==0yyyyyyytttttttttrtttrrrrerrweew953633983504564334547eq9979www3544456033344066666qewwwwereereerretttrttttttytttty0==*X#@=",
"=@#o*==0yyyyyyttttttrttrrtrtreeeeewr090eq65246034536544443340ewq8qee5344444675344883336qwwwwqwweeeeeeeerrrrrttttttyttttt0==*o#@=",
"=@$O===0yyyyttttttttrrrreeereeeeer9689659w64444967795343644635ewrw03355943339658863345qq888w78wwwweweweeeeeettttttttyyyy0===O$@=",
"=#%+===0yyyyyyyyrrrrweeeeeerrrww864qq75534w55343333w32247544353ww654433844449634432310444569w6560wewwwwwereeetttttttttty0===+%#=",
"=#%O===0yyyyttttrrrewwweeeww09755790665333773575533w4433886343443443445633339336543349356666q05533580weeeeeeeetttttttttt0===O%#=",
"=%%O==-0yyyttrrrreeewq067888886666w6842334qwwewweqqq054366865344433245764477e00wwwq0ww6447769q9232356666000qeeettttttttt0-==O%%=",
"=%$O=--qyttttrwwq00q9990000779965e7533369qqqqwweqqqqee843879933323234564460we9ewwwwwwwwqq8999706126666800qqqqqwweeetttttq--=O$%=",
"=$$+---qyyyrrrrrrrrrrwwwerrrrewww05524q099qqqqewwqqqqeew46675833235444439qwwqweqwqqw0ewwew87996qq0qwwweeeeeeeerrtttttrrtq---+$$=",
"=#&+=;-0tttrrrrrrrrrwwwreeeerwwww6635ww00q000w0wwwwq0wwww666466755433339wrw0eeewwwwwwwqqqee96777w0wwwwrwwrerrrttttttttty0-;=+&#=",
"=%*+---qyttrrrrerrreeeeerreeeeee9845w0wqqq00qqqqeeeqr0wwq66355224233445qee0wwweeeqqq00ww0www9677qwwwwwwwwereerrrrtttttttq---+*%=",
"=$*+---qytttrrreteerewwwterewee86480qqw009qq99wererwww0e003332508812349reqeewwwqw0000q0qwqqwq7586qwwqqweeeweeeeerrrttttyq---+*$=",
"=#%@=;-qyyyytttrrrweerweeeeeeqq063qqwq0000w0qqeweerewwq0w03215088qq1460ww0wwwqwqqqww00q90wwwwq7569qwwwweeewreerrttttttttq-;=@%#=",
"=@$+=--0ytttttrrrrreeeeeeeewww7739qqqqqqqw990wwweweeq0w9ww756q8659w728qww9e0q00qqqqq0000000000q697qqqwwweeeeeerrtrrtttty0--=+$@=",
"=#$O=--0yyyyrtrrrwwweew0reeeqq837qqqq0q0w577qwwerr0www000wq50w7556w057ww09w90qw0wwq009699q99q9qq860qwwwe90weeeeerrrrrtty0--=O$#=",
"=@$O===qyyytrreewwwwww5wwrewq9530ww9000qq6896wwwwww00qqqqeq7ew84347077e9999qqwwwwqq9906q990qq9w077qqwwwwe69eerrrrertttttq===O$@=",
"=#$O*=*0ytttterrrwweq60rwww0w944wqqww00qq7697qqwwww030ww0q90w004336q06ww9wq55www00q89990q99q089w099weqwwww60trerrrrrrtyy0*=*O$#=",
"=#$O===0yttrrrrerew055wrrrwww078qw0wq000ww377qweqqqw44248q8qq083445qq3q99433w0qqqq98q59qqqq00q8qq99wewwwww659rreeerrrryy0===O$#=",
"=@#O===0tttttterrw0758errwqqqq0qewqq0qqqqq99w9wweewqq488445qq962335w04339559qwqq0w7699eq0w0wqqw900wwwewewe0450wrrerttttt0===O#@=",
"=+#o===0ttttttete9656errwrewww9wwwww0wwwwwe7q80wqw00q8www44wq7732459q33qwq790qqwq08889qeqqqqwww900qeeewwwwe3559errrttttt0===o#+=",
"=@#o*==qttttttrrq6866ereewwwwq00qqwww0qqeqeq097qww00090wwwwqq9633580q900qw567qw0w9980qqqq0wwwww00qqwwewewwe85669eerrrrttq==*o#@=",
"=@#o*==0ttttrrrw87750ereeeeeqw009qwwqqqwww5w080qqww69wqqeeqqwwq420qqqqqw00679weww066q60q00q0w0w969wwwwwwwwww5668errrtttt0==*o#@=",
"=@#O*==0tttttrrr0888eerrrwweqw059wwwqqrqqe30q96wwwq9598qwqwwww000wqqqq9ww0779qwwww0qq66q00wqq00550wwwwwwewwr6690rrrttttt0==*O#@=",
"=@#O=--0ttttrrre9778rrrrreewwew450qqqwwww9670q0w0009399qqw9wwwwq9000q679q9655wwwwqqw786wwww0wqq330wwqqwwwerwq779wrtrtttt0--=O#@=",
"=O#o===0ttttrrre9960rreeeeeeqw0559wweewww6655qqwwwq5379qeq96w9w00w9q989qq9944wwwwww7686wwwwqqq92300qqqwwwrrrw780qrtttttt0===o#O=",
"=O+.*==0yttteqew808wreewrwwww0w9350qwwwe05755qqq00q3300qqqw7843ww568000ww99339eqwqw85669wwwqww539wwwwweeeeete7900rretttt0==*.+O=",
"=++o===0tttt0rr9677eeweeweeeew0w748wwwwe996509999902390ewwew05424360wwwww8934qqqqwww9678qqwww025qqwqwqeererrr0608ttwtttt0===o++=",
"=@#+===qttrr9ee6667weewwwwwwwwqww44ewee96680q0996995499wwweqq092369qe0qeq002399qqwqw00699qqq031qwwwwqwwrwwtew0699tt0rtttq===+#@=",
"=@$+===0ttt09ew6659ewwwweewewqwww938eww6550w0008995330qqqwqqw00667qwq9wwqq0444q990wwee0577ww92800wwwwweeeqrwww687erwwttt0===+$@=",
"=@#O===0ytr99ee665wwww9qeeqeeewwww7300437w0000068043390weww0www8980088wwe09533009weqqqq9960w35qqw0qqwweee9wwww797rrwwrtt0===O#@=",
"=+#O=-=0tte00rr665eeew80qqwwqqqeeqq43047990wqww8q934459wwww9700008097qeeq084228000wqwww0w90440w00ww0qqwew8wwee887etw0ryy0=-=O#+=",
"=+#O=-=0ytrqqrr676wwww79qwwweeeqwwe015qq9qqqq0889445378qwww77w0077786wwww902334999eweqwqqq83w0wwwwwwwwwww9wwww888wteqttt0=-=O#+=",
"=##O=-=0yyt0qtw678reee99qewwww0qwweew5w00wwqq08994544670qqqq6q576480qqwww6022228860wweqqqe6www00wwwwwwwwwqwwweq79wrrqtty0=-=O##=",
"=#$O*--0ytr0erw869ee8ww90wqwqwwweeq7ww7w000qq66944443569wwww079q9070wweww6811222778qwwweq9eq7qwwewewwww000e0eew990rtqtty0--*O$#=",
"=#%+===qtrr0erq86qrr8w08059wwweweq5ewwwwwwwq987636134757qqe0w8w54q6qwwwww6723<625680rewwwwwww9qqqwweew7qq9e0rrw999ttqtttq===+%#=",
"=#%+===0ter9etq77eetw90q9765w0www0wwwwwqwwww797466364449wwwqqq0330q000wqq77333474799wwwwwwwww07qq07w00qqww0eree899rtqrry0===+%#=",
"=#$+==*0tte0rr007rrw090q888w0333599qwqwwqwww9656q3344557qqwwww065q0000qq969442356599weeeeqqqq8652437w990www0rrw989rtqrry0*==+$#=",
"=@%+===9ttr0rrq07teq8ww9999w734453434570e36qq75973244579wwwwwwq9700w0q0006944336779qww9qe77543442336eq89wee00ee090trqett9===+%@=",
"=@$o&**0tte0tt000rr6690997ww54340322557ww67ww69673353566ww0qww7q0q9qqqwwq5847437688qqq9wq966332843349e669qeq6eew79erqwtt0**&o$@=",
"=#%O*==0tte0rrq9qerrqq74640943425533447qe8856687223555570wwww0698800wwwq979574136999709eq0443335124460666wrertte99weqwrt0==*O%#=",
"=@%+==-0ttewrr09wtreeeeee0809662433112qwq645968612264658wwww9979909000qq846433323580604eqq44355234600q0wteeeetrt89qreert0-==+%@=",
"=O#X*=-0tttrteq8rrrwewweeeewwweqwwqq338000144094244646460e0w4009q8079w00757534433584849wwq2290wwqwweeeeeeewreetr900rrrtt0-=*X#O=",
"=O+ &*=0rttttw00rrrqeeqwweeweewwwww0944wwq01468344455755wwqwq7w9ww6009qw0683334335553500q95w00wq0qqeeeeewweeeerrq00tttyr0=*& +O=",
"=O+.&*=0ttettw0qtrwq9qewe0eee9www60wq088qqq5384823495534qwwwqe9w09q0w0007763413262664w0w95wwww6wwq0eee6eeew0weeeqq0rrett0=*&.+O=",
"=O#o*--0terttwqqetwwq99qww0ww0qqw9w009w54qqw376465762545e0wwwe9q000q9000w37455345392qwq54qq5ww9qwe0wrwq0999qwwrrwwwrrret0--*o#O=",
"=o#O=-=9yrytt0q0rewq98808867557766695900330w93w469363534wwwweqwwwqqqqqwq927334651955ww5299759767777956877900ewrrr9wwrtet9=-=O#o=",
"=o$+===0yrtte00qrewwwwq080888886475237qq727we43839533544qwwqqqqwqww0q9qq72644593653qq9266q9526667568966890wrrertt9qqttrt0===+$o=",
"=#&o*==qytttq090weeeewrrewq967766646334q5740e04643744447www0wwww0w0wwqq963923824727ww255961589988776880weeererrre0q9ttrrq==*o&#=",
"=#$X==*0rytt9q90reeeeeeeerrrww08645555369555ew5274493636wwqqw0wwwq0q0qq05194053542wq5576636965657qqqreewwwrrretee9wwwrrr0*==X$#=",
"=#%o=*=0ttrw0w90eeeeweerrwwewwwwqq05545169948ew363366636eewqqqqww0qqqw0w8378833627w03778367868qewwwwweeeeerreeere9qqqttr0=*=o%#=",
"=#*O*=*qttt0008wrerrrwrreweeeewwww0qq85439695qw426324937qqwqewwww0w9wqqq82q9438540055466359wwwwwwwwqwwwrrrrrrrrtr9ww0tttq*=*O*#=",
"=#&o*==0tte9088errrwwrrweeeqqqqqqqqq0w854796650022421036wwewewwqqwwwqwww839546947q93457376eqrwwwwwwwwwwwereeeerrr90qqett0==*o&#=",
"=#$X&**0ttw0009weeee0eerewwwwww0qqwwwww55586530w4<813537wwwwwqqqw00qqqqq62934854w033366660wweweqqq00qqqeereeeetrr990qqyy0**&X$#=",
"=+@.%*&qytt9998qteeeqerrwwwqqqwwwwqeeqqq4455333w01442436eewweewwwqw00www6275552qe66488669wwwqwqwqwqq0qqwwrrrerrrr0000ettq&*%.@+=",
"=O#o&&*0ttrw799qrrreweewqewwqww0q0wqqwqq7325333500154537reewewqqww009qqq6375737qw3447666ewwwww0wqq0w0wwwereeqttte8q9qryt0*&&o#O=",
"=@%@-=*0ttte6999eteeeeeeqqqwwqwwwqeqee0w0333523400335939wwwqqww00w00qq90526643qq7455565ewwqq9q0wwww0qeweqrterrrrq999ertt0*=-@%@=",
"=$&#=;-qttttw889rrr9eweqeqw9wwew9qqqw0w0q82<46236wq14666ewwqewwqqqwq900q735227q94568778eqq000qqqqwwwwwwwqrer0ett079wrtttq-;=#&$=",
"=%%o=--qtttttrq9ree5ewqwwewweew8wqwww00qqq51153129q43649wwwww0wqqqqqqwq0724330w5466466qqqw000q009qqwwwwrewee8qee00rrtrttq--=o%%=",
"=%%X*=-qyttttrrwttwwww50wewwee98wqqwew0qwqq4436214003649wwwww554634300qq93649004565550wqq0wqqq0qw8qwqwwrr7etqqeeeertttttq-=*X%%=",
"=%%X**=qytttrrrrrqqq000we4wrre5wwwqqwwwwww00225443w05556wewww66ww056qqq074640w7356668qe0qwww000wq79qwe5eeqwwqqqterertrttq=**X%%=",
"=#%@=--qtyyrrtrrreewqqqwq5eweqweww8wwewqqqqw7235518q0448eeerrw4qq840qq008557w0369456www0wwwww0wwww8qqw50wwwwwrrrrtrretttq--=@%#=",
"=#%@=--qtttttteeeeeeewrerwrw47www6wwwwweew0w041453400547wwwreew3q2ww0qqq936ww646565wwwwww0wwqw6www030eqewwrrrrrrrrrrrrttq--=@%#=",
"=#$X&==qyyttttreeewwwwrwwwqq50qww7qq0wwqwqqq001144370957wqqwwww6000w0w00039ww469456qew00qqw0eq8wwwq69qqwweeerrrrrrrrttttq==&X$#=",
"=#@o*=-qtytttterwwwewwerreerqq03qw7770qwqqwwww5326459056qww0qwqq2wqqqqwq03qq946455ewqqw0www088wq5qeqwwwwqeeeeeeetttrrrryq-=*o@#=",
"=@#o*--qttttttrrrrwreeeewwwewqw52wwq9990wwwww0q942839q75000wqqqe50w0www095we5755wqqwwwwqw999qqw5500qqqqewwwwerrrrrrrrtttq--*o#@=",
"=+#X*--qytyttrrrrwwrrrrrweeeeww943ee6689qwwwww0943747qq79wq0055635668wqq6ww078455qqq00qq9098qw63wwwqeqwwwweweeeterrrrttyq--*X#+=",
"=@#X*--qytttttterrrrrreeeeewwwww043ww7990e0qqq0753894q00qq0ww0w04q00qqqeqqe779446qqq0900070qq53wqqqwwwwweerrrrrrrrrttttyq--*X#@=",
"=@@X*--qyyttttteeerreeeeee0w00www744wweq9qq9wwwq558858w9qq0qqwwe4qqqqwewwww88064700069q900ew637ewwwwwqeweeeertttrrrrrryyq--*X@@=",
"=#$X*--qyyyyrrrrreereeewww08w00000666680eww880ww668860www0qqqqw04wqqqwqeeew678448qq959qqw807699rqwwqwwwwwwrrrrrrrrrrttttq--*X$#=",
"=#%O=--qyytttrrrerrreeeee008qqqwww9w977469q999ww88894600006999964678696eqwq456457w0860066600w9ewwwww00wqewrwrrrrrrrrrtttq--=O%#=",
"=$$O=;;qyyytrrrreeewwewww096088qqww09997860898q956772490qwwwweqw4eewewweq07236666ww86w8690qqqwwww00ww9wwwqweerrrrrrrttttq;;=O$$=",
"=$%O=-;qyttttrrreeeeeqw9w99ww799eeeq9998669989997555138qqwwwwwww3wwqwwwwqq7365469ww88w98q009qeeww00qq00w0wwwwrerrtrtttttq;-=O%$=",
"=$&+==-qtttttttreewwwww8q0w078899rrw0877869060q07565247qqww0wwww4wqqeeqw00666567w0w77q00090qwww099880qqq0wwweeeertttttttq-==+&$=",
"=#%@---qtttttrrteerwwew099ew8809wwwwqq98869999qq7547358qw0qqq0wq5wwwwwwwww657666qww7709999weqeqw00079wq0wwwwwwrettttttttq---@%#=",
"=$%@;;-qttttttttrrewwwwww00w968qwwreqe98660860000657460qqqq00wwq4wwwwwwwwq0686670ww89q0090eqreewq967eq9wwweeeeeetttttttyq-;;@%$=",
"=#$+-;;qttttttreeeewwew9qe9e069ewwewwwew990059qq7580660wwwqq80w03wwqwwwwww960877qqq88w99wweqewwwwq67e0qwqwwwwwrrrrttttyyq;;-+$#=",
"=#%+=:;qtttttttteeereqw950ww59wwwqwwwre097q857qq7557770e0ww0qqwwwwqqewwweq860877ww077eq6qwwrrr0qww950w08qewwwerrrtttttyyq;:=+%#=",
"=$%O=;-qttytttterreeewq999q9qweqwwwwweeq0qw7770w7758660wqqww00w0wwwweeewrq750645ww8568w0qewewww00qw099900qweeerrrtttttttq-;=O%$=",
"=#%O=-=qttyytttttrerweweeeeeew0qwwwwweewq654697w865866qeeqqwqqw0wwwwwerwwq588657ww86335qwwwewww0090ewwwweeeerrrttyyyyyyyq=-=O%#=",
"=#%O===qtyytttttttrreeeeeeerr0qqwwwewwew3336998q6688679wwewwwqwqqqwwwewwwq559666ww9755450wwwwwqqq99qeeeeeeerrrttttttyyyyq===O%#=",
"=+$o**=qttyyyttttrrrrrqqwwwwq0qqweewrw0547798880766966qewqwqwwqqweeeweeewq689778ww99999540ewwww00q800ewwwwwrrrrttyytyyyyq=**o$+=",
"=O@.&*&0yyytttttrrttewwwtrreewwwqwweewqww000q800868999qeeqwwweeqwrreeeewwq76q997wqq99990008wwww099qeereeewwerrttttttyyyy0&*&.@O=",
"=++.%&&0ttytttttttrrrrrrreeeeeqqwweeewwrw9qw0qqqqq9000wwwwewweqreqeweeeeww90w990wwww0790ww0wwwwwqeweettereeerrrttyyyyyyy0&&%.++=",
"=O#X&&*qyyytttttttttrrttterewqwweqwwterereeerwww00wrw999ww66665ee67783ee099we0qqqwwww00www0www9qwwwwerttrttrrerrtyyyyyyyq*&&X#O=",
"=O#+=*=qyttttttttttrrrtterewwq09999qw0q00ww08886550ww577wr66q95qw500w6ee675qq95767988007889808909000wetrrtreeeertyyyyyyyq=*=+#O=",
"=$%O===qyytttt3<,,>;;;-;;;-==-:<688008868886666666weq668qe48q950q7w965we886qwq5657655655666789891,>>:;;--:;;===:<tttyyyyq===O%$=",
"=%*O-;-qyytttt:--:,:;;;;---;;==:39q999878886667756wwq569ww55qw59q607440w9660w065865555566798999>;-:,:;;;;;==;;-->2ttyyyyq-;-O*%=",
"=@#o--=qyytttt;;-;,:;;;========:,00009998966666867wr9588qw40w660w508539w9779rq9457756666889900q>---,>::;-====--=:,tyyyyyq=--o#@=",
"=o@o***0yyyyy:>;==>==;;=-===-===;60q00986886757779ww0589ww5906500468849q8869r00668688995577800w::==::==:--===;=--;4yyyyy0***o@o=",
"=+@.%*&0yyyyt>,:-;<32<62:>::-===-2qq0009777966666qqw7699ww560640055q937w9996eqw66667775568890q,,>;;><3<44>>>>:==;;1tyyyy0&*%.@+=",
"=@@.%&%0yyyy<,>;;>224151>,>,-====:00qq99966886666eqw6689w96we848069q846w9986eww8559786666880qq>>:;>>44243>>::,-=-;:7yyyy0%&%.@@=",
"=+@.&&&0yyyy:>;-;:22411,:>><--====3wqqq9999999756eee5678e7qe9657059q866eq005wee86800088679900<::--::3331<>>>><;=---2yyyy0&&&.@+=",
"=+#X&**0yyy3;:;=--2231<>>::<-;====:wqqq9999098860ewr7778e898q6570580656eq008tqrew0097009780qw::;--;;333<<>:>><;;--;>yyyy0**&X#+=",
"=@@X%**0yyy,:;--;;2qtrreee8>=-====*4qqq999009997qe8tw860e977q8600666555ww00wt7tt08888009990q2::--;;:3qrrreee9,--=-::3yyy0**%X@@=",
"=$@o&**qyyy>:-=-::,1321111,;-======,wq0998090009qr6wt78qt7668760w567995wr87ee6tr8999990890qq<:;=-;;:>1311111,;----::,yyyq**&o@$=",
"=%%O***qyy4:--=;;;;;,;;------=-=*==-9007899900000tq7t99rw60w0860e77wq859r00t88t99900790099q9>;-=-;;;;::-;;;-------;>,7uuq***O%%=",
"=$*#===quu,;==-;;;;;>;-------===*===2wwwwe9099999er7er0rq7qrr96qw89q7668twer6wt79999900wwww3;-=-;;;;;>:---------;-;>,2uuq===#*$=",
"=$&#*=-wu8,;---;;---:;;-======--*===:ttttttrrrrrett0eyqt070ww97qw8999978tqyw8etwwweerrttttt<;-=-;;;;-:;---====--:;;:,10uq--*#&$=",
"=##+=-;wq3:===------;;;-===;==:;===--5qqqqq000000q000000qq09000000090q00q00qqqqqqqqqqqqqww7,-==-;;---;---===;==-:;;:,<4ww--=+##=",
"=+@O------------============---------=*======-=========-==*=*=--==-===*=*=*&**---=--=-------;;---;;-===&&*==-=*&%&*****==---O@+=",
"=+$+=---=------;===-=========--;--;--========-======----====*===**--===*==**&=;-=*--==------;-=-;;:;-=**&&*=;-**&&****===--=+$+=",
"=@&+=====-==-=-===*&&&***=====-=--====*===***==*=======*====&*=*&&*==*==**&%&-==**==&******====-;-====*&%&==--*%%&&%&*=*=-==+&@=",
"=#$OOOOOO++O++++OOOooOoXoO+OOO++++@+OOOOOoooOOo.o++OOOOO++++oO+X .oO+oXoOoX.o@#oXX@@XooXXXXOOO+@@++OOOo..X+OOoo...XXoO##+O++O$#=",
"=#$$#$#######$$$$##@@####$%%%$$&**%$$$$$#######++#$####$%%$%$%%#++##$&$%*&$@#%&%%%%%$@###@$%$%&%%$%%%%$@+##%*#@@@@#@@%*&#@$&$$#=",
"=@#######$####$###OOOO+@@@##%%$#%$#@#@##@+@@@@OO+@@@++#####@@#@OOOOoo######+O@$%%%####@+@@##$$$#$##$##+O+OO$%@o+@++@$%$$#++@##@=",
"================================================================================================================================"
};
