/* XPM */
static char *_508533447808[] = {
/* columns rows colors chars-per-pixel */
"128 128 36 1 ",
"  c #EFEFEF",
". c #E7E7E7",
"X c #DFDFDF",
"o c gray86",
"O c LightGray",
"+ c #CBCBCB",
"@ c gray78",
"# c gray75",
"$ c #B7B7B7",
"% c gray70",
"& c gray67",
"* c #A7A7A7",
"= c #9F9F9F",
"- c #979797",
"; c #939393",
": c #8B8B8B",
"> c #838383",
", c gray50",
"< c #777777",
"1 c #6F6F6F",
"2 c gray42",
"3 c gray39",
"4 c #5B5B5B",
"5 c gray34",
"6 c gray31",
"7 c #4B4B4B",
"8 c gray28",
"9 c #434343",
"0 c gray23",
"q c #373737",
"w c #2F2F2F",
"e c #272727",
"r c #232323",
"t c #1B1B1B",
"y c #131313",
"u c #0B0B0B",
/* pixels */
"================================================================================================================================",
"=########$####$###OOOO+@@@##%%$#%$#@#@##@+@@@@OO+@@@++#####@@#@OOOOoo######+O@$%%%####@+@@##$$$#$##$##+O+OO$%@o+@++@$%$$#++@###=",
"=#$$#$#######$$$$##@@####$%%%$$&**%$$$$$#######++#$####$%%$%$%%#++##$&$%*&$@#%&%%%%%$@###@$%$%&%%$%%%%$@+##%*#@@@@#@@%*&#@$&$$#=",
"=#$OOOOOO++O++++OOOooOoXoO+OOO++++@+OOOOOoooOOo.o++OOOOO++++oO+X .oO+oXoOoX.o@#oXX@@XooXXXXOOO+@@++OOOo..X+OOoo...XXoO##+O++O$#=",
"=#$O=====-==-=-===*&&&***=====-=--====*===***==*=======*====&*=*&&*==*==**&%&-==**==&******====-;-====*&%&==--*%%&&%&*=*=-==O$#=",
"=##O----=------;===-=========--;--;--========-======----====*===**--===*==**&=;-=*--==------;-=-;;:;-=**&&*=;-**&&****===---O##=",
"=#$O=-=---------============---------=*======-=========-==*=*=--==-===*=*=*&**---=--=-------;;---;;-===&&*==-=*&%&*****===-=O$#=",
"=##O=::qq4<,:;;:--=;===---;----;-===,7eeeeeeeeeeeewwwwwwwwwwwwwwwwwwwwwwwwwwwwwwwwwwwweeee5--===;:*=;===---;------===:3ew::-O##=",
"=##O=;:qy01,::;:--====---;:--;;;-==;<yyyyyyyyyyyyyyyyytyyyyyyyyyyyytyyyyyyyyyyytreeryyeeyyy:====--======--;:---;;----,8uw>:-O##=",
"=$#+;;:qyy2,::-;---------:>--;;;-=-;3ttttttyyyyyyyyyyttttttttttyttttttttttytyyytttttyr8ettt2===*===-------;>;;;;;-==;,yuw>:;+#$=",
"=##+=;:qyy7,>;-------;;;->:::-;;==;>9ttttttttttyttttttttrttyttttttttttttttttttttttttytttttt9--=*=-=-------;,;;;;;=--:4yyq::=+##=",
"=##O=;;qyyy,::----=---;;;>:::;;;=;:<rrrrtttttttttttttterrrttttttttttttttttttttrttttttttttttt,*=====----;;;:>:>::-=-::yyuq:;=O##=",
"=##+--;qyyy3::----==-=-;;<<<:;;;-::2tttreqwwtttettrrrrrrrttrtttttrrrtttttttttrrrrrrttttttttt4*====-====--:><,>;;---:,yyyq:;;+##=",
"=#$+=-;qyyyy>;;--;;32<62:>:,-;--;::ttttrtttttteweeeerrrrrrrrrrtrrrrrtetttewerrrreettttwettttt:====;;;3<44>>>>>---;::3yuuq;;=+$#=",
"=$$+---0yyyy2----;,24151>,>2;:--::<tttrrrtrrrrrqeweeerrrrrrrrrrrrt9rteerreeeeeeeerttttqerrtrt3====--,4243>>::1:;-;>:yyyyq;;-+$$=",
"=#$+=;;0yyyy7:;;=-12411,:>>5>>;:,>tttrrreerreee0wewwwqqqqqerrrrre8qetwwewqeewqqqqrttrt0ttrrer0:=====<431<>>>>3>;;>,,yyyy0;;=+$#=",
"=#$O===9yrrtt1;;==1231<>>::3>;;>,,rrrreeeweeree8qqweeeewwwqqqqtr98ewrrrwwwqqqqq99tttrr9rt9eeee2-===-133<<>:>>4;;:,>yyyyy9===O$#=",
"=##O===0tyyyy4;;-=<8eeeere8<:==::eerrrwweeeeeee78eqrreewwwwewww76ewwwww0wwwqqq99qtrtrrqr80qwwe6;===->8eeeeee82==;>:yyyyy0===O##=",
"=O#O*==0yyyttt,:=-;,<<<<111,,--->rteeewreeeewee44wwwrweweeeerr86wweeeeww0qqwq090eerrtwwwwww0qww,:===;,<<<1211<;-;;yyyyyy0==*O#O=",
"=O@o&-=0yyyrrt2>---;---;;;;:,:-;>errrrwweeeeee990wqqeewwwweew68wqqetwwwq00qqq999ererreweww00qqw3:==-;---;;;;:,:--:yyyyyy0=-&o@O=",
"=O@o&==0yyetyty<:---;;;;--;:,>>1eeerrqqqewewwr9weww0qeeweww4490909eeqwqe0999000we645rqqq80970006<:-===;;;--:;>>,<3yyytty0==&o@O=",
"=O#O&==0yrtyytyyyytttttttrrettrrrrrerq653369ww0ewwew99ww0659q00009erwqqq999999www070e099978689wwwwrttttttttttttyytq9ttty0==&O#O=",
"=+#o*==0yyyyyyyttttteettterrrtrrrrrw76wwwq9qewqe63ww9qwe00qq099009e0897068999wwwq970eqq0999690w9qwttrrrtrrrrttrwwrretttt0==*o#+=",
"=@#X*==0yyyyyyytttw90qeqrretrrerw767q0wqwqeqw6qq850w0wwww00900000qw999997799ewww9869w9q9q088009qwereerretttq00qwrtywttty0==*X#@=",
"=@#o*==0yyyyyytt099qqw0eeewtrre069wrwq8ewqeqq57q0ew99eew098990qq80qqq86558qrwew06769960699000qweeeeeeeeew970qwerrtyqyytt0==*o#@=",
"=@$O===0yyyyyr089qwqq0rrreqreee0ew6958w0eewewq44qqw00we0897978868666466qwwwweewwwq00060wwwwwwwwwwweweq6679q0wwwwwttqtttt0===O$@=",
"=#%+===0yyyt000ww00077eee98rrrwe077078000eewee86w68w9qqewwwwwe0ww0qqwwwwweeewwweewqw950w0qqqwwwqqwe9445900900qqwettwetty0===+%#=",
"=#%O===0yr080wqqq0866www650eeerrww8766806wwwwwe6w06wqewweeeeeweeqeeweewwqwwwwwwrwwww75wwwwqqeqww72556800899990wwwrteettt0===O%#=",
"=%%O==-00qwww000979eeeeweeereeeer007757969wwwewwew9qqwewwweeewwew994334444669qqwwwqq89ewwwwwew64468588880889999qqetrqrrt0-==O%%=",
"=%$O=--qreqqqq96qeerweeeeereerrrwwq7457956qqqwweqq7qeewwweeewwww0wq00wwq96444344446056q70897559765666779978870erttte0tttq--=O$%=",
"=$$+---qeww009wrrrrrrwwwwrrrreeww0085688558qwwwwwq5wq466699wwwwwqqqqqqqqrwwwq773422337345336906444667478890weerrtttt9rrtq---+$$=",
"=#&+=;-0wq0qerrrrrrrww699666wwwwww0856699770wwqwww8qq6795443qqqw0000qqqewreweeewwq95463335566555535336wwwrerrrtttttt7rty0-;=+&#=",
"=%*+---qwwtrrrrerrreq66855577weeee0066wqqqqqqwwwee9qr8q95786qwqqwqq0wwqweeewwweeeqqq10ww0ww0997799qwwwwwwew8errrrttt7rttq---+*%=",
"=$*+---qytttrrreteer634464553qeqqqe770q000ww99weteqqwwq74778qqqqqw000w954444434qw0001q0qwqqwqqqwqqwwqqwee53444werrrt9wtyq---+*$=",
"=#%@=;-qyyyytttrrrww0wqqqwwe72eeewqqq99000w9qqewrrrq04433322999ww0w9wwq463445457qqw03041233349wqqwqwwqqe55355557tttt0wttq-;=@%#=",
"=@$+=--0ytttttrwrrrwq6895577eeqwwwqqqqqqqw556wwwrrr9ww6333336q0wwqw0qe0773557336qqq05w42111145qqwqqqqwwwwww968960rrrqeyy0--=+$@=",
"=#$O=--0yyyr66wwwww8w06e57w44qwwwqqqq0q0wq678wwerrw8rreewwrqqq0wwqw0qq9833323332wwq79q52121256qqw00qwwww447qeq888trrwwty0--=O$#=",
"=@$O===qyye6677ewww99e985wq569ewqww900580w909wwwwww60rq98690ewwwwqq00q86538q9qwwwqq60q52111222w0qqwwwww645446eew0errrwttq===O$@=",
"=#$O*=*0yt79966qrwww0wr77q737086wqqww446009wweqwwww78w6e5377wwrwwqqqqq59q537445700w6ww996334440wwwq9qqq88665690ewrrrrwyy0*=*O$#=",
"=#$O===0y8886680reww09e00e759wq5qw0w8135ww0wweeeqqq86w40445qqwewewqqq855887464220w08wq70q9000qqwq768ww956444777qqerrrqyy0===O$#=",
"=@#O===0r7088999wwer00eq9w45qwe9ee923846qqwwweeweew0708w56qqqqwqww0w00q862997w580wq6w0078w70qqww6799we6664444qqwwerrtwyt0===O#@=",
"=+#o===0tww00w99qerer9ew9e5wwwqqwww61708qwewwwwwqw0w600q37eqqqwwqw0099900944q059q0w8w96w7qqqwww85749eq676443qwqqerrrrrtt0===o#+=",
"=@#o*==qttwweq000rrrr0eqw96w9qq7w9qq62qqwqewwq00ww0w78993qqqqw00w896743459934q65wqqqe85090w977697538ww79534q88w0eerrrrttq==*o#@=",
"=@#o*==0wer0qe080eeerrrre90wqew0086wq8qwwwwwww080wwq7qe77eqqw9q097665555337w79w7wqq9q959004133667338ew8933966qq0errrtttt0==*o#@=",
"=@#O*==0wwqeqwe00wrrrerrrwweqww000069qwwweqeqw888wwwwq00wqwww000077855455550w0q9www0wq5q053222337737www5469668errrrttttt0==*O#@=",
"=@#O=--0qqqqe0ew0werw89888qqqew086q76wwwwwwe9qe750qeeq8qqwwwwqwq8778997555478ww00wwww00ww33243354879qqww7w75wrrerrtrtttt0--=O#@=",
"=O#o===0w9wwreerqrrw97444456qw0009q8qwwwwww00qq97www7500eqqqw0w088569qqqqq678qewwwwwwwww043333335678qqwwwreeerrtrrtttttt0===o#O=",
"=O+.*==00qwttr0rerrq9543533500w09999qeeeqqqq88ww0w844609wqwqw0006474660wqqq667eqwqqqqqq66993444459q0wwwweeeteeerrrtttttt0==*.+O=",
"=++o===00000ttqqweeeq6454458ew0q9qqqewweeew9099998q6779wwweww00853655000w7qq080w070wqe96670863366708wqqwqerwwrwrertttttt0===o++=",
"=@#+===qww966eq9www7ww55445wwwq99wweweewqqw0q03644ww778w0weqq238633306600e98ww7www0w0ww0756666599q00079rwwtw0wwwrrtttttrq===+#@=",
"=@$+===0wwtr00w0ww44360088qeqqw99wwwewq0000q5223658q89ewwww0w335523666697eww90qqq000eew0077778886w0w934466q0789wwerttttw0===+$@=",
"=@#O===0eeerrqe8qw4333369q86ee00eqww0099qq533123570w0ewewwwqww6121143558qwweq7wqqwq0wwq700660668w080w9784434338eerrtwwtt0===O#@=",
"=+#O=-=0rrrrrerreq5443333335q85eeqqqqq9733552588qqweeqeeqqwq0783321322460eq0qq96e690qww679q9q6900w000w086670qwwwwwtrertt0=-=O#+=",
"=+#O=-=0rttttrrrrr4433342339wwwwwwe00053<38644987weewq9wwwwqw636683225070eww79w0w077wqw976qqq0www90w69w7459q9wweqetttttr0=-=O#+=",
"=##O=-=0ttttrtrrre0977333439qw07wwee0531133560090eeeww9ww0qq7923<3900q9350wq94700078qeqq9wwwww00w6qq678w0800weewwrrtttty0=-=O##=",
"=#$O*--0yttttrww09w9633344239q88eewq644513506700qeweww8wwwww66772269w999w0q05731677869weqwww0wwwewe96638wweeewwweertttty0--*O$#=",
"=#%+===qttttterw90w969w645335700eeq756360077q00qqqq0ww70qqe0q6757548w77ww009655224448eewqqwwwww00qwe08359weeereweetttterq===+%#=",
"=#%+===0tttrrttw0qeq88996006980qeew33867q8790w0wqqqqw060wwww85337790049qqq08693667998wwwwwwqw00qqqqq0q668qwqeeeerrrttrtt0===+%#=",
"=#$+==*0ttttrrreqee907676079999weww07889900wwqwqw008wq76qqww9744350600qq00w7967658ww9eeeeqqqqqqq9977qw7799w0wrwweertttrt0*==+$#=",
"=@%+===9tte0rrteetwwww95973700weeqew97q7eqqqqwww009800q7wwww777746qq8q00qqq889756974qeeqq790wwqq75670w99669wwwwwrrrrterr9===+%@=",
"=@$o&**0ttteqqrtteewqqe00wwqqqqwwwqqq8wwwwwwwqw0q99090q5ww0qq669600qqqwwwq078977690qqwww0000526009960e89w79ww9weeeertttt0**&o$@=",
"=#%O*==0tttrr0ttrwwq999qq0qqeqwqwwwqqqqqeq00q0ww099qw0w60www977790w0ww063ww08q7790ee0qww999qq83q9998qw96689qqqerrrrrrrtt0==*O%#=",
"=@%+==-0ttttttrrrrwqqqwwwwqweqwqe0q000wwqqqq99qw089wwww8wwww9779qqqq9996323q97077899weqw9q99ww9qqq899q9994870wwteeertttt0-==+%@=",
"=O#X*=-0ttttttrrrrewqqqeeqee00wwwwqwww9000000wq0qeww0ww88e0w0w00q90w7q899923qw99899qewqqq068899wqwq0900008ww0qrrrrrrrrtt0-=*X#O=",
"=O+ &*=0tttttrrrrrrewwwwwwwwqwqqqww0999wqqqqqqqweeewwww00eqwqqw0ww00799970023wq996990qq9808778qq0qqq9q088rw7wwrrrrrtttyt0=*& +O=",
"=O+.&*=0tttttttttrrrwweweweeeewwwqqqq0qqqqqqqwwwqwweewq99wwwqeqw00w0w0779w6630000700ww0w9986900wwqeq0w89ww99wrrrrrrrrtty0=*&.+O=",
"=O#o*--0yyyttttteteeeeerrrqwwwwwwww0wqw00qqwwwwwweww0ww000wwwe000w000088w098www9qq00wq23qq6490wqqee9qq08990weerrrttrtttt0--*o#O=",
"=o#O=-=9yyyttttereewwwwreeqewwwwqwqw0w00ww0wwqeeww9www009wwwe978wwww9qq9090wqww00qwqw34qq9q69qwwwwwq0wq0qqeerwrrrrrrrttt9=-=O#o=",
"=o$+===0yytttttrw0wwwweeerwwewwwwww0wqwwwqe790qwww96wwwq8ww932898ww0q9qqq00eeweww0wq0wqq38w00wqerwwwewwwwwrrrertrrrtteer0===+$o=",
"=#&o*==qyyytttrq6090wqee780r0009qq0wqqqwqee00wwww0059qweqww95435130wwqq99qwqqqqwqqwww0q8768qeeeeeeewwwwweeererrrrttrtrq0q==*o&#=",
"=#$X==*0tyttttreww055666qeqw00qqwqqwwwwwwqqqwwqqw009559www063645900q0q0000wwqwwqqqwqqww9qqqeqqwqwewqeeewwwrrreterrttr9we0*==X$#=",
"=#%o=*=0ytrrrrreew0q0qqew00e09qwqqw00009qeeqwwwww000889we5882688w0qqqw0wwq0qqwqqqqw00www70wwwwwewww00090weeeeeerrrrqtwwt0=*=o%#=",
"=#*O*=*qtrtrrrrrrewqqqqw0weew00qww0qq000qwwewqwqq0q8667eq999e08589w569955347ww979000w00090wwwwww06790qqeqwerrrrtrrterrytq*=*O*#=",
"=#&o*==0ttrrrerrrrw990w0eeeqqq99wqqq0wqqqeewew07q99q9q9wwww0079449w958634448ww9q770qqqqq9qeqrwwww975787799eeqerrrrrrrrrr0==*o&#=",
"=#$X&**0ttrrrrrreee0000eewwwwww0qqwwwwwwwww0qqq869q9q0wewww08585560077954569qqq9q00000w000wweqeq88655559w0ereetrrrrrrrwt0**&X$#=",
"=+@.%*&qytttrrrrree000wrwww00qwwwwqeeqqwwww9907083q9q00wwqw99973525090w008999qqqwqwqwwewwwwwqwqwqq7767700errrererttrreerq&*%.@+=",
"=O#o&&*0ttrtrrrtrrreeeeweew0qww0q0wqqwqqqq996q7295809wwwr0ewq522334q9qqq9900qqwqe9qqqwwwewwwww0wqq796799erqqewtttttttrre0*&&o#O=",
"=@%@-=*0ttrrrrreeeeeeeeewqqqw86wwqeqee0w0qq660q8850q9wwrw0qqq4366w00qq900qq0wwqqwwwqqwwwww00000w0wq7700qerrwrwrrrrrttet90*=-@%@=",
"=$&#=;-qttttrrrrreeeeweqwqwqq9wwqqqqw0w0q9q7q97w79q000wwe09qq957w79q90000qq90qqqwwwweeqq8q0078q07wwwq80werertetteetrrtreq-;=#&$=",
"=%%o=--qttttterrrewqqqwwwewweqq0wqwww00qqqq086544480700www9ww880850wq865520999wqqwqqww99qw005083860wwwwreteeteeerewttrttq--=o%%=",
"=%%X*=-qyttttweettww0qwwwew0eq09qqqwew0qwq5808655150779qww8www6777q9969784608890wwwww0q000wq009677qwqwweqweeeeeeerrqetttq-=*X%%=",
"=%%X**=qytttreeereewwqweew0qew99wwqwwwwwww0079950q900597qe7www0090ww966678649wq0wweww0qqqww0q6696qq0weeq00rwerrrrrrrwwttq=**X%%=",
"=#%@=--qtyyeeteereeewwwwww08ww70wwwwwewqqqqq999789qq75599w9rrww889qqq66629660qqeeqwwwqq0wwwq99855085qwwq09eeerrrrtrrrtttq--=@%#=",
"=#%@=--qttteeeeweeeeewrer0q89e88wwwwwwweew0w865077q735467q9weee657ww0800660q95wwqwwwwqwww0wq906059q69ew099errrrrrrrrrtttq--=@%#=",
"=#$X&==qyyteeeeeeewwwwrww0888eq90wwqwwwqwqqq0090qq7665555099wwwwqqqw9w99q4qq88qewqwqew00qqww9660wq066qq089qerrrrrrrrttttq==&X$#=",
"=#@o*=-qttteeeerwwwewwere000770q9wwwqqqwqqwwww00997956555006qwqq80800qq907q800wqqqewqqw0wwwww090ew7770ww600eeeeetttrrrryq-=*o@#=",
"=@#o*--qtrrrrrrrerwreeeee99q077w9wwwwqqqwwwww0q9930665565886qqqe7600w99947w090wwqqqwwwwqwwwwwqww046665qe080werrrrrrrrtttq--*o#@=",
"=+#X*--qytteeeteeeerrrrrwww90678wwweqqqqqqewww00w04899774004wwqe099w096q4460w0ww99qq0qqqwwwqwww97885869ww8qweeeterrrrttyq--*X#+=",
"=@#X*--qyrrettrerrrrrreeeqq807770eqwwqewww0qqq0q000660067807qqwww080099ww645qqwqq00q0q0eeqwwqqq96667779weqerrrrrrrrttttyq--*X#@=",
"=@@X*--qyyrrtrreeerreeeeew8075889eeeeeewww0wwwwqqqww97080q079wwew8999weq90q540wq9800080qqqewwwww7998679weeeertttrrrrrryyq--*X@@=",
"=#$X*--qyytterrrreereeewwe0705557wwweewwewwqq0wwwqqqwwqqq9q99wwqq089wwqeq90q5200990009qqewreqrwe9896887qwwrrrrrrrrrrttttq--*X$#=",
"=#%O=--qyyrrrrrrerrreeeeeqqq07799wwrewewwqqqqqwwwwww00000wwq0eq8qqqqqw9eqw8886139q0000qqewewwwew99866567ewrwrrrrrrrrrtttq--=O%#=",
"=$$O=;;qyyyrerrreeewwewwww0006889weeeeeweqqqw0q00qqq8890qwwq7e079eqqeq0q0005580316wq0wwwwwreeeww0999qqwwwwweerrrrrrrttttq;;=O$$=",
"=$%O=-;qtttttrrreeeeeqwwwwwww909qeeweeewwwqqwq90w009699q99qq6wq90ww8w00089000550536qqwwweeeewweww09eqqqwwwwwwrerrtrtttttq;-=O%$=",
"=$&+==-qrwqrtttreewwwwwqwwwwwqqwwrrewwwwwwwwqwqqq0q9709099qq7ew9wwq0qq80888ww97807320qeeeeewwwwqq99w5248wwwweeeertttttttq-==+&$=",
"=#%@---qtteetrrteerwwewqqqeweqewrwwwweeeeqqqwqqqq09q8q00089q70wqewwwqq990009wqq8800429ewwweewwwwwew72574wwwwwwrettttttttq---@%#=",
"=$%@;;-qttttttttrrewwwwwwwwww06756wewrqqqqwqqw00wq000wq806607qwwwwwww00088w0wqqw880q035ewwewreewqew589770weeeeeetttttttyq-;;@%$=",
"=#$+-;;qttttttreeeewwewqwwwe669wweqqeweewwwwqwwqqqwwww89967q79wqqwwww00089qwwwwww9999w44weewwwwwwweqq900qwwwwwrrrrttttyyq;;-+$#=",
"=#%+=:;qtttttttteeerewewqwww8qqqwwwwwreqqqqqqqw99000w85w4550q9wwwwqqeq98qqeweewwwww990w746ereeee0wq0899qwewwwerrrtttttyyq;:=+%#=",
"=$%O=;-qttytttterreeeewwwerwr0wwwwww00ewwqeqqqww0qqqq0q8666wq9wqwwwweeew03ewewwq9ew0080qq43eeerw9eeq999qwwweeerrrtttttttq-;=O%$=",
"=#%O=-=qttyytttttrerweweeeeeeqqwwwww000ww0wwwe0qwqqqqqqq080wwqw0q8ewwqq5463wwwwew0wwq7799w646eew9www99qqeeeerrrttyyyyyyyq=-=O%#=",
"=#%O===qtyytttttttrreeeeeeerrwwwwwweq99www90ee00qwwww00990qqwqq690qww9460e0wwwwqqqwwwe9699w033ww77wwewqweeerrrttttttyyyyq===O%#=",
"=+$o**=qttyyyttttrrrrreerweeeewweeewr08qwwwwww00qqww09q98800ww990r0wweeewwweweeeq0wewwwq800qe440955eerrrrrerrrrttyytyyyyq=**o$+=",
"=O@.&*&0yyytttttrrttrrrrtrreeeeewwweeewweeeerqqqwweeww9907wwwee40rw0ewwwwwwwwqeew9ewqewww089qq44w0q00reeerrrrrttttttyyyy0&*&.@O=",
"=++.%&&0ttytttttttrrtttrreeewwwqwweeeewrrwwrww0qeeww408990ewwrwrewwqeqwewwwwe0qew0eeewwqww0000047ew0etterrrrrrrttyyyyyyy0&&%.++=",
"=O#X&&*qyyyttttttttttttttereeeqweqwwtererrrerwqeweee996580eeeweeewwwrwwqrwwwewweeweeewqwwwww09044wewrrttttttterrtyyyyyyyq*&&X#O=",
"=O#+=*=qyttttttttttttttrerrrwre7wwerterrrrrrwqwwweeee0q07eew0qeewwwweerrwrweeeweeereeeewwweweqew48eerrtrrtrrrrrrtyyyyytyq=*=+#O=",
"=$%O===qyytttt3<,,>;;;-;;;-==-:<6eetterrrrreeweerrreew0wweeq0rewwere9reeeeewewwwwrreeeeeeeweeewe1,>>:;;--:;;===:<tttteyyq===O%$=",
"=%*O-;-qyytttt:--:,:;;;;---;;==:3rrrrrrrrrreeeeeerreeq0weerqrrqqwewqwwwweqrw00qwreeeeewreerrrre>;-:,:;;;;;==;;-->2ttryyyq-;-O*%=",
"=@#o--=qyytttt;;-;,:;;;========:,rtttttttteeeeerrrrrwwweete0ttwweeeewwwweerrtrrrrrreeerrrerrtrr>---,>::;-====--=:,tteyyyq=--o#@=",
"=o@o***0yyyyy:>;==>==;;=-===-===;6rttw0eeteererrrrrereetttrwtteewwwwweewwrrrtrtttterrrreerrrtrr::==::==:--===;=--;4ytyyy0***o@o=",
"=+@.%*&0yyyyt>,:-;<32<62:>::-===-2ttrrrrrrrterrrrrrerrrrrrrttwerwrerrweeertrrrttttrrrrwrrrerrr,,>;;><3<44>>>>:==;;1tyyyy0&*%.@+=",
"=@@.%&%0yyyy<,>;;>224151>,>,-====:0rtttttrrrrrww0reerrrr0wrrrrwwetereeeeetttttrtrrtrrrrrrrette>>:;>>44243>>::,-=-;:7yyyy0%&%.@@=",
"=+@.&&&0yyyy:>;-;:22411,:>><--====3tttttttttttrrqqrrrrrqwrrerrrwrrrrrrrrtttrrttttttttweeerrrr<::--::3331<>>>><;=---2yyyy0&&&.@+=",
"=+#X&**0yyy3;:;=--2231<>>::<-;====:rrrtrrtttw0rrrwwrrrrwterrrrreerttrrrrrtttttttttttq9rrrrrrr::;--;;333<<>:>><;;--;>yyyy0**&X#+=",
"=@@X%**0yyy,:;--;;2qtrreee8>=-====*4rrtrttttt9ett00ttrrrrrrtttttetttrerrrttttttttttewtttrrrr2::--;;:3qrrreee9,--=-::3yyy0**%X@@=",
"=$@o&**qyyy>:-=-::,1321111,;-======,reerrrrrt00ww0qttrtttttttttrtrttrrrrtttttttttttrrtrrtttt<:;=-;;:>1311111,;----::,yyyq**&o@$=",
"=%%O***qyy4:--=;;;;;,;;------=-=*==-9etrrrtttrweretttttttttttttttetttrrrrtttttttttttttttttt9>;-=-;;;;::-;;;-------;>,7uuq***O%%=",
"=$*#===quu,;==-;;;;;>;-------===*===2ttttttytttttttttttteeryyytewwwrrrrtttttttttttttttttttt3;-=-;;;;;>:---------;-;>,2uuq===#*$=",
"=$&#*=-wu8,;---;;---:;;-======--*===:tttttyyyyyyyyyyyyttteetttttttttttttyyyyt0yyytyyyyttttt<;-=-;;;;-:;---====--:;;:,10uq--*#&$=",
"=##+=-;wq3:===------;;;-===;==:;===--5qqqqq000000q000000qq09000000090q00q00qqqqqqqqqqqqqww7,-==-;;---;---===;==-:;;:,<4ww--=+##=",
"=+@O------------============---------=*======-=========-==*=*=--==-===*=*=*&**---=--=-------;;---;;-===&&*==-=*&%&*****==---O@+=",
"=+$+=---=------;===-=========--;--;--========-======----====*===**--===*==**&=;-=*--==------;-=-;;:;-=**&&*=;-**&&****===--=+$+=",
"=@&+=====-==-=-===*&&&***=====-=--====*===***==*=======*====&*=*&&*==*==**&%&-==**==&******====-;-====*&%&==--*%%&&%&*=*=-==+&@=",
"=#$OOOOOO++O++++OOOooOoXoO+OOO++++@+OOOOOoooOOo.o++OOOOO++++oO+X .oO+oXoOoX.o@#oXX@@XooXXXXOOO+@@++OOOo..X+OOoo...XXoO##+O++O$#=",
"=#$$#$#######$$$$##@@####$%%%$$&**%$$$$$#######++#$####$%%$%$%%#++##$&$%*&$@#%&%%%%%$@###@$%$%&%%$%%%%$@+##%*#@@@@#@@%*&#@$&$$#=",
"=@#######$####$###OOOO+@@@##%%$#%$#@#@##@+@@@@OO+@@@++#####@@#@OOOOoo######+O@$%%%####@+@@##$$$#$##$##+O+OO$%@o+@++@$%$$#++@##@=",
"================================================================================================================================"
};
