/* XPM */
static char *_508533413665[] = {
/* columns rows colors chars-per-pixel */
"128 128 36 1 ",
"  c #EFEFEF",
". c #E7E7E7",
"X c #DFDFDF",
"o c gray86",
"O c LightGray",
"+ c #CBCBCB",
"@ c gray78",
"# c gray75",
"$ c #B7B7B7",
"% c gray70",
"& c gray67",
"* c #A7A7A7",
"= c #9F9F9F",
"- c #979797",
"; c #939393",
": c #8B8B8B",
"> c #838383",
", c gray50",
"< c #777777",
"1 c #6F6F6F",
"2 c gray42",
"3 c gray39",
"4 c #5B5B5B",
"5 c gray34",
"6 c gray31",
"7 c #4B4B4B",
"8 c gray28",
"9 c #434343",
"0 c gray23",
"q c #373737",
"w c #2F2F2F",
"e c #272727",
"r c #232323",
"t c #1B1B1B",
"y c #131313",
"u c #0B0B0B",
/* pixels */
"================================================================================================================================",
"=########$####$###OOOO+@@@##%%$#%$#@#@##@+@@@@OO+@@@++#####@@#@OOOOoo######+O@$%%%####@+@@##$$$#$##$##+O+OO$%@o+@++@$%$$#++@###=",
"=#$$#$#######$$$$##@@####$%%%$$&**%$$$$$#######++#$####$%%$%$%%#++##$&$%*&$@#%&%%%%%$@###@$%$%&%%$%%%%$@+##%*#@@@@#@@%*&#@$&$$#=",
"=#$OOOOOO++O++++OOOooOoXoO+OOO++++@+OOOOOoooOOo.o++OOOOO++++oO+X .oO+oXoOoX.o@#oXX@@XooXXXXOOO+@@++OOOo..X+OOoo...XXoO##+O++O$#=",
"=#$O=====-==-=-===*&&&***=====-=--====*===***==*=======*====&*=*&&*==*==**&%&-==**==&******====-;-====*&%&==--*%%&&%&*=*=-==O$#=",
"=##O----=------;===-=========--;--;--========-======----====*===**--===*==**&=;-=*--==------;-=-;;:;-=**&&*=;-**&&****===---O##=",
"=#$O=-=---------============---------=*======-=========-==*=*=--==-===*=*=*&**---=--=-------;;---;;-===&&*==-=*&%&*****===-=O$#=",
"=##O=::qq4<,:;;:--=;===---;----;-===,7eeeeeeeeeeeewwwwwwwwwwwwwwwwwwwwwwwwwwwwwwwwwwwweeee5--===;:*=;===---;------===:3ew::-O##=",
"=##O=;:qy01,::;:--====---;:--;;;-==;<yyyyyyyyyyyyyyyyytyyyyyyyrrrrrtyyyyyyyyyyyyyyyyyyyyyyy:====--======--;:---;;----,8uw>:-O##=",
"=$#+;;:qyy2,::-;---------:>--;;;-=-;3ttttttttttyyyyyyttttttttrrrrrwettttttytyyytttttyyttttt2===*===-------;>;;;;;-==;,yuw>:;+#$=",
"=##+=;:qyy7,>;-------;;;->:::-;;==;>9ttttttetttyttttttttrttteewwtwweertttteyttttttttytttttt9--=*=-=-------;,;;;;;=--:4yyq::=+##=",
"=##O=;;qyyy,::----=---;;;>:::;;;=;:<ttttettttttttttttterrrwwewqqtewwwwttttteettttttttttttttt,*=====----;;;:>:>::-=-::yyuq:;=O##=",
"=##+--;qyyy3::----==-=-;;<<<:;;;-::2ttttrrtwtttttrrrrrrrwwwww00etrqqwwwwwttttttttttttetttttt4*====-====--:><,>;;---:,yyyq:;;+##=",
"=#$+=-;qyyyy>;;--;;32<62:>:,-;--;::ttttrettetrrrrqwwwqqwwqqq00qrrrq0qqwwqq9wttttttttwertttttt:====;;;3<44>>>>>---;::3yuuq;;=+$#=",
"=$$+---0yytt2----;,24151>,>2;:--::<tttrrwwerrweq06880qqqqqqq99qe0rw9qqqqqqqq00wtttttrwweqtttr3====--,4243>>::1:;-;>:yyyyq;;-+$$=",
"=#$+=;;0yyyt7:;;=-12411,:>>5>>;:,>tttrrreerrre086999000000q998qe7qq80900000q0099qwrrrtttwtttt0:=====<431<>>>>3>;;>,,yyyy0;;=+$#=",
"=#$O===9yyyty1;;==1231<>>::3>;;>,,rrrreeewew00867779qq999q0097qw9qq8900000999999999wwtrrrryttt2-===-133<<>:>>4;;:,>yyyyy9===O$#=",
"=##O===0yyyyy4;;-=<8eeeere8<:==::ttrrrreeq888696686999q9986866qq8qw768880qq0999999qq7qqrtrrttt6;===->8eeeeee82==;>:yyyyy0===O##=",
"=O#O*==0yyyttt,:=-;,<<<<111,,--->tteerew68888880979909q99790990q7qq99qq9990q00898807q97qwetrrrr,:===;,<<<1211<;-;;yyyyyy0==*O#O=",
"=O@o&-=0yytttt2>---;---;;;;:,:-;>rttrw9q5696864990008880wwee079q8w00qtrwww099888807807996qwwrrr3:==-;---;;;;:,:--:yyyyyy0=-&o@O=",
"=O@o&==0yyttttt<:===;;;;--;:,>>1eeqqq649959569559589wwwweqqww058qq80wewweerw0086997006086w659ee6<:-===;;;--:;>>,<3trtttt0==&o@O=",
"=O#O&==0yytyytyyttttttttttttrrrrreq677459495664890eewwwwww000qw807wrqqqqqweeeew999690796004567qettttrrttttttttttttttttty0==&O#O=",
"=+#o*==0yyytttttttttrrrrrrrreeeeq77677380684886ewweeeeeeqqqqq9eeqqe00w0wwweeeeeeee9906088w457578wttreeereeeerrrrtttttttt0==*o#+=",
"=@#X*==0yyyyyyyttttttrrrrrrrerw9566566497695w0ewwewwwewwwww0qqqw8qe9990qwwrrrwwwwwwqq9796q73566778reeeeerrrrrtttttytttty0==*X#@=",
"=@#o*==0yyyyyyttttttrttrrtrtrw667556568660eqewewwewwwq7664455555345544444760wrweeeewqqwq74864555666eeeerrrrrttttttyttttt0==*o#@=",
"=@$O===0yyyyttttttttrrrreeerq66666655558eeweweweqwwwww9448807797076668674469ewqwwwwwwwwwwq4655544655qweeeeeettttttttyyyy0===O$@=",
"=#%+===0yyyyyyyyrrrrweeeeee85866444757qewweweeewqq9070qw8qwwwwweweeqw0qe6qee880qwq0w0w0w0qq64673336556wwereeetttttttttty0===+%#=",
"=#%O===0yyyyttttrrrewwwweq55677555500wwwwwwwwwwq00788wwwq70775655qw857999www558q000wqqwwwwqqw9953245666eeeeeeetttttttttt0===O%#=",
"=%%O==-0yyyttrrrreeeeeew8568865556wweqqwwwwwww0909659weww99086ww0qwq4700wwew06678899wwwwwwwweew822337866weeerrrttttttttt0-==O%%=",
"=%$O=--qytttttrrreerwww7767789659rwwqqqwqq9qq90q7556eeqwww09990w0wq0070wee0qe6668000qqw0wweeewww9136677979rrerttttttttttq--=O$%=",
"=$$+---qyyyrrrrrrrrrrw669990055wwwwwwww0879qqqew7559qeeeww094q600780760wrwwwe0656qqw8ew0wwwweewqqq336668996eeerrtttttrrtq---+$$=",
"=#&+=;-0tttewwqwrrrrwq99999975wwwwwqqqq07800wwqw6570qwweeew044665554480ewrewee864wwwwwq98qewwwwww0w43797708wrrttttttttty0-;=+&#=",
"=%*+---qyttrrrreewqwweq800770weeeewwq9w9qqqqqwwww69qrwwwwww0044666530wqweeewww956qqq00ww0qww9wwwwwww9557889werrrrtttttttq---+*%=",
"=$*+---qytttrrreteew8q06066wweeqqqe868w000ww99wet80eeeww0wqqq85577380wereeeeew93w0000q0wwqqw66qwq0wwqq56977e9eeerrrttttyq---+*$=",
"=#%@=;-qyyyytttrrrw98e8995qeeqewww09wq0000w0qqewrr9reeewww9999756399wwewewwweq67qqww00q9qqqqw98qqqqwww05697r00rrttttttttq-;=@%#=",
"=@$+=--0ytttttrrrrrr0e7079ewwwqqqqqqqqqq95600wwwrrqwwwrwwwqqqq082600qewwrqrqw94wqqqq0wq3590000qqw00qqqqq699qq5rrtrrtttty0--=+$@=",
"=#$O=--0yyyyrtreeeewee899eeeqqq0wqqqq743340qqwwerrw9ereewwrqqq0077w0qqwrwwwqw6w0wwq0qqq7<33400qqw969wwwe7660w6eerrrrrtty0--=O$#=",
"=@$O===qyyytrrewwwwww906qrewq9qwqww221223www0wwwwwwwwreeeeewwwww60000qewwwqwwwwwwqq0qqqq61222290qqw8wwwwe677eqerrertttttq===O$@=",
"=#$O*=*0ytttterrrwwee00qwwqqw0wqq8133222000wweqwwwwwwwwewwwwwwrw0qqqqwweqwwwqwww00w0www0q2121116wwwwwwwwww99weerrrrrrtyy0*=*O$#=",
"=#$O===0yttrrrrerewe999rrr0wwwwq53143115wwqqqeeeqqqwqe0qqqqqqwewewqqq0qqeqqww0qqqq0wwqqqq02223333wwwewwwww978wreeerrrryy0===O$#=",
"=@#O===0tttttterrweq99errw8qqwe644442226wqwwweeweewqqqwwwewqqqwqww0w00www0qqqwqq0wqqwwwq0q13334424ewweqwwee869wrrerttttt0===O#@=",
"=+#o===0tttttteteeq70qrrwwwwww9443431335wwewwwwwqw0wwww946ewqqwwqw00qwqq66qwwqqwq0w0wwwww8323443335rrrwwwwe9886errrttttt0===o#+=",
"=@#o*==qttttrrrrew809erewwwwww225233312280ewwwwqww0ww05436wqqw00w0w0q00034270qw0wqqqeqqq723433434438wewewwer9777eerrrrttq==*o#@=",
"=@#o*==0ttttrrrwe799qereeeeeq6353233222334469eeqqwwqw0q668q770q090qq66q93589qwewwqqqq544223131432335wwwwwwwww7998rrrtttt0==*o#@=",
"=@#O*==0tttttrrr00q0eerrrwwe664333332353342650qwwwwww0006408qq000wqqq777688wqqwwwww066232133222233377wwwewwrw99990rttttt0==*O#@=",
"=@#O=--0ttttrrr9908qreeeree96053412250090077557766899945850wwwwq9000q002672678908866665998077233324966wwweeetw8899wrtttt0--=O#@=",
"=O#o===0ttttrq00009ereeeeee079436330eewwwww96555554554439440w0w00w0qqq7384365775666650qewwwqqq422238860wwrreee900q0qrttt0===o#O=",
"=O+.*==0ytttq99099qeewwwrwq80782300qwwweqqqwq555566556633637w00wwqeqwq36634665977555qqwwwwwqwww92369990eeeeteeqqqwwqqwtt0==*.+O=",
"=++o===0ttt0000888qeeweewwq80063qewwwwweeew00041348445553553qqqqw0www64743656885556wqewwwwwww0qqq157089errrrrrw00eeewqtt0===o++=",
"=@#+===qttrq009677wweewwww777958ewweqeewqqw000951369544633822qw000ww02662664595557qw0wwwwqqq9090w848908rwetewww9qwrerrttq===+#@=",
"=@$+===0ttt0q97777wewwwweew9996qq79qww94690w700q62566555436444wqq0qw23633655766340wwwww0967e09857q60q9qeeeewwww090wweeyy0===+$@=",
"=@#O===0yttqq0888qewwwwwwww0ww9qq799773588008600055775455345433343311533553456550we99qq0975807779999wwwreewwwwww9wwweett0===O#@=",
"=+#O=-=0tttwqqq99weeewwwqq00qq8007866946800wq7qqw9489345433333222224424424235666eqq80ww0e07006966990qqqewwwweeww8qewweyy0=-=O#+=",
"=+#O=-=0yttrqqq00ewww0666qwqee048884498q9qqqq577qq588643443244466722233334337548wq080qwqqqq88577967wwqww8679wwwe9wwwweyy0=-=O#+=",
"=##O=-=0yyyr0q000rrrw76660wwww03566755w00wwqq677qe86884431222415742333334234524qq6980eqqqeeq664564qwwww069969eeeew0wwrty0=-=O##=",
"=#$O*--0ytttw0000eee0788870w0qww966654ww000qqq457e9456533444133575143343323533596678wwweqww636669wewwww998009wwee00wwtty0--*O$#=",
"=#%+===qtttrwqw0qrrr7997959wwwewe046664qwwwqww97qq934772224133330513433332665280099erewwww8466450wweerq888999wweq9wwwyttq===+%#=",
"=#%+===0trw00qw0qeew00099770wwwwweq435430ewwqw0wqqw6345633333313033321322576368qqqwwwwww0645427qqq0wwtq8000009eew90qweer0===+%#=",
"=#$+==*0ww0ww9qqqrrqq999766qwwqqwwwq624535qwwqwqwww833565334341305331122580538w00wwewee8533230qq0qqewr0900q000qwq8qqwrww0*==+$#=",
"=@%+===9wwwwwqq9qtwwwq076750eweeqqeww533537qqwww0qq051588843333304451225888450q0qerwwwe35334wwqq900errq90qqqq9qww9qqeewe9===+%@=",
"=@$o&**0wwwqewq0erwqq009767eeeqwww00qq44779eeqw0wwq8842266643335553434999544q7wwqwwwwww9633w0q00wwwwerq9q000000rw90qeeee0**&o$@=",
"=#%O*==0weeqwwq0weqq9086850weweqwwwq0q028670qqq65534883126883144235148855540q746000ewww0927qqw0q0qwwerr09000qqqee99qewwe0==*O%#=",
"=@%+==-0eewqqew9er000007890weeeqe0q000w9488q00w944465qq55556422344335553338q446557wwwe0066qwww0qqqqeeee809999w0ee99eewwe0-==+%@=",
"=O#X*=-0eeww0wr0ee00988889ewwweqwwqwww99556qqww0788867qw75254852424745224qq74567790www996qqqqqqwqwweeee0697000qqe00eqqwe0-=*X#O=",
"=O+ &*=0eewqwqeqwwq0888880wweewwwww0999wq5700w00086655qqq0553593555312680005356686qqqq960www00wq0qqeeeeq6999qq00e0qwqwee0=*& +O=",
"=O+.&*=0wwwwwqewee00999890eeeewwwqqqq0qqq75qqwww785558qq990q3546434346966w99545588wqww99qwwwww0wwqeeeewe98990000w0w0qwww0=*&.+O=",
"=O#o*--0rwwwwwerww9999809wwwwwwwwww0wqw0005wwwww90663qw0e00ww64434247080w0ww55669qqqww78qqq9wwwqweewrweq68008800wee000qw0--*o#O=",
"=o#O=-=9rwwwqqqqw788866080qwwwwwqwqw0w00ww5wwqeew0786w00wwwwe545544500wqq0ww67790qwqww80q9w0wqwwwwwrweeq88099900qwwqqqww9=-=O#o=",
"=o$+===0wew00999966686778ew0eeewwww0wqwwwqqweeqwweqwwwqqqwww0436445409qqq00eewwqqqqqqw9w0wwwqwqerwwwewww899009000890qqww0===+$o=",
"=#&o*==qyyterew09966668888eewwwwww0wqqqwqewwewewwwwww0wewww0w63535450qq99qwqqqqwqqwww090ww0weeeeeeewwww990009780qwwwrrttq==*o&#=",
"=#$X==*0tyttrreweew8557799eeereewqqwwwwwwqqqewwqwwwwqqqwww55w6535635094999wwwwwqqqwqqww0qqweqqwqwewwree668q988eeeetterrt0*==X$#=",
"=#%o=*=0ytrreeeeewee946qq69ewwwwqqw00009qeeqwwwww0wwqqqww5537955633705350qqwwwqqqqwqqwwwwwwwwwwewwwwwe0679080werrrrrrrrt0=*=o%#=",
"=#*O*=*qtrrrreerewwweq79978weewwww0qq000qwwewqwqq0w000qww0647w7563589448wqwwwwwww000w00wqwwwwwwwwwwqww89996qrrrrertrrryyq*=*O*#=",
"=#&o*==0tteeewrrweeqqrr69977qqqqqqqq0wqqqeewew00q99q0wqwwwe76903448q46qqwwqwwwwwqqqqqqqqeweqrwwwwwwww067880wwweeerrrrrtt0==*o&#=",
"=#$X&**0tttwwere0weeeeee86668ww0qqwwwwwwwwwwwqww09q9q89ewwww0485446550qqqqq9eqwqqqq900wwwwwweweqqq0005697qerwwteeerrrtyy0**&X$#=",
"=+@.%*&qttttweew0wewwwrr966647wwwwqeeqqwwww0000w00q9q08wwwwww55555528wwwqq9qqqqqeww8wwewwwwwqwqwqwqq35667rrreeeeqetrrtttq&*%.@+=",
"=O#o&&*0trrtreee0wrewwwww66865qqq0wqqwqqqq0000900w000w99ree0w743555680qq0000qqwqe006qwwwewwwww0wqq054775wrweerrrqwrrtttt0*&&o#O=",
"=@%@-=*0treerree9weeeeeee946855wwqeqee0w0qq0008w000w0w50www7w8845555q0000858wwqqww99qwwwwwqq9q0www94674qerrerrrw0wwttrrr0*=-@%@=",
"=$&#=;-qttrrrree90eewwewwqq46885qqqqw0w0q9q8qq5wwwq0w559www0e6088795800qq9510ww0ww6qeeweqq0000qw0968640eeeeerete9wrrrtttq-;=#&$=",
"=%%o=--qtttttrrrq9ewwwwwweww888669www00qqq00006600000w69qqeew4wwwww5qwq00647qqwqqq600wqqqw000q00555540wrwrwwrwe09eeetrttq--=o%%=",
"=%%X*=-qytttterrw0eeqwwwwewww966647wew0qwqqwwq9400000ww9qeeww9q6w60690qq0500qqqqe79w0qwqq0wqqq9355369wweetwrwwe99rrrttttq-=*X%%=",
"=%%X**=qytttterrw60wwqweewweee056649wwwwww0q0qq30qw0qqeq0eww8q73835q7qq977q00www03qw0qe0qwwww035336qqeeeerrwerw00rrwtrttq=**X%%=",
"=#%@=--qtyyttretw99ewwwqwwwweeee07566000wwqww9w640wqwq0eqwer0w75544089096q9qwq0e74w99ww0ww096455700qqwweewweer09qrwwetttq--=@%#=",
"=#%@=--qttttteeee89qwwrerqeeeewqqw9988800qqw979w26q00q0ww0wrww86456990w999wwwwe92ww69www9688699q0qqqwwwwwerrrr69wreeetttq--=@%#=",
"=#$X&==qerttteeee868eerwwwwwweqwwqq0qqq0ww088540710000qqw9qwwq8865599w08q0wwwwe43w640070q9qqw090qqqwqq0wweeerq88wtwwerttq==&X$#=",
"=#@o*=-qewrtteerw9560eerreerwwwwwwqq000wqqq9q837922w90qqqqw0qq7746680qw9wqqqew520w668808wwwq0000eeewwwwwqeeee578ttewwrr0q-=*o@#=",
"=@#o*--qrwwttwerrw695weewwwewwewqeewwqqqwww9q66404360qqq080wqq886499www7wqweww33w7469909qqqqq9wwwwwqqqqewwww897qrrrqrtqqq--*o#@=",
"=+#X*--qeewwtrweee7078eeeeeeeweqwwwe0qqqqqq90858ww2<q0qq9q90wq77767qqw000wwqe439q64677990wwqwwwweeeqeqwwwwe9899rrrrertqwq--*X#+=",
"=@#X*--qewwqttwwrr00970weeewwwwwwwwwwqewww88674600733000qq8ww999w968009ewqew8450q6357750w0ewqqweqqqwwwwweer9q90rrrqttqqwq--*X#@=",
"=@@X*--qywwwwttweee9996eeeqw00wwweeeeee0007799650q8339w9qq0q07qewwq59wewwwee748004336470q0ewwwwewwwwwwewee99qqwtreerrqeeq--*X@@=",
"=#$X*--qyywe0ttwree89975weqqw0000wwwee0009967676qq7400www0qqq9wqqww8wwqeeee0q649q6446489q0wewrwrqwwqwwwww98008errqrrwwwtq--*X$#=",
"=#%O=--qyyweqerewrrw59756qqqqqqwwwwrewq997777549ww68q8000wweeeewwqwwqwweqww90939qq34556800qqrwewwwwwwwwqq47680rrrwet0wwyq--=O%#=",
"=$$O=;;qyytqqwrrwwew666647w000qqqweeew090866850007598990qwwwwe9wwwwqewweq0099q679ww8586999qqwewwwwwwwqww54577rrrerrrqqeyq;;=O$$=",
"=$%O=-;qyttww0rrweeeq366639wwwwqeeewwwq0886970000449699qqwqqqw0eqqqqwqwwqqq0q9659qwq608689000eewwwwwqqq45666qrerrtrrqwttq;-=O%$=",
"=$&+==-qtttqq0rrewwww746655qqqqwwrrq099977qq5qq96309778qqww00eww000wweqw0000q0q669w045w98900qqeqqwqqwq456647eeeeettwwwttq-==+&$=",
"=#%@---qtttwwqrteerwwe556669wwwwrwwq00099q9689q9459q599qw0qq99w0qqeeqwwwww00qqq969w9559q090w0wwwwewwq865755wwwretttwwwttq---@%#=",
"=$%@;;-qtttetrrrrrewww04665799wewwrwqw90098888088q007000w00000wqqqw0qqeeqqeqq0ww69w66999qqq0wwwwqew0794466wweeeetttetrtyq-;;@%$=",
"=#$+-;;qttttttreeeewwew96659w67eweeqq9ww990079976360wq0wwwqq99w0qw000wwwwweqeq74568660090ww9qqewwww3064988wwwwrrrrttttttq;;-+$#=",
"=#%+=:;qttrytttteeerewew8577qq35eww99qq8999775643127ww0w0ww0w9qwqwq9ewwwewwwew533356790888qwwwwee727q4590ewwwerrrtttttttq;:=+%#=",
"=$%O=;-qttttttterreeeewww0069w847www800699999666680q70wwqqwwq0w948eweeewrwwwwqw867559790899w0wrw044w0579wwweeerrrtttttteq-;=O%$=",
"=#%O=-=qttyytttttrwrweweee044ww4685wwe06899999669qqq80eeeqqqqqw455qwwwrwwwwe0qqe96688889988qwe99938e638weeeerrrttyyyyyyeq=-=O%#=",
"=#%O===qtyytttttttweeeeeeee054w646349weq88789966qww97wwwwewqwq75357wwwwwweww00www999809600www44755w848wweeerrrrtttttyyyrq===O%#=",
"=+$o**=qttyyyttttrqweteerweee448459358wew088666qqqq889eewqwqw056w969weeewwww90eeew777770www0446448440rrrrrerrrrttyytyyyyq=**o$+=",
"=O@.&*&0tyytttttrrerrrrrtrreee7753574708qeeee9qqwww900wewwww078qrr070eewwww9qqwwwww90www98864373364eereeerrrrrrrttttyyyy0&*&.@O=",
"=++.%&&0ttyttttttteerttrreeeeeq99448660078wrweeweeq0860eqqew89qe8qr88wrrqww8w0qeeweeewq6458545449qweetterrrrrrrrtyyyyyyy0&&%.++=",
"=O#X&&*qyyytttttrtteeerrrrrewwwwe03486qw09w000wqweee055wewe07qrq90ee99eeew09w0eee000969659933339wweerrttttttterrryyyyyyyq*&&X#O=",
"=O#+=*=qytttttttttteertrerrrerewwwe9699ww8qe77789weww880ee06qrqrq90ww8qrwe800qww97899qq4696553rrwreerrtrrtrrrrrrtttyyyyyq=*=+#O=",
"=$%O===qyytttt3<,,>;;;-;;;-==-:<6eete9q9eq0qq88009re009qww79rqqreqqqww7weeqqqee969099w87q999qeee1,>>:;;--:;;===:<eetyyyyq===O%$=",
"=%*O-;-qyytttt:--:,:;;;;---;;==:3rrrreeewwq9eq99990ww00ew79ewwrrrr999w96qewwww099889w8500wrrrrr>;-:,:;;;;;==;;-->2ttyyyyq-;-O*%=",
"=@#o--=qyytttt;;-;,:;;;========:,rtttttttq990rq0q099qwee90eewqwerr9990w79qrrr909999w0799eerrtrt>---,>::;-====--=:,tyyyyyq=--o#@=",
"=o@o***0yyyyy:>;==>==;;=-===-===;6rtttrrrrww08rwqqq8qwrr0rreeewww00000ww9qrrw9000qwq6weeerrrttt::==::==:--===;=--;4yyyyy0***o@o=",
"=+@.%*&0eeeew>,:-;<32<62:>::-===-2ttttttttrte99q00q00ee0qtwwwqqwqqqww00eq9erwqqq0w09erwrrrerrr,,>;;><3<44>>>>:==-;1wwwee0&*%.@+=",
"=@@.%&%0tttr<,>;;>224151>,>,-====:0rtttttrrrrrrre989wwqrrrrrreeeetereeeeetwwtq90wrrrrrrrrrettr>>:;>>44243>>::,-=-;:7rttt0%&%.@@=",
"=+@.&&&0yyyy:>;-;:22411,:>><--====3tttttttttttrrerrrrerrrrrerrrwrrrrrrrrtttwtttttttttereerrrr<::--::3331<>>>><;=---2yyyy0&&&.@+=",
"=+#X&**0yyy3;:;=--2231<>>::<-;====:rrrtrrttttrrrrrrrrrrrterrrrreerttrrrrrtttttttttttttrrrrrrr::;--;;333<<>:>><;---;>yyyy0**&X#+=",
"=@@X%**0yyy,:;--;;2qtrreee8>=-====*4rrtrtttttttttetttrrrrrrtttttetttrerrrtttttttttttttttrrrr2::--;;:3qrrreee9,--=-::3yyy0**%X@@=",
"=$@o&**qyyy>:-=-::,1321111,;-======,trrrrrrtttttttrttrtttttttttrtrttrrrrttttttttttttttrrtttt<:;=-;;:>1311111,;----::,yyyq**&o@$=",
"=%%O***qyy4:--=;;;;;,;;------=-=*==-9rtrrrttyttttttttttttttttttttttttrrrrtttttttttttttttttt9>;-=-;;;;::-;;;-------;>,7uuq***O%%=",
"=$*#===quu,;==-;;;;;>;-------===*===2ttrrrryttttttttttttyyyyyytttttttrrtttttttttttttttrrett3;-=-;;;;;>:---------;-;>,2uuq===#*$=",
"=$&#*=-wu8,;---;;---:;;-======--*===:tttttyyyttyyyyyyyyyyyytttttttryytttyyytttttttyyttteett<;-=-;;;;-:;---====--:;;:,10uq--*#&$=",
"=##+=-;wq3:===------;;;-===;==:;===--5qqqqq000000q000000qq09000000090q00q00qqqqqqqqqqqqqww7,-==-;;---;---===;==-:;;:,<4ww--=+##=",
"=+@O------------============---------=*======-=========-==*=*=--==-===*=*=*&**---=--=-------;;---;;-===&&*==-=*&%&*****==---O@+=",
"=+$+=---=------;===-=========--;--;--========-======----====*===**--===*==**&=;-=*--==------;-=-;;:;-=**&&*=;-**&&****===--=+$+=",
"=@&+=====-==-=-===*&&&***=====-=--====*===***==*=======*====&*=*&&*==*==**&%&-==**==&******====-;-====*&%&==--*%%&&%&*=*=-==+&@=",
"=#$OOOOOO++O++++OOOooOoXoO+OOO++++@+OOOOOoooOOo.o++OOOOO++++oO+X .oO+oXoOoX.o@#oXX@@XooXXXXOOO+@@++OOOo..X+OOoo...XXoO##+O++O$#=",
"=#$$#$#######$$$$##@@####$%%%$$&**%$$$$$#######++#$####$%%$%$%%#++##$&$%*&$@#%&%%%%%$@###@$%$%&%%$%%%%$@+##%*#@@@@#@@%*&#@$&$$#=",
"=@#######$####$###OOOO+@@@##%%$#%$#@#@##@+@@@@OO+@@@++#####@@#@OOOOoo######+O@$%%%####@+@@##$$$#$##$##+O+OO$%@o+@++@$%$$#++@##@=",
"================================================================================================================================"
};
